{"glyphs":{"0":{"ha":861,"x_min":0,"x_max":0,"o":"m 514 42 l 506 39 l 506 35 l 493 35 l 493 42 l 486 39 l 486 35 l 483 35 l 483 29 l 486 29 l 486 21 b 488 13 486 18 486 14 b 500 11 490 10 494 10 l 500 18 b 493 21 494 17 493 18 l 493 29 l 506 29 b 507 13 506 25 504 17 b 519 11 510 10 517 10 l 519 18 b 514 21 517 17 514 18 l 514 29 l 519 29 l 519 35 l 514 35 z m 415 596 b 415 438 442 551 442 450 b 374 576 378 421 424 578 b 326 444 319 575 358 444 b 333 578 301 444 301 524 b 315 614 343 594 340 614 b 256 518 263 614 256 560 b 308 406 256 442 272 406 b 357 444 325 406 349 419 b 406 403 360 421 379 403 b 476 533 478 403 476 519 b 443 631 476 585 465 621 b 415 596 413 646 404 614 z m 540 397 b 593 447 571 397 588 425 b 619 403 593 429 597 403 b 694 586 685 403 664 610 b 686 478 708 575 689 525 b 728 392 683 442 692 392 b 797 728 800 392 849 592 b 604 860 763 821 688 871 b 443 721 524 849 454 785 b 511 689 432 654 486 613 b 719 756 540 778 644 818 b 754 424 826 667 788 431 b 753 540 733 419 750 525 b 704 611 761 588 735 611 b 658 561 678 611 664 596 b 639 474 647 481 636 442 b 624 611 646 543 665 611 b 594 581 604 611 597 600 b 558 438 593 563 589 438 b 544 463 544 438 544 463 b 553 554 544 501 553 533 b 526 590 553 579 540 590 b 488 492 489 590 488 507 b 540 397 488 447 501 397 z m 122 614 b 61 631 122 638 61 614 b 182 656 63 653 154 654 b 172 450 179 614 172 526 b 238 319 172 424 174 319 b 238 386 269 319 246 343 b 240 657 222 456 236 563 b 415 669 350 669 372 618 b 256 713 457 721 315 714 b 29 631 101 708 29 683 b 88 594 29 604 65 594 b 122 614 101 594 122 594 z m 532 596 b 560 635 551 596 560 619 b 531 669 560 653 550 669 b 501 635 511 669 501 651 b 532 596 501 614 511 596 z m 499 360 b 475 393 500 381 489 393 b 450 358 456 393 450 379 l 386 357 b 361 393 386 381 379 393 b 338 357 342 393 338 378 b 256 353 276 357 244 399 b 339 325 265 314 317 325 b 294 135 336 292 346 135 b 265 192 269 135 261 172 b 278 304 307 225 336 304 b 178 136 201 304 243 136 b 131 460 111 136 221 407 b 83 436 107 472 69 475 b 90 211 114 347 90 288 b 181 107 90 126 125 86 b 221 135 196 113 210 122 b 276 101 232 114 254 101 b 340 158 310 101 332 128 b 393 106 339 129 367 106 b 456 161 424 106 447 136 b 503 108 460 142 478 108 b 549 157 525 108 540 139 b 608 101 551 129 578 101 b 668 164 642 101 660 138 b 693 96 668 125 678 97 b 758 269 749 90 704 260 b 776 217 786 274 794 235 b 749 204 767 206 749 218 b 786 179 749 183 771 176 b 774 301 839 190 832 301 b 711 247 749 301 717 272 b 675 303 714 272 701 297 b 656 289 668 304 656 301 b 667 226 656 269 669 260 b 614 135 664 192 650 135 b 590 192 588 135 588 174 b 611 307 650 217 668 307 b 515 153 544 307 554 153 b 499 324 485 153 497 304 b 719 329 571 324 651 325 b 844 397 761 332 844 338 b 832 401 844 410 839 404 b 499 360 725 353 561 361 z m 388 325 l 450 325 b 401 146 447 299 447 143 b 388 325 375 147 389 297 z m 265 211 b 292 274 265 235 279 286 b 265 211 300 267 279 222 z m 593 211 b 619 275 594 226 606 272 b 628 251 629 276 632 269 b 593 211 622 233 611 219 z m 443 11 l 451 11 l 451 44 l 443 44 z m 349 42 l 340 39 l 340 35 l 338 35 l 338 29 l 340 29 b 342 13 340 24 339 17 b 354 11 344 10 350 10 l 354 18 b 349 21 350 17 349 18 l 349 29 l 354 29 l 354 35 l 349 35 z m 664 36 b 654 31 658 36 657 35 b 640 33 653 38 644 38 l 639 35 l 633 35 l 633 11 l 640 11 l 640 25 b 644 29 640 26 642 29 b 649 24 649 29 649 26 l 649 11 l 656 11 l 656 24 b 665 24 656 28 665 33 l 665 11 l 671 11 l 671 25 b 664 36 671 33 668 36 z m 428 36 b 422 33 425 36 424 35 l 421 35 l 413 35 l 413 11 l 422 11 b 422 26 422 13 422 25 b 429 24 424 31 429 29 l 429 11 l 439 11 l 439 25 b 428 36 439 33 433 36 z m 557 31 l 557 35 l 551 35 b 551 11 551 31 551 17 l 558 11 b 558 25 558 13 558 25 b 568 28 558 26 564 29 l 568 36 b 557 31 564 36 560 35 z m 468 36 b 456 22 460 36 456 31 b 481 13 456 13 469 7 l 478 18 b 465 21 475 17 465 14 l 481 21 b 468 36 481 31 475 36 z m 617 36 b 617 10 599 36 599 10 b 617 36 633 10 633 36 z m 588 24 b 601 28 588 29 597 31 l 601 35 b 601 13 571 42 572 3 l 601 18 b 588 24 597 18 588 17 z m 400 11 l 407 11 l 407 35 l 400 35 z m 236 18 l 232 35 l 225 35 l 221 18 l 218 35 l 210 35 l 217 11 l 224 11 l 228 26 l 233 11 l 240 11 l 246 35 l 239 35 z m 465 25 b 474 25 465 31 474 31 z m 617 17 b 617 29 608 17 607 29 b 617 17 624 29 624 17 z m 571 19 b 571 10 565 19 565 10 b 571 19 576 10 576 19 z m 329 19 b 329 10 324 19 324 10 b 329 19 336 10 336 19 z m 274 18 l 269 35 l 263 35 l 258 18 l 256 35 l 249 35 l 254 11 l 261 11 l 267 26 l 271 11 l 278 11 l 285 35 l 276 35 z m 311 18 l 307 35 l 301 35 l 296 18 l 293 35 l 286 35 l 292 11 l 300 11 l 304 26 l 308 11 l 317 11 l 322 35 l 315 35 z m 385 18 l 379 35 l 374 35 l 369 18 l 367 35 l 358 35 l 365 11 l 372 11 l 376 26 l 382 11 l 389 11 l 394 35 l 388 35 z m 403 44 b 403 36 396 44 396 36 b 403 44 408 36 408 44 z m 535 36 b 522 22 526 36 522 31 b 547 13 522 11 535 7 l 544 18 b 532 21 542 17 532 14 l 547 21 b 535 36 547 31 542 36 z m 532 25 b 540 25 532 31 540 31 z "},"1":{"ha":861,"x_min":0,"x_max":0,"o":"m 514 42 l 506 39 l 506 35 l 493 35 l 493 42 l 486 39 l 486 35 l 483 35 l 483 29 l 486 29 l 486 21 b 488 13 486 18 486 14 b 500 11 490 10 494 10 l 500 18 b 493 21 494 17 493 18 l 493 29 l 506 29 b 507 13 506 25 504 17 b 519 11 510 10 517 10 l 519 18 b 514 21 517 17 514 18 l 514 29 l 519 29 l 519 35 l 514 35 z m 415 596 b 415 438 442 551 442 450 b 374 576 378 421 424 578 b 326 444 319 575 358 444 b 333 578 301 444 301 524 b 315 614 343 594 340 614 b 256 518 263 614 256 560 b 308 406 256 442 272 406 b 357 444 325 406 349 419 b 406 403 360 421 379 403 b 476 533 478 403 476 519 b 443 631 476 585 465 621 b 415 596 413 646 404 614 z m 540 397 b 593 447 571 397 588 425 b 619 403 593 429 597 403 b 694 586 685 403 664 610 b 686 478 708 575 689 525 b 728 392 683 442 692 392 b 797 728 800 392 849 592 b 604 860 763 821 688 871 b 443 721 524 849 454 785 b 511 689 432 654 486 613 b 719 756 540 778 644 818 b 754 424 826 667 788 431 b 753 540 733 419 750 525 b 704 611 761 588 735 611 b 658 561 678 611 664 596 b 639 474 647 481 636 442 b 624 611 646 543 665 611 b 594 581 604 611 597 600 b 558 438 593 563 589 438 b 544 463 544 438 544 463 b 553 554 544 501 553 533 b 526 590 553 579 540 590 b 488 492 489 590 488 507 b 540 397 488 447 501 397 z m 122 614 b 61 631 122 638 61 614 b 182 656 63 653 154 654 b 172 450 179 614 172 526 b 238 319 172 424 174 319 b 238 386 269 319 246 343 b 240 657 222 456 236 563 b 415 669 350 669 372 618 b 256 713 457 721 315 714 b 29 631 101 708 29 683 b 88 594 29 604 65 594 b 122 614 101 594 122 594 z m 532 596 b 560 635 551 596 560 619 b 531 669 560 653 550 669 b 501 635 511 669 501 651 b 532 596 501 614 511 596 z m 499 360 b 475 393 500 381 489 393 b 450 358 456 393 450 379 l 386 357 b 361 393 386 381 379 393 b 338 357 342 393 338 378 b 256 353 276 357 244 399 b 339 325 265 314 317 325 b 294 135 336 292 346 135 b 265 192 269 135 261 172 b 278 304 307 225 336 304 b 178 136 201 304 243 136 b 131 460 111 136 221 407 b 83 436 107 472 69 475 b 90 211 114 347 90 288 b 181 107 90 126 125 86 b 221 135 196 113 210 122 b 276 101 232 114 254 101 b 340 158 310 101 332 128 b 393 106 339 129 367 106 b 456 161 424 106 447 136 b 503 108 460 142 478 108 b 549 157 525 108 540 139 b 608 101 551 129 578 101 b 668 164 642 101 660 138 b 693 96 668 125 678 97 b 758 269 749 90 704 260 b 776 217 786 274 794 235 b 749 204 767 206 749 218 b 786 179 749 183 771 176 b 774 301 839 190 832 301 b 711 247 749 301 717 272 b 675 303 714 272 701 297 b 656 289 668 304 656 301 b 667 226 656 269 669 260 b 614 135 664 192 650 135 b 590 192 588 135 588 174 b 611 307 650 217 668 307 b 515 153 544 307 554 153 b 499 324 485 153 497 304 b 719 329 571 324 651 325 b 844 397 761 332 844 338 b 832 401 844 410 839 404 b 499 360 725 353 561 361 z m 388 325 l 450 325 b 401 146 447 299 447 143 b 388 325 375 147 389 297 z m 265 211 b 292 274 265 235 279 286 b 265 211 300 267 279 222 z m 593 211 b 619 275 594 226 606 272 b 628 251 629 276 632 269 b 593 211 622 233 611 219 z m 443 11 l 451 11 l 451 44 l 443 44 z m 349 42 l 340 39 l 340 35 l 338 35 l 338 29 l 340 29 b 342 13 340 24 339 17 b 354 11 344 10 350 10 l 354 18 b 349 21 350 17 349 18 l 349 29 l 354 29 l 354 35 l 349 35 z m 664 36 b 654 31 658 36 657 35 b 640 33 653 38 644 38 l 639 35 l 633 35 l 633 11 l 640 11 l 640 25 b 644 29 640 26 642 29 b 649 24 649 29 649 26 l 649 11 l 656 11 l 656 24 b 665 24 656 28 665 33 l 665 11 l 671 11 l 671 25 b 664 36 671 33 668 36 z m 428 36 b 422 33 425 36 424 35 l 421 35 l 413 35 l 413 11 l 422 11 b 422 26 422 13 422 25 b 429 24 424 31 429 29 l 429 11 l 439 11 l 439 25 b 428 36 439 33 433 36 z m 557 31 l 557 35 l 551 35 b 551 11 551 31 551 17 l 558 11 b 558 25 558 13 558 25 b 568 28 558 26 564 29 l 568 36 b 557 31 564 36 560 35 z m 468 36 b 456 22 460 36 456 31 b 481 13 456 13 469 7 l 478 18 b 465 21 475 17 465 14 l 481 21 b 468 36 481 31 475 36 z m 617 36 b 617 10 599 36 599 10 b 617 36 633 10 633 36 z m 588 24 b 601 28 588 29 597 31 l 601 35 b 601 13 571 42 572 3 l 601 18 b 588 24 597 18 588 17 z m 400 11 l 407 11 l 407 35 l 400 35 z m 236 18 l 232 35 l 225 35 l 221 18 l 218 35 l 210 35 l 217 11 l 224 11 l 228 26 l 233 11 l 240 11 l 246 35 l 239 35 z m 465 25 b 474 25 465 31 474 31 z m 617 17 b 617 29 608 17 607 29 b 617 17 624 29 624 17 z m 571 19 b 571 10 565 19 565 10 b 571 19 576 10 576 19 z m 329 19 b 329 10 324 19 324 10 b 329 19 336 10 336 19 z m 274 18 l 269 35 l 263 35 l 258 18 l 256 35 l 249 35 l 254 11 l 261 11 l 267 26 l 271 11 l 278 11 l 285 35 l 276 35 z m 311 18 l 307 35 l 301 35 l 296 18 l 293 35 l 286 35 l 292 11 l 300 11 l 304 26 l 308 11 l 317 11 l 322 35 l 315 35 z m 385 18 l 379 35 l 374 35 l 369 18 l 367 35 l 358 35 l 365 11 l 372 11 l 376 26 l 382 11 l 389 11 l 394 35 l 388 35 z m 403 44 b 403 36 396 44 396 36 b 403 44 408 36 408 44 z m 535 36 b 522 22 526 36 522 31 b 547 13 522 11 535 7 l 544 18 b 532 21 542 17 532 14 l 547 21 b 535 36 547 31 542 36 z m 532 25 b 540 25 532 31 540 31 z "},"2":{"ha":861,"x_min":0,"x_max":0,"o":"m 514 42 l 506 39 l 506 35 l 493 35 l 493 42 l 486 39 l 486 35 l 483 35 l 483 29 l 486 29 l 486 21 b 488 13 486 18 486 14 b 500 11 490 10 494 10 l 500 18 b 493 21 494 17 493 18 l 493 29 l 506 29 b 507 13 506 25 504 17 b 519 11 510 10 517 10 l 519 18 b 514 21 517 17 514 18 l 514 29 l 519 29 l 519 35 l 514 35 z m 415 596 b 415 438 442 551 442 450 b 374 576 378 421 424 578 b 326 444 319 575 358 444 b 333 578 301 444 301 524 b 315 614 343 594 340 614 b 256 518 263 614 256 560 b 308 406 256 442 272 406 b 357 444 325 406 349 419 b 406 403 360 421 379 403 b 476 533 478 403 476 519 b 443 631 476 585 465 621 b 415 596 413 646 404 614 z m 540 397 b 593 447 571 397 588 425 b 619 403 593 429 597 403 b 694 586 685 403 664 610 b 686 478 708 575 689 525 b 728 392 683 442 692 392 b 797 728 800 392 849 592 b 604 860 763 821 688 871 b 443 721 524 849 454 785 b 511 689 432 654 486 613 b 719 756 540 778 644 818 b 754 424 826 667 788 431 b 753 540 733 419 750 525 b 704 611 761 588 735 611 b 658 561 678 611 664 596 b 639 474 647 481 636 442 b 624 611 646 543 665 611 b 594 581 604 611 597 600 b 558 438 593 563 589 438 b 544 463 544 438 544 463 b 553 554 544 501 553 533 b 526 590 553 579 540 590 b 488 492 489 590 488 507 b 540 397 488 447 501 397 z m 122 614 b 61 631 122 638 61 614 b 182 656 63 653 154 654 b 172 450 179 614 172 526 b 238 319 172 424 174 319 b 238 386 269 319 246 343 b 240 657 222 456 236 563 b 415 669 350 669 372 618 b 256 713 457 721 315 714 b 29 631 101 708 29 683 b 88 594 29 604 65 594 b 122 614 101 594 122 594 z m 532 596 b 560 635 551 596 560 619 b 531 669 560 653 550 669 b 501 635 511 669 501 651 b 532 596 501 614 511 596 z m 499 360 b 475 393 500 381 489 393 b 450 358 456 393 450 379 l 386 357 b 361 393 386 381 379 393 b 338 357 342 393 338 378 b 256 353 276 357 244 399 b 339 325 265 314 317 325 b 294 135 336 292 346 135 b 265 192 269 135 261 172 b 278 304 307 225 336 304 b 178 136 201 304 243 136 b 131 460 111 136 221 407 b 83 436 107 472 69 475 b 90 211 114 347 90 288 b 181 107 90 126 125 86 b 221 135 196 113 210 122 b 276 101 232 114 254 101 b 340 158 310 101 332 128 b 393 106 339 129 367 106 b 456 161 424 106 447 136 b 503 108 460 142 478 108 b 549 157 525 108 540 139 b 608 101 551 129 578 101 b 668 164 642 101 660 138 b 693 96 668 125 678 97 b 758 269 749 90 704 260 b 776 217 786 274 794 235 b 749 204 767 206 749 218 b 786 179 749 183 771 176 b 774 301 839 190 832 301 b 711 247 749 301 717 272 b 675 303 714 272 701 297 b 656 289 668 304 656 301 b 667 226 656 269 669 260 b 614 135 664 192 650 135 b 590 192 588 135 588 174 b 611 307 650 217 668 307 b 515 153 544 307 554 153 b 499 324 485 153 497 304 b 719 329 571 324 651 325 b 844 397 761 332 844 338 b 832 401 844 410 839 404 b 499 360 725 353 561 361 z m 388 325 l 450 325 b 401 146 447 299 447 143 b 388 325 375 147 389 297 z m 265 211 b 292 274 265 235 279 286 b 265 211 300 267 279 222 z m 593 211 b 619 275 594 226 606 272 b 628 251 629 276 632 269 b 593 211 622 233 611 219 z m 443 11 l 451 11 l 451 44 l 443 44 z m 349 42 l 340 39 l 340 35 l 338 35 l 338 29 l 340 29 b 342 13 340 24 339 17 b 354 11 344 10 350 10 l 354 18 b 349 21 350 17 349 18 l 349 29 l 354 29 l 354 35 l 349 35 z m 664 36 b 654 31 658 36 657 35 b 640 33 653 38 644 38 l 639 35 l 633 35 l 633 11 l 640 11 l 640 25 b 644 29 640 26 642 29 b 649 24 649 29 649 26 l 649 11 l 656 11 l 656 24 b 665 24 656 28 665 33 l 665 11 l 671 11 l 671 25 b 664 36 671 33 668 36 z m 428 36 b 422 33 425 36 424 35 l 421 35 l 413 35 l 413 11 l 422 11 b 422 26 422 13 422 25 b 429 24 424 31 429 29 l 429 11 l 439 11 l 439 25 b 428 36 439 33 433 36 z m 557 31 l 557 35 l 551 35 b 551 11 551 31 551 17 l 558 11 b 558 25 558 13 558 25 b 568 28 558 26 564 29 l 568 36 b 557 31 564 36 560 35 z m 468 36 b 456 22 460 36 456 31 b 481 13 456 13 469 7 l 478 18 b 465 21 475 17 465 14 l 481 21 b 468 36 481 31 475 36 z m 617 36 b 617 10 599 36 599 10 b 617 36 633 10 633 36 z m 588 24 b 601 28 588 29 597 31 l 601 35 b 601 13 571 42 572 3 l 601 18 b 588 24 597 18 588 17 z m 400 11 l 407 11 l 407 35 l 400 35 z m 236 18 l 232 35 l 225 35 l 221 18 l 218 35 l 210 35 l 217 11 l 224 11 l 228 26 l 233 11 l 240 11 l 246 35 l 239 35 z m 465 25 b 474 25 465 31 474 31 z m 617 17 b 617 29 608 17 607 29 b 617 17 624 29 624 17 z m 571 19 b 571 10 565 19 565 10 b 571 19 576 10 576 19 z m 329 19 b 329 10 324 19 324 10 b 329 19 336 10 336 19 z m 274 18 l 269 35 l 263 35 l 258 18 l 256 35 l 249 35 l 254 11 l 261 11 l 267 26 l 271 11 l 278 11 l 285 35 l 276 35 z m 311 18 l 307 35 l 301 35 l 296 18 l 293 35 l 286 35 l 292 11 l 300 11 l 304 26 l 308 11 l 317 11 l 322 35 l 315 35 z m 385 18 l 379 35 l 374 35 l 369 18 l 367 35 l 358 35 l 365 11 l 372 11 l 376 26 l 382 11 l 389 11 l 394 35 l 388 35 z m 403 44 b 403 36 396 44 396 36 b 403 44 408 36 408 44 z m 535 36 b 522 22 526 36 522 31 b 547 13 522 11 535 7 l 544 18 b 532 21 542 17 532 14 l 547 21 b 535 36 547 31 542 36 z m 532 25 b 540 25 532 31 540 31 z "},"3":{"ha":861,"x_min":0,"x_max":0,"o":"m 514 42 l 506 39 l 506 35 l 493 35 l 493 42 l 486 39 l 486 35 l 483 35 l 483 29 l 486 29 l 486 21 b 488 13 486 18 486 14 b 500 11 490 10 494 10 l 500 18 b 493 21 494 17 493 18 l 493 29 l 506 29 b 507 13 506 25 504 17 b 519 11 510 10 517 10 l 519 18 b 514 21 517 17 514 18 l 514 29 l 519 29 l 519 35 l 514 35 z m 415 596 b 415 438 442 551 442 450 b 374 576 378 421 424 578 b 326 444 319 575 358 444 b 333 578 301 444 301 524 b 315 614 343 594 340 614 b 256 518 263 614 256 560 b 308 406 256 442 272 406 b 357 444 325 406 349 419 b 406 403 360 421 379 403 b 476 533 478 403 476 519 b 443 631 476 585 465 621 b 415 596 413 646 404 614 z m 540 397 b 593 447 571 397 588 425 b 619 403 593 429 597 403 b 694 586 685 403 664 610 b 686 478 708 575 689 525 b 728 392 683 442 692 392 b 797 728 800 392 849 592 b 604 860 763 821 688 871 b 443 721 524 849 454 785 b 511 689 432 654 486 613 b 719 756 540 778 644 818 b 754 424 826 667 788 431 b 753 540 733 419 750 525 b 704 611 761 588 735 611 b 658 561 678 611 664 596 b 639 474 647 481 636 442 b 624 611 646 543 665 611 b 594 581 604 611 597 600 b 558 438 593 563 589 438 b 544 463 544 438 544 463 b 553 554 544 501 553 533 b 526 590 553 579 540 590 b 488 492 489 590 488 507 b 540 397 488 447 501 397 z m 122 614 b 61 631 122 638 61 614 b 182 656 63 653 154 654 b 172 450 179 614 172 526 b 238 319 172 424 174 319 b 238 386 269 319 246 343 b 240 657 222 456 236 563 b 415 669 350 669 372 618 b 256 713 457 721 315 714 b 29 631 101 708 29 683 b 88 594 29 604 65 594 b 122 614 101 594 122 594 z m 532 596 b 560 635 551 596 560 619 b 531 669 560 653 550 669 b 501 635 511 669 501 651 b 532 596 501 614 511 596 z m 499 360 b 475 393 500 381 489 393 b 450 358 456 393 450 379 l 386 357 b 361 393 386 381 379 393 b 338 357 342 393 338 378 b 256 353 276 357 244 399 b 339 325 265 314 317 325 b 294 135 336 292 346 135 b 265 192 269 135 261 172 b 278 304 307 225 336 304 b 178 136 201 304 243 136 b 131 460 111 136 221 407 b 83 436 107 472 69 475 b 90 211 114 347 90 288 b 181 107 90 126 125 86 b 221 135 196 113 210 122 b 276 101 232 114 254 101 b 340 158 310 101 332 128 b 393 106 339 129 367 106 b 456 161 424 106 447 136 b 503 108 460 142 478 108 b 549 157 525 108 540 139 b 608 101 551 129 578 101 b 668 164 642 101 660 138 b 693 96 668 125 678 97 b 758 269 749 90 704 260 b 776 217 786 274 794 235 b 749 204 767 206 749 218 b 786 179 749 183 771 176 b 774 301 839 190 832 301 b 711 247 749 301 717 272 b 675 303 714 272 701 297 b 656 289 668 304 656 301 b 667 226 656 269 669 260 b 614 135 664 192 650 135 b 590 192 588 135 588 174 b 611 307 650 217 668 307 b 515 153 544 307 554 153 b 499 324 485 153 497 304 b 719 329 571 324 651 325 b 844 397 761 332 844 338 b 832 401 844 410 839 404 b 499 360 725 353 561 361 z m 388 325 l 450 325 b 401 146 447 299 447 143 b 388 325 375 147 389 297 z m 265 211 b 292 274 265 235 279 286 b 265 211 300 267 279 222 z m 593 211 b 619 275 594 226 606 272 b 628 251 629 276 632 269 b 593 211 622 233 611 219 z m 443 11 l 451 11 l 451 44 l 443 44 z m 349 42 l 340 39 l 340 35 l 338 35 l 338 29 l 340 29 b 342 13 340 24 339 17 b 354 11 344 10 350 10 l 354 18 b 349 21 350 17 349 18 l 349 29 l 354 29 l 354 35 l 349 35 z m 664 36 b 654 31 658 36 657 35 b 640 33 653 38 644 38 l 639 35 l 633 35 l 633 11 l 640 11 l 640 25 b 644 29 640 26 642 29 b 649 24 649 29 649 26 l 649 11 l 656 11 l 656 24 b 665 24 656 28 665 33 l 665 11 l 671 11 l 671 25 b 664 36 671 33 668 36 z m 428 36 b 422 33 425 36 424 35 l 421 35 l 413 35 l 413 11 l 422 11 b 422 26 422 13 422 25 b 429 24 424 31 429 29 l 429 11 l 439 11 l 439 25 b 428 36 439 33 433 36 z m 557 31 l 557 35 l 551 35 b 551 11 551 31 551 17 l 558 11 b 558 25 558 13 558 25 b 568 28 558 26 564 29 l 568 36 b 557 31 564 36 560 35 z m 468 36 b 456 22 460 36 456 31 b 481 13 456 13 469 7 l 478 18 b 465 21 475 17 465 14 l 481 21 b 468 36 481 31 475 36 z m 617 36 b 617 10 599 36 599 10 b 617 36 633 10 633 36 z m 588 24 b 601 28 588 29 597 31 l 601 35 b 601 13 571 42 572 3 l 601 18 b 588 24 597 18 588 17 z m 400 11 l 407 11 l 407 35 l 400 35 z m 236 18 l 232 35 l 225 35 l 221 18 l 218 35 l 210 35 l 217 11 l 224 11 l 228 26 l 233 11 l 240 11 l 246 35 l 239 35 z m 465 25 b 474 25 465 31 474 31 z m 617 17 b 617 29 608 17 607 29 b 617 17 624 29 624 17 z m 571 19 b 571 10 565 19 565 10 b 571 19 576 10 576 19 z m 329 19 b 329 10 324 19 324 10 b 329 19 336 10 336 19 z m 274 18 l 269 35 l 263 35 l 258 18 l 256 35 l 249 35 l 254 11 l 261 11 l 267 26 l 271 11 l 278 11 l 285 35 l 276 35 z m 311 18 l 307 35 l 301 35 l 296 18 l 293 35 l 286 35 l 292 11 l 300 11 l 304 26 l 308 11 l 317 11 l 322 35 l 315 35 z m 385 18 l 379 35 l 374 35 l 369 18 l 367 35 l 358 35 l 365 11 l 372 11 l 376 26 l 382 11 l 389 11 l 394 35 l 388 35 z m 403 44 b 403 36 396 44 396 36 b 403 44 408 36 408 44 z m 535 36 b 522 22 526 36 522 31 b 547 13 522 11 535 7 l 544 18 b 532 21 542 17 532 14 l 547 21 b 535 36 547 31 542 36 z m 532 25 b 540 25 532 31 540 31 z "},"4":{"ha":904,"x_min":0,"x_max":0,"o":"m 36 563 b 356 235 31 368 107 235 b 442 244 386 235 415 239 b 654 -28 454 96 506 -28 b 846 529 967 -28 844 318 b 681 989 847 775 864 989 b 456 619 519 989 472 829 b 450 554 454 600 451 578 l 386 554 l 368 793 b 188 989 358 928 328 999 b 36 563 15 978 40 690 z "},"5":{"ha":889,"x_min":0,"x_max":0,"o":"m 581 671 l 450 671 b 446 710 418 671 414 710 l 660 707 b 668 990 911 704 922 990 l 361 990 b 36 729 122 990 35 929 b 351 418 38 506 108 415 l 478 419 b 213 307 504 257 319 297 b 472 -32 10 322 -136 -72 b 581 671 963 0 943 671 z "},"6":{"ha":901,"x_min":0,"x_max":0,"o":"m 583 621 l 453 621 b 514 693 378 621 425 701 b 703 657 574 688 643 660 b 513 994 954 643 935 990 b 36 507 199 997 51 817 b 475 -32 26 317 81 -32 b 583 621 967 -32 946 621 z m 418 356 l 424 401 b 490 401 428 432 486 435 l 496 357 b 418 356 506 282 410 285 z "},"7":{"ha":767,"x_min":0,"x_max":0,"o":"m 704 371 b 547 989 763 619 818 989 l 193 989 b 201 650 -61 989 -50 649 l 379 651 b 329 -25 208 188 107 13 b 704 371 500 -54 642 106 z "},"8":{"ha":851,"x_min":0,"x_max":0,"o":"m 132 433 b 422 -29 -61 325 38 -29 b 736 433 865 -29 876 336 b 417 989 838 503 921 989 b 132 433 19 989 -51 592 z m 463 647 l 457 603 b 390 604 453 572 394 569 l 385 650 b 463 647 376 717 471 718 z m 396 304 b 468 304 396 361 468 361 b 433 231 468 294 472 231 b 396 304 393 231 396 293 z "},"9":{"ha":861,"x_min":0,"x_max":0,"o":"m 514 42 l 506 39 l 506 35 l 493 35 l 493 42 l 486 39 l 486 35 l 483 35 l 483 29 l 486 29 l 486 21 b 488 13 486 18 486 14 b 500 11 490 10 494 10 l 500 18 b 493 21 494 17 493 18 l 493 29 l 506 29 b 507 13 506 25 504 17 b 519 11 510 10 517 10 l 519 18 b 514 21 517 17 514 18 l 514 29 l 519 29 l 519 35 l 514 35 z m 415 596 b 415 438 442 551 442 450 b 374 576 378 421 424 578 b 326 444 319 575 358 444 b 333 578 301 444 301 524 b 315 614 343 594 340 614 b 256 518 263 614 256 560 b 308 406 256 442 272 406 b 357 444 325 406 349 419 b 406 403 360 421 379 403 b 476 533 478 403 476 519 b 443 631 476 585 465 621 b 415 596 413 646 404 614 z m 540 397 b 593 447 571 397 588 425 b 619 403 593 429 597 403 b 694 586 685 403 664 610 b 686 478 708 575 689 525 b 728 392 683 442 692 392 b 797 728 800 392 849 592 b 604 860 763 821 688 871 b 443 721 524 849 454 785 b 511 689 432 654 486 613 b 719 756 540 778 644 818 b 754 424 826 667 788 431 b 753 540 733 419 750 525 b 704 611 761 588 735 611 b 658 561 678 611 664 596 b 639 474 647 481 636 442 b 624 611 646 543 665 611 b 594 581 604 611 597 600 b 558 438 593 563 589 438 b 544 463 544 438 544 463 b 553 554 544 501 553 533 b 526 590 553 579 540 590 b 488 492 489 590 488 507 b 540 397 488 447 501 397 z m 122 614 b 61 631 122 638 61 614 b 182 656 63 653 154 654 b 172 450 179 614 172 526 b 238 319 172 424 174 319 b 238 386 269 319 246 343 b 240 657 222 456 236 563 b 415 669 350 669 372 618 b 256 713 457 721 315 714 b 29 631 101 708 29 683 b 88 594 29 604 65 594 b 122 614 101 594 122 594 z m 532 596 b 560 635 551 596 560 619 b 531 669 560 653 550 669 b 501 635 511 669 501 651 b 532 596 501 614 511 596 z m 499 360 b 475 393 500 381 489 393 b 450 358 456 393 450 379 l 386 357 b 361 393 386 381 379 393 b 338 357 342 393 338 378 b 256 353 276 357 244 399 b 339 325 265 314 317 325 b 294 135 336 292 346 135 b 265 192 269 135 261 172 b 278 304 307 225 336 304 b 178 136 201 304 243 136 b 131 460 111 136 221 407 b 83 436 107 472 69 475 b 90 211 114 347 90 288 b 181 107 90 126 125 86 b 221 135 196 113 210 122 b 276 101 232 114 254 101 b 340 158 310 101 332 128 b 393 106 339 129 367 106 b 456 161 424 106 447 136 b 503 108 460 142 478 108 b 549 157 525 108 540 139 b 608 101 551 129 578 101 b 668 164 642 101 660 138 b 693 96 668 125 678 97 b 758 269 749 90 704 260 b 776 217 786 274 794 235 b 749 204 767 206 749 218 b 786 179 749 183 771 176 b 774 301 839 190 832 301 b 711 247 749 301 717 272 b 675 303 714 272 701 297 b 656 289 668 304 656 301 b 667 226 656 269 669 260 b 614 135 664 192 650 135 b 590 192 588 135 588 174 b 611 307 650 217 668 307 b 515 153 544 307 554 153 b 499 324 485 153 497 304 b 719 329 571 324 651 325 b 844 397 761 332 844 338 b 832 401 844 410 839 404 b 499 360 725 353 561 361 z m 388 325 l 450 325 b 401 146 447 299 447 143 b 388 325 375 147 389 297 z m 265 211 b 292 274 265 235 279 286 b 265 211 300 267 279 222 z m 593 211 b 619 275 594 226 606 272 b 628 251 629 276 632 269 b 593 211 622 233 611 219 z m 443 11 l 451 11 l 451 44 l 443 44 z m 349 42 l 340 39 l 340 35 l 338 35 l 338 29 l 340 29 b 342 13 340 24 339 17 b 354 11 344 10 350 10 l 354 18 b 349 21 350 17 349 18 l 349 29 l 354 29 l 354 35 l 349 35 z m 664 36 b 654 31 658 36 657 35 b 640 33 653 38 644 38 l 639 35 l 633 35 l 633 11 l 640 11 l 640 25 b 644 29 640 26 642 29 b 649 24 649 29 649 26 l 649 11 l 656 11 l 656 24 b 665 24 656 28 665 33 l 665 11 l 671 11 l 671 25 b 664 36 671 33 668 36 z m 428 36 b 422 33 425 36 424 35 l 421 35 l 413 35 l 413 11 l 422 11 b 422 26 422 13 422 25 b 429 24 424 31 429 29 l 429 11 l 439 11 l 439 25 b 428 36 439 33 433 36 z m 557 31 l 557 35 l 551 35 b 551 11 551 31 551 17 l 558 11 b 558 25 558 13 558 25 b 568 28 558 26 564 29 l 568 36 b 557 31 564 36 560 35 z m 468 36 b 456 22 460 36 456 31 b 481 13 456 13 469 7 l 478 18 b 465 21 475 17 465 14 l 481 21 b 468 36 481 31 475 36 z m 617 36 b 617 10 599 36 599 10 b 617 36 633 10 633 36 z m 588 24 b 601 28 588 29 597 31 l 601 35 b 601 13 571 42 572 3 l 601 18 b 588 24 597 18 588 17 z m 400 11 l 407 11 l 407 35 l 400 35 z m 236 18 l 232 35 l 225 35 l 221 18 l 218 35 l 210 35 l 217 11 l 224 11 l 228 26 l 233 11 l 240 11 l 246 35 l 239 35 z m 465 25 b 474 25 465 31 474 31 z m 617 17 b 617 29 608 17 607 29 b 617 17 624 29 624 17 z m 571 19 b 571 10 565 19 565 10 b 571 19 576 10 576 19 z m 329 19 b 329 10 324 19 324 10 b 329 19 336 10 336 19 z m 274 18 l 269 35 l 263 35 l 258 18 l 256 35 l 249 35 l 254 11 l 261 11 l 267 26 l 271 11 l 278 11 l 285 35 l 276 35 z m 311 18 l 307 35 l 301 35 l 296 18 l 293 35 l 286 35 l 292 11 l 300 11 l 304 26 l 308 11 l 317 11 l 322 35 l 315 35 z m 385 18 l 379 35 l 374 35 l 369 18 l 367 35 l 358 35 l 365 11 l 372 11 l 376 26 l 382 11 l 389 11 l 394 35 l 388 35 z m 403 44 b 403 36 396 44 396 36 b 403 44 408 36 408 44 z m 535 36 b 522 22 526 36 522 31 b 547 13 522 11 535 7 l 544 18 b 532 21 542 17 532 14 l 547 21 b 535 36 547 31 542 36 z m 532 25 b 540 25 532 31 540 31 z "},"\u0000":{"ha":0,"x_min":0,"x_max":0,"o":""},"\r":{"ha":347,"x_min":0,"x_max":0,"o":""}," ":{"ha":347,"x_min":0,"x_max":0,"o":""},"H":{"ha":1036,"x_min":0,"x_max":0,"o":"m 54 553 b 261 -28 31 281 21 -28 b 458 94 360 -28 424 -11 b 478 360 485 179 485 268 l 556 360 b 774 -28 553 153 590 -28 b 971 94 872 -28 936 -11 b 974 594 1021 251 974 429 b 794 1007 974 840 978 1007 b 569 633 607 1007 581 881 l 461 633 b 282 1007 461 857 456 1007 b 54 553 75 1007 64 853 z "},"A":{"ha":1026,"x_min":0,"x_max":0,"o":"m 244 -49 b 442 228 449 -47 457 64 b 594 228 436 288 600 288 b 803 -47 579 61 594 -51 b 974 513 1064 -42 1013 319 b 517 1004 914 814 801 1008 b 47 513 211 1000 94 797 b 244 -49 14 310 -35 -51 z m 432 547 l 428 581 b 608 581 414 690 622 694 l 604 547 b 585 521 603 536 596 526 b 513 513 574 515 529 513 b 432 547 474 514 435 525 z "},"M":{"ha":1354,"x_min":0,"x_max":0,"o":"m 60 619 b 57 175 50 500 29 317 b 267 -29 81 -11 165 -29 b 457 388 436 -29 457 143 b 679 7 521 192 597 7 b 900 385 763 7 838 192 b 1074 -28 900 143 901 -28 b 1301 529 1386 -28 1301 318 b 1061 1007 1301 717 1317 1003 b 900 972 1004 1008 951 1003 b 679 475 790 907 696 685 b 467 983 663 692 579 931 b 325 1007 422 1004 374 1007 b 60 619 92 1007 75 811 z "},"B":{"ha":1058,"x_min":0,"x_max":0,"o":"m 988 638 b 632 1003 992 878 857 1006 b 371 972 526 1001 474 997 b 271 1007 360 985 319 1007 b 49 619 110 1007 39 931 b 250 -28 56 403 -26 -28 b 390 -6 315 -28 356 -22 b 544 -28 422 -18 461 -28 b 1029 325 767 -28 1025 85 b 960 531 1031 440 1008 500 b 988 638 976 561 986 596 z m 447 701 b 449 596 668 731 646 594 z m 453 358 b 454 253 674 388 651 251 z "},"U":{"ha":993,"x_min":0,"x_max":0,"o":"m 36 526 b 465 -32 40 253 94 -21 b 954 529 876 -44 935 219 b 733 1007 983 972 838 1007 b 561 849 638 1007 589 943 b 539 389 543 783 542 474 b 450 389 538 326 450 326 b 446 835 450 500 464 749 b 281 1007 424 938 381 1007 b 36 526 61 1007 29 836 z "},"R":{"ha":1029,"x_min":0,"x_max":0,"o":"m 1000 638 b 644 1003 1004 878 869 1006 b 375 974 540 1001 475 997 b 254 1007 350 994 304 1010 b 49 619 79 1000 51 908 b 261 -28 46 347 -10 -28 b 469 86 354 -28 440 -19 b 481 288 483 139 485 211 b 496 286 486 288 490 286 b 792 -22 554 168 606 -22 b 904 329 1019 -22 1044 168 b 851 385 885 351 868 369 b 1000 638 938 444 999 529 z m 460 665 b 461 560 679 694 658 558 b 461 586 461 568 461 578 l 460 639 b 460 665 460 647 460 657 z "},"G":{"ha":1019,"x_min":0,"x_max":0,"o":"m 458 -15 b 658 121 579 -28 646 29 b 707 -26 661 146 661 26 b 960 68 779 -108 956 -57 b 968 410 965 197 971 393 b 526 468 942 567 535 558 b 572 403 521 411 525 407 b 585 367 588 401 585 403 b 456 369 585 313 461 301 b 690 618 439 582 456 786 b 978 764 794 543 978 638 b 569 1019 978 943 867 1022 b 28 506 210 1017 28 844 b 458 -15 28 251 163 14 z "},"O":{"ha":1144,"x_min":0,"x_max":0,"o":"m 29 460 b 572 -32 31 146 229 -33 b 1115 508 933 -31 1121 149 b 529 1014 1108 904 806 1019 b 29 460 283 1008 28 857 z m 428 640 b 722 640 467 763 683 763 b 572 369 740 582 725 374 b 428 640 414 364 410 583 z "},"F":{"ha":893,"x_min":0,"x_max":0,"o":"m 49 619 b 261 -28 46 347 -10 -28 b 469 86 353 -28 442 -19 b 482 278 486 147 482 215 l 601 272 b 608 554 871 260 879 575 l 464 543 b 463 696 460 588 463 663 l 733 699 b 549 1014 971 701 969 1028 b 371 989 493 1013 414 1000 b 254 1007 336 1008 292 1007 b 93 931 192 1007 126 989 b 49 619 60 872 50 774 z "},"N":{"ha":1064,"x_min":0,"x_max":0,"o":"m 786 -28 b 1014 529 1099 -28 1007 318 b 807 1007 1028 938 990 1007 b 617 501 594 1007 624 664 b 299 1011 592 663 488 1007 b 49 619 67 1017 43 832 b 250 -28 54 403 -26 -28 b 474 328 456 -28 475 165 b 786 -28 532 133 642 -28 z "},"T":{"ha":953,"x_min":0,"x_max":0,"o":"m 249 619 b 458 -28 235 403 182 -28 b 679 529 771 -28 682 318 b 674 669 678 578 678 625 b 944 847 818 674 947 706 b 335 979 940 1046 539 996 b 8 811 139 963 6 928 b 253 672 10 715 110 682 b 249 619 251 656 250 638 z "},"I":{"ha":525,"x_min":0,"x_max":0,"o":"m 49 619 b 261 -28 46 347 -10 -35 b 469 86 360 -25 440 -21 b 461 594 503 210 461 429 b 254 1007 461 840 438 1017 b 49 619 79 997 51 908 z "},"V":{"ha":1015,"x_min":0,"x_max":0,"o":"m 15 785 b 507 -18 35 400 57 -18 b 1000 799 947 -18 1004 486 b 807 1010 999 976 919 1008 b 561 404 558 1013 624 733 b 469 408 547 331 486 304 b 229 1015 415 733 514 1024 b 15 785 82 1011 7 950 z "},"E":{"ha":899,"x_min":0,"x_max":0,"o":"m 49 619 b 199 -19 46 371 0 36 b 578 -33 301 -56 451 -33 b 851 119 757 -33 844 40 b 482 288 868 326 613 286 b 482 333 482 304 482 319 l 601 328 b 608 610 871 315 879 631 l 464 599 b 463 696 460 643 463 679 l 706 699 b 549 1014 943 701 969 1028 b 371 989 493 1013 414 1000 b 254 1007 336 1008 292 1007 b 93 931 192 1007 126 989 b 49 619 60 872 50 774 z "},"J":{"ha":925,"x_min":0,"x_max":0,"o":"m 879 553 b 824 921 869 724 864 846 b 739 994 807 956 775 982 b 468 1013 657 1026 542 1015 b 200 863 308 1008 199 981 b 446 694 203 744 228 688 b 444 594 444 663 444 629 b 261 347 444 435 485 335 b 43 203 151 353 32 360 b 496 -33 58 -14 326 -36 b 879 553 893 -29 892 332 z "},"C":{"ha":965,"x_min":0,"x_max":0,"o":"m 524 -18 b 919 258 674 -14 935 28 b 707 388 914 329 863 440 b 438 526 596 350 442 358 b 650 665 435 639 532 688 b 935 776 842 629 921 626 b 529 1019 958 1007 700 1019 b 29 522 221 1019 36 851 b 524 -18 24 213 163 -26 z "},"X":{"ha":944,"x_min":0,"x_max":0,"o":"m 213 472 b 231 449 218 465 225 457 b 90 39 76 311 -85 182 b 472 153 208 -57 347 26 b 856 39 597 26 738 -57 b 711 443 1029 181 867 308 b 733 472 719 453 726 463 b 851 949 879 664 976 847 b 471 732 729 1049 635 964 b 94 949 313 964 217 1049 b 213 472 -31 847 67 664 z "},"S":{"ha":882,"x_min":0,"x_max":0,"o":"m 361 315 b 224 321 356 296 251 315 b 38 169 122 339 38 260 b 481 -18 38 -25 346 -26 b 847 258 667 -7 847 65 b 492 681 847 594 492 568 b 564 681 492 721 532 703 b 847 804 688 594 847 694 b 431 993 847 982 633 993 b 38 740 256 993 61 960 b 361 315 4 428 389 413 z "},"Q":{"ha":1144,"x_min":0,"x_max":0,"o":"m 468 -97 b 842 14 513 -283 968 -249 b 1115 508 1025 89 1119 253 b 529 1014 1108 904 806 1019 b 29 460 283 1008 28 857 b 451 -24 31 185 183 14 z m 428 640 b 722 640 467 763 683 763 b 572 369 740 582 725 374 b 428 640 414 364 410 583 z "},"K":{"ha":985,"x_min":0,"x_max":0,"o":"m 50 619 b 67 129 47 475 28 264 b 263 -28 94 33 150 -28 b 471 86 356 -28 443 -21 b 482 282 485 138 486 207 l 490 289 b 742 -39 533 169 550 -39 b 921 231 969 -39 1038 32 b 746 511 865 325 843 450 b 788 549 758 522 774 536 b 579 883 1229 951 776 1126 l 461 739 b 256 1007 454 875 421 1013 b 50 619 81 1000 53 908 z "},"W":{"ha":1421,"x_min":0,"x_max":0,"o":"m 15 785 b 507 -18 35 400 57 -18 b 692 119 593 -18 665 17 b 913 -18 732 10 832 -18 b 1406 799 1353 -18 1410 486 b 1213 1010 1404 976 1325 1008 b 967 404 964 1013 1029 733 b 908 388 954 336 918 306 b 894 847 903 436 901 703 b 718 1015 889 957 851 1018 b 531 882 604 1013 547 975 b 547 399 510 765 528 510 b 469 408 563 311 482 321 b 229 1015 422 735 514 1024 b 15 785 82 1011 7 950 z "},"P":{"ha":1008,"x_min":0,"x_max":0,"o":"m 993 638 b 638 1003 997 878 863 1006 b 374 975 535 1001 471 999 b 254 1007 336 1006 299 1008 b 49 619 79 999 51 908 b 261 -28 46 347 -10 -28 b 469 86 356 -28 442 -18 b 481 283 483 139 485 208 b 993 638 735 263 989 400 z m 461 560 b 461 586 461 569 461 578 l 460 640 b 460 667 460 649 460 658 b 461 560 669 692 649 561 z "},"D":{"ha":1043,"x_min":0,"x_max":0,"o":"m 519 -18 b 1014 522 881 -26 1021 213 b 528 1007 1007 843 836 1007 b 368 978 489 1007 429 996 b 254 1007 339 999 303 1010 b 49 619 79 997 51 908 b 261 -28 46 347 -10 -35 b 399 -7 314 -26 361 -25 b 519 -18 442 -14 483 -17 z m 475 371 b 461 594 469 447 461 526 b 460 671 461 621 460 646 b 606 526 546 667 608 617 b 475 371 603 424 546 381 z "},"L":{"ha":846,"x_min":0,"x_max":0,"o":"m 50 619 b 65 136 47 479 26 268 b 564 -28 118 -44 371 -28 b 838 125 742 -28 831 46 b 468 293 854 332 590 292 b 463 594 471 350 463 493 b 256 1007 463 840 439 1017 b 50 619 81 997 53 908 z "},"Y":{"ha":961,"x_min":0,"x_max":0,"o":"m 8 772 b 246 329 19 561 104 406 b 461 -17 231 188 218 -17 b 682 319 767 -17 689 189 b 953 794 850 394 956 565 b 760 1006 951 972 872 1000 b 528 699 557 1015 557 899 b 450 703 517 624 474 572 b 222 1003 414 899 450 1003 b 8 772 75 1003 0 938 z "},"Z":{"ha":976,"x_min":0,"x_max":0,"o":"m 40 813 b 456 694 39 528 361 649 b 36 246 358 582 53 463 b 536 -31 15 -32 321 -33 b 940 188 711 -28 944 -18 b 515 335 936 393 772 383 b 940 838 569 383 940 535 b 419 1000 940 981 668 1003 b 40 813 204 997 40 947 z "},".":{"ha":861,"x_min":0,"x_max":0,"o":"m 514 42 l 506 39 l 506 35 l 493 35 l 493 42 l 486 39 l 486 35 l 483 35 l 483 29 l 486 29 l 486 21 b 488 13 486 18 486 14 b 500 11 490 10 494 10 l 500 18 b 493 21 494 17 493 18 l 493 29 l 506 29 b 507 13 506 25 504 17 b 519 11 510 10 517 10 l 519 18 b 514 21 517 17 514 18 l 514 29 l 519 29 l 519 35 l 514 35 z m 415 596 b 415 438 442 551 442 450 b 374 576 378 421 424 578 b 326 444 319 575 358 444 b 333 578 301 444 301 524 b 315 614 343 594 340 614 b 256 518 263 614 256 560 b 308 406 256 442 272 406 b 357 444 325 406 349 419 b 406 403 360 421 379 403 b 476 533 478 403 476 519 b 443 631 476 585 465 621 b 415 596 413 646 404 614 z m 540 397 b 593 447 571 397 588 425 b 619 403 593 429 597 403 b 694 586 685 403 664 610 b 686 478 708 575 689 525 b 728 392 683 442 692 392 b 797 728 800 392 849 592 b 604 860 763 821 688 871 b 443 721 524 849 454 785 b 511 689 432 654 486 613 b 719 756 540 778 644 818 b 754 424 826 667 788 431 b 753 540 733 419 750 525 b 704 611 761 588 735 611 b 658 561 678 611 664 596 b 639 474 647 481 636 442 b 624 611 646 543 665 611 b 594 581 604 611 597 600 b 558 438 593 563 589 438 b 544 463 544 438 544 463 b 553 554 544 501 553 533 b 526 590 553 579 540 590 b 488 492 489 590 488 507 b 540 397 488 447 501 397 z m 122 614 b 61 631 122 638 61 614 b 182 656 63 653 154 654 b 172 450 179 614 172 526 b 238 319 172 424 174 319 b 238 386 269 319 246 343 b 240 657 222 456 236 563 b 415 669 350 669 372 618 b 256 713 457 721 315 714 b 29 631 101 708 29 683 b 88 594 29 604 65 594 b 122 614 101 594 122 594 z m 532 596 b 560 635 551 596 560 619 b 531 669 560 653 550 669 b 501 635 511 669 501 651 b 532 596 501 614 511 596 z m 499 360 b 475 393 500 381 489 393 b 450 358 456 393 450 379 l 386 357 b 361 393 386 381 379 393 b 338 357 342 393 338 378 b 256 353 276 357 244 399 b 339 325 265 314 317 325 b 294 135 336 292 346 135 b 265 192 269 135 261 172 b 278 304 307 225 336 304 b 178 136 201 304 243 136 b 131 460 111 136 221 407 b 83 436 107 472 69 475 b 90 211 114 347 90 288 b 181 107 90 126 125 86 b 221 135 196 113 210 122 b 276 101 232 114 254 101 b 340 158 310 101 332 128 b 393 106 339 129 367 106 b 456 161 424 106 447 136 b 503 108 460 142 478 108 b 549 157 525 108 540 139 b 608 101 551 129 578 101 b 668 164 642 101 660 138 b 693 96 668 125 678 97 b 758 269 749 90 704 260 b 776 217 786 274 794 235 b 749 204 767 206 749 218 b 786 179 749 183 771 176 b 774 301 839 190 832 301 b 711 247 749 301 717 272 b 675 303 714 272 701 297 b 656 289 668 304 656 301 b 667 226 656 269 669 260 b 614 135 664 192 650 135 b 590 192 588 135 588 174 b 611 307 650 217 668 307 b 515 153 544 307 554 153 b 499 324 485 153 497 304 b 719 329 571 324 651 325 b 844 397 761 332 844 338 b 832 401 844 410 839 404 b 499 360 725 353 561 361 z m 388 325 l 450 325 b 401 146 447 299 447 143 b 388 325 375 147 389 297 z m 265 211 b 292 274 265 235 279 286 b 265 211 300 267 279 222 z m 593 211 b 619 275 594 226 606 272 b 628 251 629 276 632 269 b 593 211 622 233 611 219 z m 443 11 l 451 11 l 451 44 l 443 44 z m 349 42 l 340 39 l 340 35 l 338 35 l 338 29 l 340 29 b 342 13 340 24 339 17 b 354 11 344 10 350 10 l 354 18 b 349 21 350 17 349 18 l 349 29 l 354 29 l 354 35 l 349 35 z m 664 36 b 654 31 658 36 657 35 b 640 33 653 38 644 38 l 639 35 l 633 35 l 633 11 l 640 11 l 640 25 b 644 29 640 26 642 29 b 649 24 649 29 649 26 l 649 11 l 656 11 l 656 24 b 665 24 656 28 665 33 l 665 11 l 671 11 l 671 25 b 664 36 671 33 668 36 z m 428 36 b 422 33 425 36 424 35 l 421 35 l 413 35 l 413 11 l 422 11 b 422 26 422 13 422 25 b 429 24 424 31 429 29 l 429 11 l 439 11 l 439 25 b 428 36 439 33 433 36 z m 557 31 l 557 35 l 551 35 b 551 11 551 31 551 17 l 558 11 b 558 25 558 13 558 25 b 568 28 558 26 564 29 l 568 36 b 557 31 564 36 560 35 z m 468 36 b 456 22 460 36 456 31 b 481 13 456 13 469 7 l 478 18 b 465 21 475 17 465 14 l 481 21 b 468 36 481 31 475 36 z m 617 36 b 617 10 599 36 599 10 b 617 36 633 10 633 36 z m 588 24 b 601 28 588 29 597 31 l 601 35 b 601 13 571 42 572 3 l 601 18 b 588 24 597 18 588 17 z m 400 11 l 407 11 l 407 35 l 400 35 z m 236 18 l 232 35 l 225 35 l 221 18 l 218 35 l 210 35 l 217 11 l 224 11 l 228 26 l 233 11 l 240 11 l 246 35 l 239 35 z m 465 25 b 474 25 465 31 474 31 z m 617 17 b 617 29 608 17 607 29 b 617 17 624 29 624 17 z m 571 19 b 571 10 565 19 565 10 b 571 19 576 10 576 19 z m 329 19 b 329 10 324 19 324 10 b 329 19 336 10 336 19 z m 274 18 l 269 35 l 263 35 l 258 18 l 256 35 l 249 35 l 254 11 l 261 11 l 267 26 l 271 11 l 278 11 l 285 35 l 276 35 z m 311 18 l 307 35 l 301 35 l 296 18 l 293 35 l 286 35 l 292 11 l 300 11 l 304 26 l 308 11 l 317 11 l 322 35 l 315 35 z m 385 18 l 379 35 l 374 35 l 369 18 l 367 35 l 358 35 l 365 11 l 372 11 l 376 26 l 382 11 l 389 11 l 394 35 l 388 35 z m 403 44 b 403 36 396 44 396 36 b 403 44 408 36 408 44 z m 535 36 b 522 22 526 36 522 31 b 547 13 522 11 535 7 l 544 18 b 532 21 542 17 532 14 l 547 21 b 535 36 547 31 542 36 z m 532 25 b 540 25 532 31 540 31 z "},"m":{"ha":1481,"x_min":0,"x_max":0,"o":"m 949 399 b 1033 417 944 463 1036 481 b 1260 -49 1024 208 1018 -56 b 1446 297 1369 -46 1446 0 b 1163 764 1446 503 1422 747 b 903 633 1050 772 956 721 b 439 640 801 821 525 793 b 267 764 410 714 358 764 b 44 450 106 764 43 696 b 246 -28 46 290 8 -28 b 482 254 481 -28 492 117 l 482 403 b 561 417 482 467 558 481 b 758 -50 567 253 511 -54 b 943 421 1007 -44 950 189 z "},"h":{"ha":1024,"x_min":0,"x_max":0,"o":"m 44 619 b 246 -28 46 403 8 -28 b 482 208 419 -28 471 78 b 483 239 483 218 483 229 b 483 319 485 265 485 293 l 483 329 b 585 371 483 428 585 435 b 764 -28 586 1 649 -25 b 989 269 869 -32 989 17 b 746 763 989 511 989 744 b 471 660 635 771 543 742 b 267 1042 461 861 418 1042 b 44 619 106 1042 43 951 z "},"a":{"ha":1042,"x_min":0,"x_max":0,"o":"m 592 76 b 754 -28 618 14 667 -28 b 993 385 1067 -28 989 228 b 797 763 999 565 981 763 b 589 639 707 763 621 735 b 322 768 543 749 429 772 b 29 374 185 763 35 649 b 592 76 21 -78 454 -115 z m 461 454 b 568 463 463 535 569 540 b 525 332 567 413 574 336 b 461 454 464 328 460 406 z "},"b":{"ha":1068,"x_min":0,"x_max":0,"o":"m 476 76 b 1039 374 614 -115 1047 -78 b 746 768 1033 649 883 763 b 479 639 639 772 525 749 b 271 1042 483 1042 361 1042 b 51 581 88 1042 51 933 b 294 -28 51 342 -28 -18 b 476 76 382 -31 450 14 z m 607 454 b 543 332 608 406 604 328 b 500 463 494 336 501 413 b 607 454 499 540 606 535 z "},"u":{"ha":981,"x_min":0,"x_max":0,"o":"m 508 453 b 503 363 508 422 506 393 b 443 354 496 303 443 297 b 240 763 443 619 453 764 b 38 329 93 761 25 726 b 531 82 51 -103 453 -58 b 692 -14 558 28 610 -14 b 935 383 1004 -14 926 222 b 746 764 943 571 929 764 b 508 453 585 764 518 707 z "},"r":{"ha":988,"x_min":0,"x_max":0,"o":"m 44 451 b 246 -28 46 290 8 -28 b 483 232 468 -28 483 101 b 483 435 483 435 478 307 b 585 476 488 533 585 540 b 826 350 585 339 758 339 b 979 529 900 361 975 407 b 746 763 985 711 868 767 b 436 649 626 758 511 744 b 267 763 407 717 356 763 b 44 451 106 763 43 696 z "},"g":{"ha":1043,"x_min":0,"x_max":0,"o":"m 568 118 b 351 -33 563 -50 456 -32 b 522 -325 174 -36 108 -328 b 999 235 928 -322 999 -118 b 797 763 999 403 1031 763 b 590 642 704 763 624 764 b 300 764 557 749 413 776 b 29 383 149 747 39 619 b 346 29 21 171 111 19 b 568 118 428 33 526 72 z m 461 454 b 568 463 463 535 568 540 b 525 332 568 413 574 336 b 461 454 464 328 460 406 z "},"f":{"ha":729,"x_min":0,"x_max":0,"o":"m 44 578 b 246 -28 46 375 8 -28 b 482 335 483 -28 492 158 b 681 468 579 325 671 346 b 471 601 694 643 572 611 b 460 738 469 643 465 699 b 760 897 571 732 761 708 b 424 1042 758 976 708 1054 b 44 578 121 1029 43 879 z "},"o":{"ha":983,"x_min":0,"x_max":0,"o":"m 29 389 b 485 -14 17 104 215 -14 b 953 399 731 -14 978 57 b 485 778 933 671 774 778 b 29 389 286 778 44 719 z m 415 410 b 494 540 418 467 422 540 b 571 413 565 540 569 471 b 494 289 572 361 574 292 b 415 410 415 286 414 356 z "},"n":{"ha":1024,"x_min":0,"x_max":0,"o":"m 44 453 b 246 -26 46 292 8 -26 b 483 233 468 -26 483 103 b 483 386 483 386 483 274 b 585 428 483 485 585 492 b 764 -26 585 1 649 -18 b 989 271 869 -33 989 18 b 746 764 989 513 989 746 b 436 650 626 772 511 746 b 267 764 407 718 356 764 b 44 453 106 764 43 697 z "},"t":{"ha":826,"x_min":0,"x_max":0,"o":"m 561 760 b 374 972 536 882 483 972 b 163 758 250 972 186 922 b 150 490 -43 739 -42 521 b 525 -24 146 147 142 -18 b 811 169 672 -25 807 28 b 579 321 814 253 774 325 b 581 489 581 406 581 417 l 619 490 b 631 760 860 493 822 760 z "},"i":{"ha":522,"x_min":0,"x_max":0,"o":"m 86 872 b 439 872 117 704 419 699 b 86 872 464 1110 47 1086 z m 49 419 b 233 -28 46 269 -4 -28 b 475 357 546 -28 469 211 b 281 711 481 526 464 711 b 49 419 119 711 54 649 z "},"e":{"ha":903,"x_min":0,"x_max":0,"o":"m 28 372 b 496 -15 28 63 274 -24 b 872 203 775 -6 872 131 b 767 299 872 261 829 306 b 432 308 674 289 538 203 b 874 519 674 240 871 365 b 478 778 876 644 772 790 b 28 372 149 764 28 575 z m 401 414 b 440 529 394 436 401 496 b 538 478 489 571 563 532 b 401 414 517 435 454 411 z "},"v":{"ha":975,"x_min":0,"x_max":0,"o":"m 15 547 b 481 -18 31 240 203 -18 b 960 569 767 -18 964 257 b 767 781 958 747 879 775 b 535 404 564 790 564 604 b 457 408 524 329 481 278 b 229 778 421 604 457 778 b 15 547 82 778 7 713 z "},"c":{"ha":906,"x_min":0,"x_max":0,"o":"m 28 353 b 413 -24 28 51 274 -18 b 876 231 704 -35 881 93 b 671 351 875 315 779 396 b 431 408 535 296 449 314 b 575 501 415 494 500 526 b 864 596 743 444 864 489 b 468 779 864 707 714 782 b 28 353 192 776 28 649 z "},"x":{"ha":858,"x_min":0,"x_max":0,"o":"m 158 325 b 110 31 44 238 -53 140 b 429 61 207 -35 315 -15 b 749 31 544 -15 653 -35 b 700 325 910 140 814 238 b 779 750 839 497 899 658 b 429 593 672 832 538 717 b 79 750 321 717 186 832 b 158 325 -40 658 19 497 z "},"j":{"ha":553,"x_min":0,"x_max":0,"o":"m 101 872 b 454 872 132 704 436 699 b 101 872 481 1110 63 1086 z m 507 117 b 301 722 499 447 572 726 b 83 360 81 718 58 635 b 92 8 101 161 94 129 b -143 -182 -31 40 -161 -14 b 178 -346 -139 -226 -117 -358 b 507 117 431 -335 514 -185 z "},"s":{"ha":876,"x_min":0,"x_max":0,"o":"m 371 272 b 207 299 367 257 232 293 b 32 204 88 326 38 267 b 469 -26 13 -35 338 -31 b 840 214 642 -21 838 63 b 453 507 847 528 453 453 b 621 483 453 538 507 557 b 849 586 713 424 849 486 b 454 778 849 733 629 778 b 28 515 282 778 28 764 b 371 272 28 318 382 318 z "},"k":{"ha":928,"x_min":0,"x_max":0,"o":"m 44 619 b 246 -28 46 403 8 -28 b 483 317 465 -28 489 142 b 719 -28 518 215 482 -28 b 863 232 1032 -28 894 135 b 764 406 842 294 814 358 b 874 606 826 436 875 494 b 474 619 871 861 576 797 b 267 1042 465 836 428 1042 b 44 619 106 1042 42 951 z "},"q":{"ha":1056,"x_min":0,"x_max":0,"o":"m 592 76 b 732 -303 564 -231 646 -286 b 1013 304 1019 -357 1011 115 b 797 763 1015 667 946 763 b 589 639 707 763 621 735 b 322 768 543 749 429 772 b 29 374 185 763 35 649 b 592 76 21 -78 454 -115 z m 461 454 b 568 463 463 535 569 540 b 525 332 567 413 574 336 b 461 454 464 328 460 406 z "},"d":{"ha":1068,"x_min":0,"x_max":0,"o":"m 592 76 b 774 -28 618 14 686 -31 b 1017 581 1096 -18 1017 342 b 797 1042 1017 933 981 1042 b 589 639 707 1042 585 1042 b 322 768 543 749 429 772 b 29 374 185 763 35 649 b 592 76 21 -78 454 -115 z m 461 454 b 568 463 463 535 569 540 b 525 332 567 413 574 336 b 461 454 464 328 460 406 z "},"p":{"ha":1056,"x_min":0,"x_max":0,"o":"m 464 76 b 1026 374 601 -115 1035 -78 b 733 768 1021 649 871 763 b 467 639 626 772 513 749 b 258 763 435 735 349 763 b 43 304 110 763 40 667 b 324 -303 44 115 36 -357 b 464 76 410 -286 492 -231 z m 594 454 b 531 332 596 406 592 328 b 488 463 482 336 489 413 b 594 454 486 540 593 535 z "},"l":{"ha":706,"x_min":0,"x_max":0,"o":"m 44 619 b 418 -24 43 189 3 -18 b 704 169 565 -25 700 28 b 472 321 707 253 667 325 b 474 511 474 417 474 429 b 267 1042 474 765 450 1042 b 44 619 106 1042 46 951 z "},"w":{"ha":1399,"x_min":0,"x_max":0,"o":"m 15 533 b 432 -18 29 265 113 -18 b 681 143 538 -18 629 39 b 957 -17 724 53 832 -17 b 1383 557 1296 -17 1388 286 b 1190 765 1381 731 1303 760 b 986 404 988 775 1015 604 b 928 404 975 329 951 274 b 713 764 892 599 974 786 b 519 386 519 747 543 536 b 457 407 508 311 482 276 b 229 774 421 593 457 774 b 15 533 82 774 7 696 z "},"y":{"ha":985,"x_min":0,"x_max":0,"o":"m 939 140 b 733 776 931 488 1004 781 b 513 415 519 772 492 688 l 513 414 b 443 354 513 300 446 258 b 240 775 433 619 490 782 b 38 329 93 771 25 726 b 528 154 51 -93 471 -4 b 524 8 528 108 525 68 b 289 -182 401 40 271 -14 b 610 -346 293 -226 315 -358 b 939 140 863 -335 946 -176 z "},"z":{"ha":867,"x_min":0,"x_max":0,"o":"m 431 -14 b 826 168 675 -7 824 47 b 719 276 828 215 781 254 b 524 286 692 288 554 283 b 838 643 703 414 843 547 b 307 758 826 828 429 763 b 29 579 151 753 25 800 b 381 540 32 422 231 475 b 46 214 297 436 78 379 b 431 -14 -3 -39 325 -14 z "},",":{"ha":861,"x_min":0,"x_max":0,"o":"m 514 42 l 506 39 l 506 35 l 493 35 l 493 42 l 486 39 l 486 35 l 483 35 l 483 29 l 486 29 l 486 21 b 488 13 486 18 486 14 b 500 11 490 10 494 10 l 500 18 b 493 21 494 17 493 18 l 493 29 l 506 29 b 507 13 506 25 504 17 b 519 11 510 10 517 10 l 519 18 b 514 21 517 17 514 18 l 514 29 l 519 29 l 519 35 l 514 35 z m 415 596 b 415 438 442 551 442 450 b 374 576 378 421 424 578 b 326 444 319 575 358 444 b 333 578 301 444 301 524 b 315 614 343 594 340 614 b 256 518 263 614 256 560 b 308 406 256 442 272 406 b 357 444 325 406 349 419 b 406 403 360 421 379 403 b 476 533 478 403 476 519 b 443 631 476 585 465 621 b 415 596 413 646 404 614 z m 540 397 b 593 447 571 397 588 425 b 619 403 593 429 597 403 b 694 586 685 403 664 610 b 686 478 708 575 689 525 b 728 392 683 442 692 392 b 797 728 800 392 849 592 b 604 860 763 821 688 871 b 443 721 524 849 454 785 b 511 689 432 654 486 613 b 719 756 540 778 644 818 b 754 424 826 667 788 431 b 753 540 733 419 750 525 b 704 611 761 588 735 611 b 658 561 678 611 664 596 b 639 474 647 481 636 442 b 624 611 646 543 665 611 b 594 581 604 611 597 600 b 558 438 593 563 589 438 b 544 463 544 438 544 463 b 553 554 544 501 553 533 b 526 590 553 579 540 590 b 488 492 489 590 488 507 b 540 397 488 447 501 397 z m 122 614 b 61 631 122 638 61 614 b 182 656 63 653 154 654 b 172 450 179 614 172 526 b 238 319 172 424 174 319 b 238 386 269 319 246 343 b 240 657 222 456 236 563 b 415 669 350 669 372 618 b 256 713 457 721 315 714 b 29 631 101 708 29 683 b 88 594 29 604 65 594 b 122 614 101 594 122 594 z m 532 596 b 560 635 551 596 560 619 b 531 669 560 653 550 669 b 501 635 511 669 501 651 b 532 596 501 614 511 596 z m 499 360 b 475 393 500 381 489 393 b 450 358 456 393 450 379 l 386 357 b 361 393 386 381 379 393 b 338 357 342 393 338 378 b 256 353 276 357 244 399 b 339 325 265 314 317 325 b 294 135 336 292 346 135 b 265 192 269 135 261 172 b 278 304 307 225 336 304 b 178 136 201 304 243 136 b 131 460 111 136 221 407 b 83 436 107 472 69 475 b 90 211 114 347 90 288 b 181 107 90 126 125 86 b 221 135 196 113 210 122 b 276 101 232 114 254 101 b 340 158 310 101 332 128 b 393 106 339 129 367 106 b 456 161 424 106 447 136 b 503 108 460 142 478 108 b 549 157 525 108 540 139 b 608 101 551 129 578 101 b 668 164 642 101 660 138 b 693 96 668 125 678 97 b 758 269 749 90 704 260 b 776 217 786 274 794 235 b 749 204 767 206 749 218 b 786 179 749 183 771 176 b 774 301 839 190 832 301 b 711 247 749 301 717 272 b 675 303 714 272 701 297 b 656 289 668 304 656 301 b 667 226 656 269 669 260 b 614 135 664 192 650 135 b 590 192 588 135 588 174 b 611 307 650 217 668 307 b 515 153 544 307 554 153 b 499 324 485 153 497 304 b 719 329 571 324 651 325 b 844 397 761 332 844 338 b 832 401 844 410 839 404 b 499 360 725 353 561 361 z m 388 325 l 450 325 b 401 146 447 299 447 143 b 388 325 375 147 389 297 z m 265 211 b 292 274 265 235 279 286 b 265 211 300 267 279 222 z m 593 211 b 619 275 594 226 606 272 b 628 251 629 276 632 269 b 593 211 622 233 611 219 z m 443 11 l 451 11 l 451 44 l 443 44 z m 349 42 l 340 39 l 340 35 l 338 35 l 338 29 l 340 29 b 342 13 340 24 339 17 b 354 11 344 10 350 10 l 354 18 b 349 21 350 17 349 18 l 349 29 l 354 29 l 354 35 l 349 35 z m 664 36 b 654 31 658 36 657 35 b 640 33 653 38 644 38 l 639 35 l 633 35 l 633 11 l 640 11 l 640 25 b 644 29 640 26 642 29 b 649 24 649 29 649 26 l 649 11 l 656 11 l 656 24 b 665 24 656 28 665 33 l 665 11 l 671 11 l 671 25 b 664 36 671 33 668 36 z m 428 36 b 422 33 425 36 424 35 l 421 35 l 413 35 l 413 11 l 422 11 b 422 26 422 13 422 25 b 429 24 424 31 429 29 l 429 11 l 439 11 l 439 25 b 428 36 439 33 433 36 z m 557 31 l 557 35 l 551 35 b 551 11 551 31 551 17 l 558 11 b 558 25 558 13 558 25 b 568 28 558 26 564 29 l 568 36 b 557 31 564 36 560 35 z m 468 36 b 456 22 460 36 456 31 b 481 13 456 13 469 7 l 478 18 b 465 21 475 17 465 14 l 481 21 b 468 36 481 31 475 36 z m 617 36 b 617 10 599 36 599 10 b 617 36 633 10 633 36 z m 588 24 b 601 28 588 29 597 31 l 601 35 b 601 13 571 42 572 3 l 601 18 b 588 24 597 18 588 17 z m 400 11 l 407 11 l 407 35 l 400 35 z m 236 18 l 232 35 l 225 35 l 221 18 l 218 35 l 210 35 l 217 11 l 224 11 l 228 26 l 233 11 l 240 11 l 246 35 l 239 35 z m 465 25 b 474 25 465 31 474 31 z m 617 17 b 617 29 608 17 607 29 b 617 17 624 29 624 17 z m 571 19 b 571 10 565 19 565 10 b 571 19 576 10 576 19 z m 329 19 b 329 10 324 19 324 10 b 329 19 336 10 336 19 z m 274 18 l 269 35 l 263 35 l 258 18 l 256 35 l 249 35 l 254 11 l 261 11 l 267 26 l 271 11 l 278 11 l 285 35 l 276 35 z m 311 18 l 307 35 l 301 35 l 296 18 l 293 35 l 286 35 l 292 11 l 300 11 l 304 26 l 308 11 l 317 11 l 322 35 l 315 35 z m 385 18 l 379 35 l 374 35 l 369 18 l 367 35 l 358 35 l 365 11 l 372 11 l 376 26 l 382 11 l 389 11 l 394 35 l 388 35 z m 403 44 b 403 36 396 44 396 36 b 403 44 408 36 408 44 z m 535 36 b 522 22 526 36 522 31 b 547 13 522 11 535 7 l 544 18 b 532 21 542 17 532 14 l 547 21 b 535 36 547 31 542 36 z m 532 25 b 540 25 532 31 540 31 z "},";":{"ha":861,"x_min":0,"x_max":0,"o":"m 514 42 l 506 39 l 506 35 l 493 35 l 493 42 l 486 39 l 486 35 l 483 35 l 483 29 l 486 29 l 486 21 b 488 13 486 18 486 14 b 500 11 490 10 494 10 l 500 18 b 493 21 494 17 493 18 l 493 29 l 506 29 b 507 13 506 25 504 17 b 519 11 510 10 517 10 l 519 18 b 514 21 517 17 514 18 l 514 29 l 519 29 l 519 35 l 514 35 z m 415 596 b 415 438 442 551 442 450 b 374 576 378 421 424 578 b 326 444 319 575 358 444 b 333 578 301 444 301 524 b 315 614 343 594 340 614 b 256 518 263 614 256 560 b 308 406 256 442 272 406 b 357 444 325 406 349 419 b 406 403 360 421 379 403 b 476 533 478 403 476 519 b 443 631 476 585 465 621 b 415 596 413 646 404 614 z m 540 397 b 593 447 571 397 588 425 b 619 403 593 429 597 403 b 694 586 685 403 664 610 b 686 478 708 575 689 525 b 728 392 683 442 692 392 b 797 728 800 392 849 592 b 604 860 763 821 688 871 b 443 721 524 849 454 785 b 511 689 432 654 486 613 b 719 756 540 778 644 818 b 754 424 826 667 788 431 b 753 540 733 419 750 525 b 704 611 761 588 735 611 b 658 561 678 611 664 596 b 639 474 647 481 636 442 b 624 611 646 543 665 611 b 594 581 604 611 597 600 b 558 438 593 563 589 438 b 544 463 544 438 544 463 b 553 554 544 501 553 533 b 526 590 553 579 540 590 b 488 492 489 590 488 507 b 540 397 488 447 501 397 z m 122 614 b 61 631 122 638 61 614 b 182 656 63 653 154 654 b 172 450 179 614 172 526 b 238 319 172 424 174 319 b 238 386 269 319 246 343 b 240 657 222 456 236 563 b 415 669 350 669 372 618 b 256 713 457 721 315 714 b 29 631 101 708 29 683 b 88 594 29 604 65 594 b 122 614 101 594 122 594 z m 532 596 b 560 635 551 596 560 619 b 531 669 560 653 550 669 b 501 635 511 669 501 651 b 532 596 501 614 511 596 z m 499 360 b 475 393 500 381 489 393 b 450 358 456 393 450 379 l 386 357 b 361 393 386 381 379 393 b 338 357 342 393 338 378 b 256 353 276 357 244 399 b 339 325 265 314 317 325 b 294 135 336 292 346 135 b 265 192 269 135 261 172 b 278 304 307 225 336 304 b 178 136 201 304 243 136 b 131 460 111 136 221 407 b 83 436 107 472 69 475 b 90 211 114 347 90 288 b 181 107 90 126 125 86 b 221 135 196 113 210 122 b 276 101 232 114 254 101 b 340 158 310 101 332 128 b 393 106 339 129 367 106 b 456 161 424 106 447 136 b 503 108 460 142 478 108 b 549 157 525 108 540 139 b 608 101 551 129 578 101 b 668 164 642 101 660 138 b 693 96 668 125 678 97 b 758 269 749 90 704 260 b 776 217 786 274 794 235 b 749 204 767 206 749 218 b 786 179 749 183 771 176 b 774 301 839 190 832 301 b 711 247 749 301 717 272 b 675 303 714 272 701 297 b 656 289 668 304 656 301 b 667 226 656 269 669 260 b 614 135 664 192 650 135 b 590 192 588 135 588 174 b 611 307 650 217 668 307 b 515 153 544 307 554 153 b 499 324 485 153 497 304 b 719 329 571 324 651 325 b 844 397 761 332 844 338 b 832 401 844 410 839 404 b 499 360 725 353 561 361 z m 388 325 l 450 325 b 401 146 447 299 447 143 b 388 325 375 147 389 297 z m 265 211 b 292 274 265 235 279 286 b 265 211 300 267 279 222 z m 593 211 b 619 275 594 226 606 272 b 628 251 629 276 632 269 b 593 211 622 233 611 219 z m 443 11 l 451 11 l 451 44 l 443 44 z m 349 42 l 340 39 l 340 35 l 338 35 l 338 29 l 340 29 b 342 13 340 24 339 17 b 354 11 344 10 350 10 l 354 18 b 349 21 350 17 349 18 l 349 29 l 354 29 l 354 35 l 349 35 z m 664 36 b 654 31 658 36 657 35 b 640 33 653 38 644 38 l 639 35 l 633 35 l 633 11 l 640 11 l 640 25 b 644 29 640 26 642 29 b 649 24 649 29 649 26 l 649 11 l 656 11 l 656 24 b 665 24 656 28 665 33 l 665 11 l 671 11 l 671 25 b 664 36 671 33 668 36 z m 428 36 b 422 33 425 36 424 35 l 421 35 l 413 35 l 413 11 l 422 11 b 422 26 422 13 422 25 b 429 24 424 31 429 29 l 429 11 l 439 11 l 439 25 b 428 36 439 33 433 36 z m 557 31 l 557 35 l 551 35 b 551 11 551 31 551 17 l 558 11 b 558 25 558 13 558 25 b 568 28 558 26 564 29 l 568 36 b 557 31 564 36 560 35 z m 468 36 b 456 22 460 36 456 31 b 481 13 456 13 469 7 l 478 18 b 465 21 475 17 465 14 l 481 21 b 468 36 481 31 475 36 z m 617 36 b 617 10 599 36 599 10 b 617 36 633 10 633 36 z m 588 24 b 601 28 588 29 597 31 l 601 35 b 601 13 571 42 572 3 l 601 18 b 588 24 597 18 588 17 z m 400 11 l 407 11 l 407 35 l 400 35 z m 236 18 l 232 35 l 225 35 l 221 18 l 218 35 l 210 35 l 217 11 l 224 11 l 228 26 l 233 11 l 240 11 l 246 35 l 239 35 z m 465 25 b 474 25 465 31 474 31 z m 617 17 b 617 29 608 17 607 29 b 617 17 624 29 624 17 z m 571 19 b 571 10 565 19 565 10 b 571 19 576 10 576 19 z m 329 19 b 329 10 324 19 324 10 b 329 19 336 10 336 19 z m 274 18 l 269 35 l 263 35 l 258 18 l 256 35 l 249 35 l 254 11 l 261 11 l 267 26 l 271 11 l 278 11 l 285 35 l 276 35 z m 311 18 l 307 35 l 301 35 l 296 18 l 293 35 l 286 35 l 292 11 l 300 11 l 304 26 l 308 11 l 317 11 l 322 35 l 315 35 z m 385 18 l 379 35 l 374 35 l 369 18 l 367 35 l 358 35 l 365 11 l 372 11 l 376 26 l 382 11 l 389 11 l 394 35 l 388 35 z m 403 44 b 403 36 396 44 396 36 b 403 44 408 36 408 44 z m 535 36 b 522 22 526 36 522 31 b 547 13 522 11 535 7 l 544 18 b 532 21 542 17 532 14 l 547 21 b 535 36 547 31 542 36 z m 532 25 b 540 25 532 31 540 31 z "},":":{"ha":861,"x_min":0,"x_max":0,"o":"m 514 42 l 506 39 l 506 35 l 493 35 l 493 42 l 486 39 l 486 35 l 483 35 l 483 29 l 486 29 l 486 21 b 488 13 486 18 486 14 b 500 11 490 10 494 10 l 500 18 b 493 21 494 17 493 18 l 493 29 l 506 29 b 507 13 506 25 504 17 b 519 11 510 10 517 10 l 519 18 b 514 21 517 17 514 18 l 514 29 l 519 29 l 519 35 l 514 35 z m 415 596 b 415 438 442 551 442 450 b 374 576 378 421 424 578 b 326 444 319 575 358 444 b 333 578 301 444 301 524 b 315 614 343 594 340 614 b 256 518 263 614 256 560 b 308 406 256 442 272 406 b 357 444 325 406 349 419 b 406 403 360 421 379 403 b 476 533 478 403 476 519 b 443 631 476 585 465 621 b 415 596 413 646 404 614 z m 540 397 b 593 447 571 397 588 425 b 619 403 593 429 597 403 b 694 586 685 403 664 610 b 686 478 708 575 689 525 b 728 392 683 442 692 392 b 797 728 800 392 849 592 b 604 860 763 821 688 871 b 443 721 524 849 454 785 b 511 689 432 654 486 613 b 719 756 540 778 644 818 b 754 424 826 667 788 431 b 753 540 733 419 750 525 b 704 611 761 588 735 611 b 658 561 678 611 664 596 b 639 474 647 481 636 442 b 624 611 646 543 665 611 b 594 581 604 611 597 600 b 558 438 593 563 589 438 b 544 463 544 438 544 463 b 553 554 544 501 553 533 b 526 590 553 579 540 590 b 488 492 489 590 488 507 b 540 397 488 447 501 397 z m 122 614 b 61 631 122 638 61 614 b 182 656 63 653 154 654 b 172 450 179 614 172 526 b 238 319 172 424 174 319 b 238 386 269 319 246 343 b 240 657 222 456 236 563 b 415 669 350 669 372 618 b 256 713 457 721 315 714 b 29 631 101 708 29 683 b 88 594 29 604 65 594 b 122 614 101 594 122 594 z m 532 596 b 560 635 551 596 560 619 b 531 669 560 653 550 669 b 501 635 511 669 501 651 b 532 596 501 614 511 596 z m 499 360 b 475 393 500 381 489 393 b 450 358 456 393 450 379 l 386 357 b 361 393 386 381 379 393 b 338 357 342 393 338 378 b 256 353 276 357 244 399 b 339 325 265 314 317 325 b 294 135 336 292 346 135 b 265 192 269 135 261 172 b 278 304 307 225 336 304 b 178 136 201 304 243 136 b 131 460 111 136 221 407 b 83 436 107 472 69 475 b 90 211 114 347 90 288 b 181 107 90 126 125 86 b 221 135 196 113 210 122 b 276 101 232 114 254 101 b 340 158 310 101 332 128 b 393 106 339 129 367 106 b 456 161 424 106 447 136 b 503 108 460 142 478 108 b 549 157 525 108 540 139 b 608 101 551 129 578 101 b 668 164 642 101 660 138 b 693 96 668 125 678 97 b 758 269 749 90 704 260 b 776 217 786 274 794 235 b 749 204 767 206 749 218 b 786 179 749 183 771 176 b 774 301 839 190 832 301 b 711 247 749 301 717 272 b 675 303 714 272 701 297 b 656 289 668 304 656 301 b 667 226 656 269 669 260 b 614 135 664 192 650 135 b 590 192 588 135 588 174 b 611 307 650 217 668 307 b 515 153 544 307 554 153 b 499 324 485 153 497 304 b 719 329 571 324 651 325 b 844 397 761 332 844 338 b 832 401 844 410 839 404 b 499 360 725 353 561 361 z m 388 325 l 450 325 b 401 146 447 299 447 143 b 388 325 375 147 389 297 z m 265 211 b 292 274 265 235 279 286 b 265 211 300 267 279 222 z m 593 211 b 619 275 594 226 606 272 b 628 251 629 276 632 269 b 593 211 622 233 611 219 z m 443 11 l 451 11 l 451 44 l 443 44 z m 349 42 l 340 39 l 340 35 l 338 35 l 338 29 l 340 29 b 342 13 340 24 339 17 b 354 11 344 10 350 10 l 354 18 b 349 21 350 17 349 18 l 349 29 l 354 29 l 354 35 l 349 35 z m 664 36 b 654 31 658 36 657 35 b 640 33 653 38 644 38 l 639 35 l 633 35 l 633 11 l 640 11 l 640 25 b 644 29 640 26 642 29 b 649 24 649 29 649 26 l 649 11 l 656 11 l 656 24 b 665 24 656 28 665 33 l 665 11 l 671 11 l 671 25 b 664 36 671 33 668 36 z m 428 36 b 422 33 425 36 424 35 l 421 35 l 413 35 l 413 11 l 422 11 b 422 26 422 13 422 25 b 429 24 424 31 429 29 l 429 11 l 439 11 l 439 25 b 428 36 439 33 433 36 z m 557 31 l 557 35 l 551 35 b 551 11 551 31 551 17 l 558 11 b 558 25 558 13 558 25 b 568 28 558 26 564 29 l 568 36 b 557 31 564 36 560 35 z m 468 36 b 456 22 460 36 456 31 b 481 13 456 13 469 7 l 478 18 b 465 21 475 17 465 14 l 481 21 b 468 36 481 31 475 36 z m 617 36 b 617 10 599 36 599 10 b 617 36 633 10 633 36 z m 588 24 b 601 28 588 29 597 31 l 601 35 b 601 13 571 42 572 3 l 601 18 b 588 24 597 18 588 17 z m 400 11 l 407 11 l 407 35 l 400 35 z m 236 18 l 232 35 l 225 35 l 221 18 l 218 35 l 210 35 l 217 11 l 224 11 l 228 26 l 233 11 l 240 11 l 246 35 l 239 35 z m 465 25 b 474 25 465 31 474 31 z m 617 17 b 617 29 608 17 607 29 b 617 17 624 29 624 17 z m 571 19 b 571 10 565 19 565 10 b 571 19 576 10 576 19 z m 329 19 b 329 10 324 19 324 10 b 329 19 336 10 336 19 z m 274 18 l 269 35 l 263 35 l 258 18 l 256 35 l 249 35 l 254 11 l 261 11 l 267 26 l 271 11 l 278 11 l 285 35 l 276 35 z m 311 18 l 307 35 l 301 35 l 296 18 l 293 35 l 286 35 l 292 11 l 300 11 l 304 26 l 308 11 l 317 11 l 322 35 l 315 35 z m 385 18 l 379 35 l 374 35 l 369 18 l 367 35 l 358 35 l 365 11 l 372 11 l 376 26 l 382 11 l 389 11 l 394 35 l 388 35 z m 403 44 b 403 36 396 44 396 36 b 403 44 408 36 408 44 z m 535 36 b 522 22 526 36 522 31 b 547 13 522 11 535 7 l 544 18 b 532 21 542 17 532 14 l 547 21 b 535 36 547 31 542 36 z m 532 25 b 540 25 532 31 540 31 z "},"":{"ha":861,"x_min":0,"x_max":0,"o":"m 514 42 l 506 39 l 506 35 l 493 35 l 493 42 l 486 39 l 486 35 l 483 35 l 483 29 l 486 29 l 486 21 b 488 13 486 18 486 14 b 500 11 490 10 494 10 l 500 18 b 493 21 494 17 493 18 l 493 29 l 506 29 b 507 13 506 25 504 17 b 519 11 510 10 517 10 l 519 18 b 514 21 517 17 514 18 l 514 29 l 519 29 l 519 35 l 514 35 z m 415 596 b 415 438 442 551 442 450 b 374 576 378 421 424 578 b 326 444 319 575 358 444 b 333 578 301 444 301 524 b 315 614 343 594 340 614 b 256 518 263 614 256 560 b 308 406 256 442 272 406 b 357 444 325 406 349 419 b 406 403 360 421 379 403 b 476 533 478 403 476 519 b 443 631 476 585 465 621 b 415 596 413 646 404 614 z m 540 397 b 593 447 571 397 588 425 b 619 403 593 429 597 403 b 694 586 685 403 664 610 b 686 478 708 575 689 525 b 728 392 683 442 692 392 b 797 728 800 392 849 592 b 604 860 763 821 688 871 b 443 721 524 849 454 785 b 511 689 432 654 486 613 b 719 756 540 778 644 818 b 754 424 826 667 788 431 b 753 540 733 419 750 525 b 704 611 761 588 735 611 b 658 561 678 611 664 596 b 639 474 647 481 636 442 b 624 611 646 543 665 611 b 594 581 604 611 597 600 b 558 438 593 563 589 438 b 544 463 544 438 544 463 b 553 554 544 501 553 533 b 526 590 553 579 540 590 b 488 492 489 590 488 507 b 540 397 488 447 501 397 z m 122 614 b 61 631 122 638 61 614 b 182 656 63 653 154 654 b 172 450 179 614 172 526 b 238 319 172 424 174 319 b 238 386 269 319 246 343 b 240 657 222 456 236 563 b 415 669 350 669 372 618 b 256 713 457 721 315 714 b 29 631 101 708 29 683 b 88 594 29 604 65 594 b 122 614 101 594 122 594 z m 532 596 b 560 635 551 596 560 619 b 531 669 560 653 550 669 b 501 635 511 669 501 651 b 532 596 501 614 511 596 z m 499 360 b 475 393 500 381 489 393 b 450 358 456 393 450 379 l 386 357 b 361 393 386 381 379 393 b 338 357 342 393 338 378 b 256 353 276 357 244 399 b 339 325 265 314 317 325 b 294 135 336 292 346 135 b 265 192 269 135 261 172 b 278 304 307 225 336 304 b 178 136 201 304 243 136 b 131 460 111 136 221 407 b 83 436 107 472 69 475 b 90 211 114 347 90 288 b 181 107 90 126 125 86 b 221 135 196 113 210 122 b 276 101 232 114 254 101 b 340 158 310 101 332 128 b 393 106 339 129 367 106 b 456 161 424 106 447 136 b 503 108 460 142 478 108 b 549 157 525 108 540 139 b 608 101 551 129 578 101 b 668 164 642 101 660 138 b 693 96 668 125 678 97 b 758 269 749 90 704 260 b 776 217 786 274 794 235 b 749 204 767 206 749 218 b 786 179 749 183 771 176 b 774 301 839 190 832 301 b 711 247 749 301 717 272 b 675 303 714 272 701 297 b 656 289 668 304 656 301 b 667 226 656 269 669 260 b 614 135 664 192 650 135 b 590 192 588 135 588 174 b 611 307 650 217 668 307 b 515 153 544 307 554 153 b 499 324 485 153 497 304 b 719 329 571 324 651 325 b 844 397 761 332 844 338 b 832 401 844 410 839 404 b 499 360 725 353 561 361 z m 388 325 l 450 325 b 401 146 447 299 447 143 b 388 325 375 147 389 297 z m 265 211 b 292 274 265 235 279 286 b 265 211 300 267 279 222 z m 593 211 b 619 275 594 226 606 272 b 628 251 629 276 632 269 b 593 211 622 233 611 219 z m 443 11 l 451 11 l 451 44 l 443 44 z m 349 42 l 340 39 l 340 35 l 338 35 l 338 29 l 340 29 b 342 13 340 24 339 17 b 354 11 344 10 350 10 l 354 18 b 349 21 350 17 349 18 l 349 29 l 354 29 l 354 35 l 349 35 z m 664 36 b 654 31 658 36 657 35 b 640 33 653 38 644 38 l 639 35 l 633 35 l 633 11 l 640 11 l 640 25 b 644 29 640 26 642 29 b 649 24 649 29 649 26 l 649 11 l 656 11 l 656 24 b 665 24 656 28 665 33 l 665 11 l 671 11 l 671 25 b 664 36 671 33 668 36 z m 428 36 b 422 33 425 36 424 35 l 421 35 l 413 35 l 413 11 l 422 11 b 422 26 422 13 422 25 b 429 24 424 31 429 29 l 429 11 l 439 11 l 439 25 b 428 36 439 33 433 36 z m 557 31 l 557 35 l 551 35 b 551 11 551 31 551 17 l 558 11 b 558 25 558 13 558 25 b 568 28 558 26 564 29 l 568 36 b 557 31 564 36 560 35 z m 468 36 b 456 22 460 36 456 31 b 481 13 456 13 469 7 l 478 18 b 465 21 475 17 465 14 l 481 21 b 468 36 481 31 475 36 z m 617 36 b 617 10 599 36 599 10 b 617 36 633 10 633 36 z m 588 24 b 601 28 588 29 597 31 l 601 35 b 601 13 571 42 572 3 l 601 18 b 588 24 597 18 588 17 z m 400 11 l 407 11 l 407 35 l 400 35 z m 236 18 l 232 35 l 225 35 l 221 18 l 218 35 l 210 35 l 217 11 l 224 11 l 228 26 l 233 11 l 240 11 l 246 35 l 239 35 z m 465 25 b 474 25 465 31 474 31 z m 617 17 b 617 29 608 17 607 29 b 617 17 624 29 624 17 z m 571 19 b 571 10 565 19 565 10 b 571 19 576 10 576 19 z m 329 19 b 329 10 324 19 324 10 b 329 19 336 10 336 19 z m 274 18 l 269 35 l 263 35 l 258 18 l 256 35 l 249 35 l 254 11 l 261 11 l 267 26 l 271 11 l 278 11 l 285 35 l 276 35 z m 311 18 l 307 35 l 301 35 l 296 18 l 293 35 l 286 35 l 292 11 l 300 11 l 304 26 l 308 11 l 317 11 l 322 35 l 315 35 z m 385 18 l 379 35 l 374 35 l 369 18 l 367 35 l 358 35 l 365 11 l 372 11 l 376 26 l 382 11 l 389 11 l 394 35 l 388 35 z m 403 44 b 403 36 396 44 396 36 b 403 44 408 36 408 44 z m 535 36 b 522 22 526 36 522 31 b 547 13 522 11 535 7 l 544 18 b 532 21 542 17 532 14 l 547 21 b 535 36 547 31 542 36 z m 532 25 b 540 25 532 31 540 31 z "},"":{"ha":861,"x_min":0,"x_max":0,"o":"m 514 42 l 506 39 l 506 35 l 493 35 l 493 42 l 486 39 l 486 35 l 483 35 l 483 29 l 486 29 l 486 21 b 488 13 486 18 486 14 b 500 11 490 10 494 10 l 500 18 b 493 21 494 17 493 18 l 493 29 l 506 29 b 507 13 506 25 504 17 b 519 11 510 10 517 10 l 519 18 b 514 21 517 17 514 18 l 514 29 l 519 29 l 519 35 l 514 35 z m 415 596 b 415 438 442 551 442 450 b 374 576 378 421 424 578 b 326 444 319 575 358 444 b 333 578 301 444 301 524 b 315 614 343 594 340 614 b 256 518 263 614 256 560 b 308 406 256 442 272 406 b 357 444 325 406 349 419 b 406 403 360 421 379 403 b 476 533 478 403 476 519 b 443 631 476 585 465 621 b 415 596 413 646 404 614 z m 540 397 b 593 447 571 397 588 425 b 619 403 593 429 597 403 b 694 586 685 403 664 610 b 686 478 708 575 689 525 b 728 392 683 442 692 392 b 797 728 800 392 849 592 b 604 860 763 821 688 871 b 443 721 524 849 454 785 b 511 689 432 654 486 613 b 719 756 540 778 644 818 b 754 424 826 667 788 431 b 753 540 733 419 750 525 b 704 611 761 588 735 611 b 658 561 678 611 664 596 b 639 474 647 481 636 442 b 624 611 646 543 665 611 b 594 581 604 611 597 600 b 558 438 593 563 589 438 b 544 463 544 438 544 463 b 553 554 544 501 553 533 b 526 590 553 579 540 590 b 488 492 489 590 488 507 b 540 397 488 447 501 397 z m 122 614 b 61 631 122 638 61 614 b 182 656 63 653 154 654 b 172 450 179 614 172 526 b 238 319 172 424 174 319 b 238 386 269 319 246 343 b 240 657 222 456 236 563 b 415 669 350 669 372 618 b 256 713 457 721 315 714 b 29 631 101 708 29 683 b 88 594 29 604 65 594 b 122 614 101 594 122 594 z m 532 596 b 560 635 551 596 560 619 b 531 669 560 653 550 669 b 501 635 511 669 501 651 b 532 596 501 614 511 596 z m 499 360 b 475 393 500 381 489 393 b 450 358 456 393 450 379 l 386 357 b 361 393 386 381 379 393 b 338 357 342 393 338 378 b 256 353 276 357 244 399 b 339 325 265 314 317 325 b 294 135 336 292 346 135 b 265 192 269 135 261 172 b 278 304 307 225 336 304 b 178 136 201 304 243 136 b 131 460 111 136 221 407 b 83 436 107 472 69 475 b 90 211 114 347 90 288 b 181 107 90 126 125 86 b 221 135 196 113 210 122 b 276 101 232 114 254 101 b 340 158 310 101 332 128 b 393 106 339 129 367 106 b 456 161 424 106 447 136 b 503 108 460 142 478 108 b 549 157 525 108 540 139 b 608 101 551 129 578 101 b 668 164 642 101 660 138 b 693 96 668 125 678 97 b 758 269 749 90 704 260 b 776 217 786 274 794 235 b 749 204 767 206 749 218 b 786 179 749 183 771 176 b 774 301 839 190 832 301 b 711 247 749 301 717 272 b 675 303 714 272 701 297 b 656 289 668 304 656 301 b 667 226 656 269 669 260 b 614 135 664 192 650 135 b 590 192 588 135 588 174 b 611 307 650 217 668 307 b 515 153 544 307 554 153 b 499 324 485 153 497 304 b 719 329 571 324 651 325 b 844 397 761 332 844 338 b 832 401 844 410 839 404 b 499 360 725 353 561 361 z m 388 325 l 450 325 b 401 146 447 299 447 143 b 388 325 375 147 389 297 z m 265 211 b 292 274 265 235 279 286 b 265 211 300 267 279 222 z m 593 211 b 619 275 594 226 606 272 b 628 251 629 276 632 269 b 593 211 622 233 611 219 z m 443 11 l 451 11 l 451 44 l 443 44 z m 349 42 l 340 39 l 340 35 l 338 35 l 338 29 l 340 29 b 342 13 340 24 339 17 b 354 11 344 10 350 10 l 354 18 b 349 21 350 17 349 18 l 349 29 l 354 29 l 354 35 l 349 35 z m 664 36 b 654 31 658 36 657 35 b 640 33 653 38 644 38 l 639 35 l 633 35 l 633 11 l 640 11 l 640 25 b 644 29 640 26 642 29 b 649 24 649 29 649 26 l 649 11 l 656 11 l 656 24 b 665 24 656 28 665 33 l 665 11 l 671 11 l 671 25 b 664 36 671 33 668 36 z m 428 36 b 422 33 425 36 424 35 l 421 35 l 413 35 l 413 11 l 422 11 b 422 26 422 13 422 25 b 429 24 424 31 429 29 l 429 11 l 439 11 l 439 25 b 428 36 439 33 433 36 z m 557 31 l 557 35 l 551 35 b 551 11 551 31 551 17 l 558 11 b 558 25 558 13 558 25 b 568 28 558 26 564 29 l 568 36 b 557 31 564 36 560 35 z m 468 36 b 456 22 460 36 456 31 b 481 13 456 13 469 7 l 478 18 b 465 21 475 17 465 14 l 481 21 b 468 36 481 31 475 36 z m 617 36 b 617 10 599 36 599 10 b 617 36 633 10 633 36 z m 588 24 b 601 28 588 29 597 31 l 601 35 b 601 13 571 42 572 3 l 601 18 b 588 24 597 18 588 17 z m 400 11 l 407 11 l 407 35 l 400 35 z m 236 18 l 232 35 l 225 35 l 221 18 l 218 35 l 210 35 l 217 11 l 224 11 l 228 26 l 233 11 l 240 11 l 246 35 l 239 35 z m 465 25 b 474 25 465 31 474 31 z m 617 17 b 617 29 608 17 607 29 b 617 17 624 29 624 17 z m 571 19 b 571 10 565 19 565 10 b 571 19 576 10 576 19 z m 329 19 b 329 10 324 19 324 10 b 329 19 336 10 336 19 z m 274 18 l 269 35 l 263 35 l 258 18 l 256 35 l 249 35 l 254 11 l 261 11 l 267 26 l 271 11 l 278 11 l 285 35 l 276 35 z m 311 18 l 307 35 l 301 35 l 296 18 l 293 35 l 286 35 l 292 11 l 300 11 l 304 26 l 308 11 l 317 11 l 322 35 l 315 35 z m 385 18 l 379 35 l 374 35 l 369 18 l 367 35 l 358 35 l 365 11 l 372 11 l 376 26 l 382 11 l 389 11 l 394 35 l 388 35 z m 403 44 b 403 36 396 44 396 36 b 403 44 408 36 408 44 z m 535 36 b 522 22 526 36 522 31 b 547 13 522 11 535 7 l 544 18 b 532 21 542 17 532 14 l 547 21 b 535 36 547 31 542 36 z m 532 25 b 540 25 532 31 540 31 z "},"":{"ha":861,"x_min":0,"x_max":0,"o":"m 514 42 l 506 39 l 506 35 l 493 35 l 493 42 l 486 39 l 486 35 l 483 35 l 483 29 l 486 29 l 486 21 b 488 13 486 18 486 14 b 500 11 490 10 494 10 l 500 18 b 493 21 494 17 493 18 l 493 29 l 506 29 b 507 13 506 25 504 17 b 519 11 510 10 517 10 l 519 18 b 514 21 517 17 514 18 l 514 29 l 519 29 l 519 35 l 514 35 z m 415 596 b 415 438 442 551 442 450 b 374 576 378 421 424 578 b 326 444 319 575 358 444 b 333 578 301 444 301 524 b 315 614 343 594 340 614 b 256 518 263 614 256 560 b 308 406 256 442 272 406 b 357 444 325 406 349 419 b 406 403 360 421 379 403 b 476 533 478 403 476 519 b 443 631 476 585 465 621 b 415 596 413 646 404 614 z m 540 397 b 593 447 571 397 588 425 b 619 403 593 429 597 403 b 694 586 685 403 664 610 b 686 478 708 575 689 525 b 728 392 683 442 692 392 b 797 728 800 392 849 592 b 604 860 763 821 688 871 b 443 721 524 849 454 785 b 511 689 432 654 486 613 b 719 756 540 778 644 818 b 754 424 826 667 788 431 b 753 540 733 419 750 525 b 704 611 761 588 735 611 b 658 561 678 611 664 596 b 639 474 647 481 636 442 b 624 611 646 543 665 611 b 594 581 604 611 597 600 b 558 438 593 563 589 438 b 544 463 544 438 544 463 b 553 554 544 501 553 533 b 526 590 553 579 540 590 b 488 492 489 590 488 507 b 540 397 488 447 501 397 z m 122 614 b 61 631 122 638 61 614 b 182 656 63 653 154 654 b 172 450 179 614 172 526 b 238 319 172 424 174 319 b 238 386 269 319 246 343 b 240 657 222 456 236 563 b 415 669 350 669 372 618 b 256 713 457 721 315 714 b 29 631 101 708 29 683 b 88 594 29 604 65 594 b 122 614 101 594 122 594 z m 532 596 b 560 635 551 596 560 619 b 531 669 560 653 550 669 b 501 635 511 669 501 651 b 532 596 501 614 511 596 z m 499 360 b 475 393 500 381 489 393 b 450 358 456 393 450 379 l 386 357 b 361 393 386 381 379 393 b 338 357 342 393 338 378 b 256 353 276 357 244 399 b 339 325 265 314 317 325 b 294 135 336 292 346 135 b 265 192 269 135 261 172 b 278 304 307 225 336 304 b 178 136 201 304 243 136 b 131 460 111 136 221 407 b 83 436 107 472 69 475 b 90 211 114 347 90 288 b 181 107 90 126 125 86 b 221 135 196 113 210 122 b 276 101 232 114 254 101 b 340 158 310 101 332 128 b 393 106 339 129 367 106 b 456 161 424 106 447 136 b 503 108 460 142 478 108 b 549 157 525 108 540 139 b 608 101 551 129 578 101 b 668 164 642 101 660 138 b 693 96 668 125 678 97 b 758 269 749 90 704 260 b 776 217 786 274 794 235 b 749 204 767 206 749 218 b 786 179 749 183 771 176 b 774 301 839 190 832 301 b 711 247 749 301 717 272 b 675 303 714 272 701 297 b 656 289 668 304 656 301 b 667 226 656 269 669 260 b 614 135 664 192 650 135 b 590 192 588 135 588 174 b 611 307 650 217 668 307 b 515 153 544 307 554 153 b 499 324 485 153 497 304 b 719 329 571 324 651 325 b 844 397 761 332 844 338 b 832 401 844 410 839 404 b 499 360 725 353 561 361 z m 388 325 l 450 325 b 401 146 447 299 447 143 b 388 325 375 147 389 297 z m 265 211 b 292 274 265 235 279 286 b 265 211 300 267 279 222 z m 593 211 b 619 275 594 226 606 272 b 628 251 629 276 632 269 b 593 211 622 233 611 219 z m 443 11 l 451 11 l 451 44 l 443 44 z m 349 42 l 340 39 l 340 35 l 338 35 l 338 29 l 340 29 b 342 13 340 24 339 17 b 354 11 344 10 350 10 l 354 18 b 349 21 350 17 349 18 l 349 29 l 354 29 l 354 35 l 349 35 z m 664 36 b 654 31 658 36 657 35 b 640 33 653 38 644 38 l 639 35 l 633 35 l 633 11 l 640 11 l 640 25 b 644 29 640 26 642 29 b 649 24 649 29 649 26 l 649 11 l 656 11 l 656 24 b 665 24 656 28 665 33 l 665 11 l 671 11 l 671 25 b 664 36 671 33 668 36 z m 428 36 b 422 33 425 36 424 35 l 421 35 l 413 35 l 413 11 l 422 11 b 422 26 422 13 422 25 b 429 24 424 31 429 29 l 429 11 l 439 11 l 439 25 b 428 36 439 33 433 36 z m 557 31 l 557 35 l 551 35 b 551 11 551 31 551 17 l 558 11 b 558 25 558 13 558 25 b 568 28 558 26 564 29 l 568 36 b 557 31 564 36 560 35 z m 468 36 b 456 22 460 36 456 31 b 481 13 456 13 469 7 l 478 18 b 465 21 475 17 465 14 l 481 21 b 468 36 481 31 475 36 z m 617 36 b 617 10 599 36 599 10 b 617 36 633 10 633 36 z m 588 24 b 601 28 588 29 597 31 l 601 35 b 601 13 571 42 572 3 l 601 18 b 588 24 597 18 588 17 z m 400 11 l 407 11 l 407 35 l 400 35 z m 236 18 l 232 35 l 225 35 l 221 18 l 218 35 l 210 35 l 217 11 l 224 11 l 228 26 l 233 11 l 240 11 l 246 35 l 239 35 z m 465 25 b 474 25 465 31 474 31 z m 617 17 b 617 29 608 17 607 29 b 617 17 624 29 624 17 z m 571 19 b 571 10 565 19 565 10 b 571 19 576 10 576 19 z m 329 19 b 329 10 324 19 324 10 b 329 19 336 10 336 19 z m 274 18 l 269 35 l 263 35 l 258 18 l 256 35 l 249 35 l 254 11 l 261 11 l 267 26 l 271 11 l 278 11 l 285 35 l 276 35 z m 311 18 l 307 35 l 301 35 l 296 18 l 293 35 l 286 35 l 292 11 l 300 11 l 304 26 l 308 11 l 317 11 l 322 35 l 315 35 z m 385 18 l 379 35 l 374 35 l 369 18 l 367 35 l 358 35 l 365 11 l 372 11 l 376 26 l 382 11 l 389 11 l 394 35 l 388 35 z m 403 44 b 403 36 396 44 396 36 b 403 44 408 36 408 44 z m 535 36 b 522 22 526 36 522 31 b 547 13 522 11 535 7 l 544 18 b 532 21 542 17 532 14 l 547 21 b 535 36 547 31 542 36 z m 532 25 b 540 25 532 31 540 31 z "},"":{"ha":861,"x_min":0,"x_max":0,"o":"m 514 42 l 506 39 l 506 35 l 493 35 l 493 42 l 486 39 l 486 35 l 483 35 l 483 29 l 486 29 l 486 21 b 488 13 486 18 486 14 b 500 11 490 10 494 10 l 500 18 b 493 21 494 17 493 18 l 493 29 l 506 29 b 507 13 506 25 504 17 b 519 11 510 10 517 10 l 519 18 b 514 21 517 17 514 18 l 514 29 l 519 29 l 519 35 l 514 35 z m 415 596 b 415 438 442 551 442 450 b 374 576 378 421 424 578 b 326 444 319 575 358 444 b 333 578 301 444 301 524 b 315 614 343 594 340 614 b 256 518 263 614 256 560 b 308 406 256 442 272 406 b 357 444 325 406 349 419 b 406 403 360 421 379 403 b 476 533 478 403 476 519 b 443 631 476 585 465 621 b 415 596 413 646 404 614 z m 540 397 b 593 447 571 397 588 425 b 619 403 593 429 597 403 b 694 586 685 403 664 610 b 686 478 708 575 689 525 b 728 392 683 442 692 392 b 797 728 800 392 849 592 b 604 860 763 821 688 871 b 443 721 524 849 454 785 b 511 689 432 654 486 613 b 719 756 540 778 644 818 b 754 424 826 667 788 431 b 753 540 733 419 750 525 b 704 611 761 588 735 611 b 658 561 678 611 664 596 b 639 474 647 481 636 442 b 624 611 646 543 665 611 b 594 581 604 611 597 600 b 558 438 593 563 589 438 b 544 463 544 438 544 463 b 553 554 544 501 553 533 b 526 590 553 579 540 590 b 488 492 489 590 488 507 b 540 397 488 447 501 397 z m 122 614 b 61 631 122 638 61 614 b 182 656 63 653 154 654 b 172 450 179 614 172 526 b 238 319 172 424 174 319 b 238 386 269 319 246 343 b 240 657 222 456 236 563 b 415 669 350 669 372 618 b 256 713 457 721 315 714 b 29 631 101 708 29 683 b 88 594 29 604 65 594 b 122 614 101 594 122 594 z m 532 596 b 560 635 551 596 560 619 b 531 669 560 653 550 669 b 501 635 511 669 501 651 b 532 596 501 614 511 596 z m 499 360 b 475 393 500 381 489 393 b 450 358 456 393 450 379 l 386 357 b 361 393 386 381 379 393 b 338 357 342 393 338 378 b 256 353 276 357 244 399 b 339 325 265 314 317 325 b 294 135 336 292 346 135 b 265 192 269 135 261 172 b 278 304 307 225 336 304 b 178 136 201 304 243 136 b 131 460 111 136 221 407 b 83 436 107 472 69 475 b 90 211 114 347 90 288 b 181 107 90 126 125 86 b 221 135 196 113 210 122 b 276 101 232 114 254 101 b 340 158 310 101 332 128 b 393 106 339 129 367 106 b 456 161 424 106 447 136 b 503 108 460 142 478 108 b 549 157 525 108 540 139 b 608 101 551 129 578 101 b 668 164 642 101 660 138 b 693 96 668 125 678 97 b 758 269 749 90 704 260 b 776 217 786 274 794 235 b 749 204 767 206 749 218 b 786 179 749 183 771 176 b 774 301 839 190 832 301 b 711 247 749 301 717 272 b 675 303 714 272 701 297 b 656 289 668 304 656 301 b 667 226 656 269 669 260 b 614 135 664 192 650 135 b 590 192 588 135 588 174 b 611 307 650 217 668 307 b 515 153 544 307 554 153 b 499 324 485 153 497 304 b 719 329 571 324 651 325 b 844 397 761 332 844 338 b 832 401 844 410 839 404 b 499 360 725 353 561 361 z m 388 325 l 450 325 b 401 146 447 299 447 143 b 388 325 375 147 389 297 z m 265 211 b 292 274 265 235 279 286 b 265 211 300 267 279 222 z m 593 211 b 619 275 594 226 606 272 b 628 251 629 276 632 269 b 593 211 622 233 611 219 z m 443 11 l 451 11 l 451 44 l 443 44 z m 349 42 l 340 39 l 340 35 l 338 35 l 338 29 l 340 29 b 342 13 340 24 339 17 b 354 11 344 10 350 10 l 354 18 b 349 21 350 17 349 18 l 349 29 l 354 29 l 354 35 l 349 35 z m 664 36 b 654 31 658 36 657 35 b 640 33 653 38 644 38 l 639 35 l 633 35 l 633 11 l 640 11 l 640 25 b 644 29 640 26 642 29 b 649 24 649 29 649 26 l 649 11 l 656 11 l 656 24 b 665 24 656 28 665 33 l 665 11 l 671 11 l 671 25 b 664 36 671 33 668 36 z m 428 36 b 422 33 425 36 424 35 l 421 35 l 413 35 l 413 11 l 422 11 b 422 26 422 13 422 25 b 429 24 424 31 429 29 l 429 11 l 439 11 l 439 25 b 428 36 439 33 433 36 z m 557 31 l 557 35 l 551 35 b 551 11 551 31 551 17 l 558 11 b 558 25 558 13 558 25 b 568 28 558 26 564 29 l 568 36 b 557 31 564 36 560 35 z m 468 36 b 456 22 460 36 456 31 b 481 13 456 13 469 7 l 478 18 b 465 21 475 17 465 14 l 481 21 b 468 36 481 31 475 36 z m 617 36 b 617 10 599 36 599 10 b 617 36 633 10 633 36 z m 588 24 b 601 28 588 29 597 31 l 601 35 b 601 13 571 42 572 3 l 601 18 b 588 24 597 18 588 17 z m 400 11 l 407 11 l 407 35 l 400 35 z m 236 18 l 232 35 l 225 35 l 221 18 l 218 35 l 210 35 l 217 11 l 224 11 l 228 26 l 233 11 l 240 11 l 246 35 l 239 35 z m 465 25 b 474 25 465 31 474 31 z m 617 17 b 617 29 608 17 607 29 b 617 17 624 29 624 17 z m 571 19 b 571 10 565 19 565 10 b 571 19 576 10 576 19 z m 329 19 b 329 10 324 19 324 10 b 329 19 336 10 336 19 z m 274 18 l 269 35 l 263 35 l 258 18 l 256 35 l 249 35 l 254 11 l 261 11 l 267 26 l 271 11 l 278 11 l 285 35 l 276 35 z m 311 18 l 307 35 l 301 35 l 296 18 l 293 35 l 286 35 l 292 11 l 300 11 l 304 26 l 308 11 l 317 11 l 322 35 l 315 35 z m 385 18 l 379 35 l 374 35 l 369 18 l 367 35 l 358 35 l 365 11 l 372 11 l 376 26 l 382 11 l 389 11 l 394 35 l 388 35 z m 403 44 b 403 36 396 44 396 36 b 403 44 408 36 408 44 z m 535 36 b 522 22 526 36 522 31 b 547 13 522 11 535 7 l 544 18 b 532 21 542 17 532 14 l 547 21 b 535 36 547 31 542 36 z m 532 25 b 540 25 532 31 540 31 z "},"":{"ha":861,"x_min":0,"x_max":0,"o":"m 514 42 l 506 39 l 506 35 l 493 35 l 493 42 l 486 39 l 486 35 l 483 35 l 483 29 l 486 29 l 486 21 b 488 13 486 18 486 14 b 500 11 490 10 494 10 l 500 18 b 493 21 494 17 493 18 l 493 29 l 506 29 b 507 13 506 25 504 17 b 519 11 510 10 517 10 l 519 18 b 514 21 517 17 514 18 l 514 29 l 519 29 l 519 35 l 514 35 z m 415 596 b 415 438 442 551 442 450 b 374 576 378 421 424 578 b 326 444 319 575 358 444 b 333 578 301 444 301 524 b 315 614 343 594 340 614 b 256 518 263 614 256 560 b 308 406 256 442 272 406 b 357 444 325 406 349 419 b 406 403 360 421 379 403 b 476 533 478 403 476 519 b 443 631 476 585 465 621 b 415 596 413 646 404 614 z m 540 397 b 593 447 571 397 588 425 b 619 403 593 429 597 403 b 694 586 685 403 664 610 b 686 478 708 575 689 525 b 728 392 683 442 692 392 b 797 728 800 392 849 592 b 604 860 763 821 688 871 b 443 721 524 849 454 785 b 511 689 432 654 486 613 b 719 756 540 778 644 818 b 754 424 826 667 788 431 b 753 540 733 419 750 525 b 704 611 761 588 735 611 b 658 561 678 611 664 596 b 639 474 647 481 636 442 b 624 611 646 543 665 611 b 594 581 604 611 597 600 b 558 438 593 563 589 438 b 544 463 544 438 544 463 b 553 554 544 501 553 533 b 526 590 553 579 540 590 b 488 492 489 590 488 507 b 540 397 488 447 501 397 z m 122 614 b 61 631 122 638 61 614 b 182 656 63 653 154 654 b 172 450 179 614 172 526 b 238 319 172 424 174 319 b 238 386 269 319 246 343 b 240 657 222 456 236 563 b 415 669 350 669 372 618 b 256 713 457 721 315 714 b 29 631 101 708 29 683 b 88 594 29 604 65 594 b 122 614 101 594 122 594 z m 532 596 b 560 635 551 596 560 619 b 531 669 560 653 550 669 b 501 635 511 669 501 651 b 532 596 501 614 511 596 z m 499 360 b 475 393 500 381 489 393 b 450 358 456 393 450 379 l 386 357 b 361 393 386 381 379 393 b 338 357 342 393 338 378 b 256 353 276 357 244 399 b 339 325 265 314 317 325 b 294 135 336 292 346 135 b 265 192 269 135 261 172 b 278 304 307 225 336 304 b 178 136 201 304 243 136 b 131 460 111 136 221 407 b 83 436 107 472 69 475 b 90 211 114 347 90 288 b 181 107 90 126 125 86 b 221 135 196 113 210 122 b 276 101 232 114 254 101 b 340 158 310 101 332 128 b 393 106 339 129 367 106 b 456 161 424 106 447 136 b 503 108 460 142 478 108 b 549 157 525 108 540 139 b 608 101 551 129 578 101 b 668 164 642 101 660 138 b 693 96 668 125 678 97 b 758 269 749 90 704 260 b 776 217 786 274 794 235 b 749 204 767 206 749 218 b 786 179 749 183 771 176 b 774 301 839 190 832 301 b 711 247 749 301 717 272 b 675 303 714 272 701 297 b 656 289 668 304 656 301 b 667 226 656 269 669 260 b 614 135 664 192 650 135 b 590 192 588 135 588 174 b 611 307 650 217 668 307 b 515 153 544 307 554 153 b 499 324 485 153 497 304 b 719 329 571 324 651 325 b 844 397 761 332 844 338 b 832 401 844 410 839 404 b 499 360 725 353 561 361 z m 388 325 l 450 325 b 401 146 447 299 447 143 b 388 325 375 147 389 297 z m 265 211 b 292 274 265 235 279 286 b 265 211 300 267 279 222 z m 593 211 b 619 275 594 226 606 272 b 628 251 629 276 632 269 b 593 211 622 233 611 219 z m 443 11 l 451 11 l 451 44 l 443 44 z m 349 42 l 340 39 l 340 35 l 338 35 l 338 29 l 340 29 b 342 13 340 24 339 17 b 354 11 344 10 350 10 l 354 18 b 349 21 350 17 349 18 l 349 29 l 354 29 l 354 35 l 349 35 z m 664 36 b 654 31 658 36 657 35 b 640 33 653 38 644 38 l 639 35 l 633 35 l 633 11 l 640 11 l 640 25 b 644 29 640 26 642 29 b 649 24 649 29 649 26 l 649 11 l 656 11 l 656 24 b 665 24 656 28 665 33 l 665 11 l 671 11 l 671 25 b 664 36 671 33 668 36 z m 428 36 b 422 33 425 36 424 35 l 421 35 l 413 35 l 413 11 l 422 11 b 422 26 422 13 422 25 b 429 24 424 31 429 29 l 429 11 l 439 11 l 439 25 b 428 36 439 33 433 36 z m 557 31 l 557 35 l 551 35 b 551 11 551 31 551 17 l 558 11 b 558 25 558 13 558 25 b 568 28 558 26 564 29 l 568 36 b 557 31 564 36 560 35 z m 468 36 b 456 22 460 36 456 31 b 481 13 456 13 469 7 l 478 18 b 465 21 475 17 465 14 l 481 21 b 468 36 481 31 475 36 z m 617 36 b 617 10 599 36 599 10 b 617 36 633 10 633 36 z m 588 24 b 601 28 588 29 597 31 l 601 35 b 601 13 571 42 572 3 l 601 18 b 588 24 597 18 588 17 z m 400 11 l 407 11 l 407 35 l 400 35 z m 236 18 l 232 35 l 225 35 l 221 18 l 218 35 l 210 35 l 217 11 l 224 11 l 228 26 l 233 11 l 240 11 l 246 35 l 239 35 z m 465 25 b 474 25 465 31 474 31 z m 617 17 b 617 29 608 17 607 29 b 617 17 624 29 624 17 z m 571 19 b 571 10 565 19 565 10 b 571 19 576 10 576 19 z m 329 19 b 329 10 324 19 324 10 b 329 19 336 10 336 19 z m 274 18 l 269 35 l 263 35 l 258 18 l 256 35 l 249 35 l 254 11 l 261 11 l 267 26 l 271 11 l 278 11 l 285 35 l 276 35 z m 311 18 l 307 35 l 301 35 l 296 18 l 293 35 l 286 35 l 292 11 l 300 11 l 304 26 l 308 11 l 317 11 l 322 35 l 315 35 z m 385 18 l 379 35 l 374 35 l 369 18 l 367 35 l 358 35 l 365 11 l 372 11 l 376 26 l 382 11 l 389 11 l 394 35 l 388 35 z m 403 44 b 403 36 396 44 396 36 b 403 44 408 36 408 44 z m 535 36 b 522 22 526 36 522 31 b 547 13 522 11 535 7 l 544 18 b 532 21 542 17 532 14 l 547 21 b 535 36 547 31 542 36 z m 532 25 b 540 25 532 31 540 31 z "},"":{"ha":861,"x_min":0,"x_max":0,"o":"m 514 42 l 506 39 l 506 35 l 493 35 l 493 42 l 486 39 l 486 35 l 483 35 l 483 29 l 486 29 l 486 21 b 488 13 486 18 486 14 b 500 11 490 10 494 10 l 500 18 b 493 21 494 17 493 18 l 493 29 l 506 29 b 507 13 506 25 504 17 b 519 11 510 10 517 10 l 519 18 b 514 21 517 17 514 18 l 514 29 l 519 29 l 519 35 l 514 35 z m 415 596 b 415 438 442 551 442 450 b 374 576 378 421 424 578 b 326 444 319 575 358 444 b 333 578 301 444 301 524 b 315 614 343 594 340 614 b 256 518 263 614 256 560 b 308 406 256 442 272 406 b 357 444 325 406 349 419 b 406 403 360 421 379 403 b 476 533 478 403 476 519 b 443 631 476 585 465 621 b 415 596 413 646 404 614 z m 540 397 b 593 447 571 397 588 425 b 619 403 593 429 597 403 b 694 586 685 403 664 610 b 686 478 708 575 689 525 b 728 392 683 442 692 392 b 797 728 800 392 849 592 b 604 860 763 821 688 871 b 443 721 524 849 454 785 b 511 689 432 654 486 613 b 719 756 540 778 644 818 b 754 424 826 667 788 431 b 753 540 733 419 750 525 b 704 611 761 588 735 611 b 658 561 678 611 664 596 b 639 474 647 481 636 442 b 624 611 646 543 665 611 b 594 581 604 611 597 600 b 558 438 593 563 589 438 b 544 463 544 438 544 463 b 553 554 544 501 553 533 b 526 590 553 579 540 590 b 488 492 489 590 488 507 b 540 397 488 447 501 397 z m 122 614 b 61 631 122 638 61 614 b 182 656 63 653 154 654 b 172 450 179 614 172 526 b 238 319 172 424 174 319 b 238 386 269 319 246 343 b 240 657 222 456 236 563 b 415 669 350 669 372 618 b 256 713 457 721 315 714 b 29 631 101 708 29 683 b 88 594 29 604 65 594 b 122 614 101 594 122 594 z m 532 596 b 560 635 551 596 560 619 b 531 669 560 653 550 669 b 501 635 511 669 501 651 b 532 596 501 614 511 596 z m 499 360 b 475 393 500 381 489 393 b 450 358 456 393 450 379 l 386 357 b 361 393 386 381 379 393 b 338 357 342 393 338 378 b 256 353 276 357 244 399 b 339 325 265 314 317 325 b 294 135 336 292 346 135 b 265 192 269 135 261 172 b 278 304 307 225 336 304 b 178 136 201 304 243 136 b 131 460 111 136 221 407 b 83 436 107 472 69 475 b 90 211 114 347 90 288 b 181 107 90 126 125 86 b 221 135 196 113 210 122 b 276 101 232 114 254 101 b 340 158 310 101 332 128 b 393 106 339 129 367 106 b 456 161 424 106 447 136 b 503 108 460 142 478 108 b 549 157 525 108 540 139 b 608 101 551 129 578 101 b 668 164 642 101 660 138 b 693 96 668 125 678 97 b 758 269 749 90 704 260 b 776 217 786 274 794 235 b 749 204 767 206 749 218 b 786 179 749 183 771 176 b 774 301 839 190 832 301 b 711 247 749 301 717 272 b 675 303 714 272 701 297 b 656 289 668 304 656 301 b 667 226 656 269 669 260 b 614 135 664 192 650 135 b 590 192 588 135 588 174 b 611 307 650 217 668 307 b 515 153 544 307 554 153 b 499 324 485 153 497 304 b 719 329 571 324 651 325 b 844 397 761 332 844 338 b 832 401 844 410 839 404 b 499 360 725 353 561 361 z m 388 325 l 450 325 b 401 146 447 299 447 143 b 388 325 375 147 389 297 z m 265 211 b 292 274 265 235 279 286 b 265 211 300 267 279 222 z m 593 211 b 619 275 594 226 606 272 b 628 251 629 276 632 269 b 593 211 622 233 611 219 z m 443 11 l 451 11 l 451 44 l 443 44 z m 349 42 l 340 39 l 340 35 l 338 35 l 338 29 l 340 29 b 342 13 340 24 339 17 b 354 11 344 10 350 10 l 354 18 b 349 21 350 17 349 18 l 349 29 l 354 29 l 354 35 l 349 35 z m 664 36 b 654 31 658 36 657 35 b 640 33 653 38 644 38 l 639 35 l 633 35 l 633 11 l 640 11 l 640 25 b 644 29 640 26 642 29 b 649 24 649 29 649 26 l 649 11 l 656 11 l 656 24 b 665 24 656 28 665 33 l 665 11 l 671 11 l 671 25 b 664 36 671 33 668 36 z m 428 36 b 422 33 425 36 424 35 l 421 35 l 413 35 l 413 11 l 422 11 b 422 26 422 13 422 25 b 429 24 424 31 429 29 l 429 11 l 439 11 l 439 25 b 428 36 439 33 433 36 z m 557 31 l 557 35 l 551 35 b 551 11 551 31 551 17 l 558 11 b 558 25 558 13 558 25 b 568 28 558 26 564 29 l 568 36 b 557 31 564 36 560 35 z m 468 36 b 456 22 460 36 456 31 b 481 13 456 13 469 7 l 478 18 b 465 21 475 17 465 14 l 481 21 b 468 36 481 31 475 36 z m 617 36 b 617 10 599 36 599 10 b 617 36 633 10 633 36 z m 588 24 b 601 28 588 29 597 31 l 601 35 b 601 13 571 42 572 3 l 601 18 b 588 24 597 18 588 17 z m 400 11 l 407 11 l 407 35 l 400 35 z m 236 18 l 232 35 l 225 35 l 221 18 l 218 35 l 210 35 l 217 11 l 224 11 l 228 26 l 233 11 l 240 11 l 246 35 l 239 35 z m 465 25 b 474 25 465 31 474 31 z m 617 17 b 617 29 608 17 607 29 b 617 17 624 29 624 17 z m 571 19 b 571 10 565 19 565 10 b 571 19 576 10 576 19 z m 329 19 b 329 10 324 19 324 10 b 329 19 336 10 336 19 z m 274 18 l 269 35 l 263 35 l 258 18 l 256 35 l 249 35 l 254 11 l 261 11 l 267 26 l 271 11 l 278 11 l 285 35 l 276 35 z m 311 18 l 307 35 l 301 35 l 296 18 l 293 35 l 286 35 l 292 11 l 300 11 l 304 26 l 308 11 l 317 11 l 322 35 l 315 35 z m 385 18 l 379 35 l 374 35 l 369 18 l 367 35 l 358 35 l 365 11 l 372 11 l 376 26 l 382 11 l 389 11 l 394 35 l 388 35 z m 403 44 b 403 36 396 44 396 36 b 403 44 408 36 408 44 z m 535 36 b 522 22 526 36 522 31 b 547 13 522 11 535 7 l 544 18 b 532 21 542 17 532 14 l 547 21 b 535 36 547 31 542 36 z m 532 25 b 540 25 532 31 540 31 z "},"'":{"ha":861,"x_min":0,"x_max":0,"o":"m 514 42 l 506 39 l 506 35 l 493 35 l 493 42 l 486 39 l 486 35 l 483 35 l 483 29 l 486 29 l 486 21 b 488 13 486 18 486 14 b 500 11 490 10 494 10 l 500 18 b 493 21 494 17 493 18 l 493 29 l 506 29 b 507 13 506 25 504 17 b 519 11 510 10 517 10 l 519 18 b 514 21 517 17 514 18 l 514 29 l 519 29 l 519 35 l 514 35 z m 415 596 b 415 438 442 551 442 450 b 374 576 378 421 424 578 b 326 444 319 575 358 444 b 333 578 301 444 301 524 b 315 614 343 594 340 614 b 256 518 263 614 256 560 b 308 406 256 442 272 406 b 357 444 325 406 349 419 b 406 403 360 421 379 403 b 476 533 478 403 476 519 b 443 631 476 585 465 621 b 415 596 413 646 404 614 z m 540 397 b 593 447 571 397 588 425 b 619 403 593 429 597 403 b 694 586 685 403 664 610 b 686 478 708 575 689 525 b 728 392 683 442 692 392 b 797 728 800 392 849 592 b 604 860 763 821 688 871 b 443 721 524 849 454 785 b 511 689 432 654 486 613 b 719 756 540 778 644 818 b 754 424 826 667 788 431 b 753 540 733 419 750 525 b 704 611 761 588 735 611 b 658 561 678 611 664 596 b 639 474 647 481 636 442 b 624 611 646 543 665 611 b 594 581 604 611 597 600 b 558 438 593 563 589 438 b 544 463 544 438 544 463 b 553 554 544 501 553 533 b 526 590 553 579 540 590 b 488 492 489 590 488 507 b 540 397 488 447 501 397 z m 122 614 b 61 631 122 638 61 614 b 182 656 63 653 154 654 b 172 450 179 614 172 526 b 238 319 172 424 174 319 b 238 386 269 319 246 343 b 240 657 222 456 236 563 b 415 669 350 669 372 618 b 256 713 457 721 315 714 b 29 631 101 708 29 683 b 88 594 29 604 65 594 b 122 614 101 594 122 594 z m 532 596 b 560 635 551 596 560 619 b 531 669 560 653 550 669 b 501 635 511 669 501 651 b 532 596 501 614 511 596 z m 499 360 b 475 393 500 381 489 393 b 450 358 456 393 450 379 l 386 357 b 361 393 386 381 379 393 b 338 357 342 393 338 378 b 256 353 276 357 244 399 b 339 325 265 314 317 325 b 294 135 336 292 346 135 b 265 192 269 135 261 172 b 278 304 307 225 336 304 b 178 136 201 304 243 136 b 131 460 111 136 221 407 b 83 436 107 472 69 475 b 90 211 114 347 90 288 b 181 107 90 126 125 86 b 221 135 196 113 210 122 b 276 101 232 114 254 101 b 340 158 310 101 332 128 b 393 106 339 129 367 106 b 456 161 424 106 447 136 b 503 108 460 142 478 108 b 549 157 525 108 540 139 b 608 101 551 129 578 101 b 668 164 642 101 660 138 b 693 96 668 125 678 97 b 758 269 749 90 704 260 b 776 217 786 274 794 235 b 749 204 767 206 749 218 b 786 179 749 183 771 176 b 774 301 839 190 832 301 b 711 247 749 301 717 272 b 675 303 714 272 701 297 b 656 289 668 304 656 301 b 667 226 656 269 669 260 b 614 135 664 192 650 135 b 590 192 588 135 588 174 b 611 307 650 217 668 307 b 515 153 544 307 554 153 b 499 324 485 153 497 304 b 719 329 571 324 651 325 b 844 397 761 332 844 338 b 832 401 844 410 839 404 b 499 360 725 353 561 361 z m 388 325 l 450 325 b 401 146 447 299 447 143 b 388 325 375 147 389 297 z m 265 211 b 292 274 265 235 279 286 b 265 211 300 267 279 222 z m 593 211 b 619 275 594 226 606 272 b 628 251 629 276 632 269 b 593 211 622 233 611 219 z m 443 11 l 451 11 l 451 44 l 443 44 z m 349 42 l 340 39 l 340 35 l 338 35 l 338 29 l 340 29 b 342 13 340 24 339 17 b 354 11 344 10 350 10 l 354 18 b 349 21 350 17 349 18 l 349 29 l 354 29 l 354 35 l 349 35 z m 664 36 b 654 31 658 36 657 35 b 640 33 653 38 644 38 l 639 35 l 633 35 l 633 11 l 640 11 l 640 25 b 644 29 640 26 642 29 b 649 24 649 29 649 26 l 649 11 l 656 11 l 656 24 b 665 24 656 28 665 33 l 665 11 l 671 11 l 671 25 b 664 36 671 33 668 36 z m 428 36 b 422 33 425 36 424 35 l 421 35 l 413 35 l 413 11 l 422 11 b 422 26 422 13 422 25 b 429 24 424 31 429 29 l 429 11 l 439 11 l 439 25 b 428 36 439 33 433 36 z m 557 31 l 557 35 l 551 35 b 551 11 551 31 551 17 l 558 11 b 558 25 558 13 558 25 b 568 28 558 26 564 29 l 568 36 b 557 31 564 36 560 35 z m 468 36 b 456 22 460 36 456 31 b 481 13 456 13 469 7 l 478 18 b 465 21 475 17 465 14 l 481 21 b 468 36 481 31 475 36 z m 617 36 b 617 10 599 36 599 10 b 617 36 633 10 633 36 z m 588 24 b 601 28 588 29 597 31 l 601 35 b 601 13 571 42 572 3 l 601 18 b 588 24 597 18 588 17 z m 400 11 l 407 11 l 407 35 l 400 35 z m 236 18 l 232 35 l 225 35 l 221 18 l 218 35 l 210 35 l 217 11 l 224 11 l 228 26 l 233 11 l 240 11 l 246 35 l 239 35 z m 465 25 b 474 25 465 31 474 31 z m 617 17 b 617 29 608 17 607 29 b 617 17 624 29 624 17 z m 571 19 b 571 10 565 19 565 10 b 571 19 576 10 576 19 z m 329 19 b 329 10 324 19 324 10 b 329 19 336 10 336 19 z m 274 18 l 269 35 l 263 35 l 258 18 l 256 35 l 249 35 l 254 11 l 261 11 l 267 26 l 271 11 l 278 11 l 285 35 l 276 35 z m 311 18 l 307 35 l 301 35 l 296 18 l 293 35 l 286 35 l 292 11 l 300 11 l 304 26 l 308 11 l 317 11 l 322 35 l 315 35 z m 385 18 l 379 35 l 374 35 l 369 18 l 367 35 l 358 35 l 365 11 l 372 11 l 376 26 l 382 11 l 389 11 l 394 35 l 388 35 z m 403 44 b 403 36 396 44 396 36 b 403 44 408 36 408 44 z m 535 36 b 522 22 526 36 522 31 b 547 13 522 11 535 7 l 544 18 b 532 21 542 17 532 14 l 547 21 b 535 36 547 31 542 36 z m 532 25 b 540 25 532 31 540 31 z "},"\"":{"ha":861,"x_min":0,"x_max":0,"o":"m 514 42 l 506 39 l 506 35 l 493 35 l 493 42 l 486 39 l 486 35 l 483 35 l 483 29 l 486 29 l 486 21 b 488 13 486 18 486 14 b 500 11 490 10 494 10 l 500 18 b 493 21 494 17 493 18 l 493 29 l 506 29 b 507 13 506 25 504 17 b 519 11 510 10 517 10 l 519 18 b 514 21 517 17 514 18 l 514 29 l 519 29 l 519 35 l 514 35 z m 415 596 b 415 438 442 551 442 450 b 374 576 378 421 424 578 b 326 444 319 575 358 444 b 333 578 301 444 301 524 b 315 614 343 594 340 614 b 256 518 263 614 256 560 b 308 406 256 442 272 406 b 357 444 325 406 349 419 b 406 403 360 421 379 403 b 476 533 478 403 476 519 b 443 631 476 585 465 621 b 415 596 413 646 404 614 z m 540 397 b 593 447 571 397 588 425 b 619 403 593 429 597 403 b 694 586 685 403 664 610 b 686 478 708 575 689 525 b 728 392 683 442 692 392 b 797 728 800 392 849 592 b 604 860 763 821 688 871 b 443 721 524 849 454 785 b 511 689 432 654 486 613 b 719 756 540 778 644 818 b 754 424 826 667 788 431 b 753 540 733 419 750 525 b 704 611 761 588 735 611 b 658 561 678 611 664 596 b 639 474 647 481 636 442 b 624 611 646 543 665 611 b 594 581 604 611 597 600 b 558 438 593 563 589 438 b 544 463 544 438 544 463 b 553 554 544 501 553 533 b 526 590 553 579 540 590 b 488 492 489 590 488 507 b 540 397 488 447 501 397 z m 122 614 b 61 631 122 638 61 614 b 182 656 63 653 154 654 b 172 450 179 614 172 526 b 238 319 172 424 174 319 b 238 386 269 319 246 343 b 240 657 222 456 236 563 b 415 669 350 669 372 618 b 256 713 457 721 315 714 b 29 631 101 708 29 683 b 88 594 29 604 65 594 b 122 614 101 594 122 594 z m 532 596 b 560 635 551 596 560 619 b 531 669 560 653 550 669 b 501 635 511 669 501 651 b 532 596 501 614 511 596 z m 499 360 b 475 393 500 381 489 393 b 450 358 456 393 450 379 l 386 357 b 361 393 386 381 379 393 b 338 357 342 393 338 378 b 256 353 276 357 244 399 b 339 325 265 314 317 325 b 294 135 336 292 346 135 b 265 192 269 135 261 172 b 278 304 307 225 336 304 b 178 136 201 304 243 136 b 131 460 111 136 221 407 b 83 436 107 472 69 475 b 90 211 114 347 90 288 b 181 107 90 126 125 86 b 221 135 196 113 210 122 b 276 101 232 114 254 101 b 340 158 310 101 332 128 b 393 106 339 129 367 106 b 456 161 424 106 447 136 b 503 108 460 142 478 108 b 549 157 525 108 540 139 b 608 101 551 129 578 101 b 668 164 642 101 660 138 b 693 96 668 125 678 97 b 758 269 749 90 704 260 b 776 217 786 274 794 235 b 749 204 767 206 749 218 b 786 179 749 183 771 176 b 774 301 839 190 832 301 b 711 247 749 301 717 272 b 675 303 714 272 701 297 b 656 289 668 304 656 301 b 667 226 656 269 669 260 b 614 135 664 192 650 135 b 590 192 588 135 588 174 b 611 307 650 217 668 307 b 515 153 544 307 554 153 b 499 324 485 153 497 304 b 719 329 571 324 651 325 b 844 397 761 332 844 338 b 832 401 844 410 839 404 b 499 360 725 353 561 361 z m 388 325 l 450 325 b 401 146 447 299 447 143 b 388 325 375 147 389 297 z m 265 211 b 292 274 265 235 279 286 b 265 211 300 267 279 222 z m 593 211 b 619 275 594 226 606 272 b 628 251 629 276 632 269 b 593 211 622 233 611 219 z m 443 11 l 451 11 l 451 44 l 443 44 z m 349 42 l 340 39 l 340 35 l 338 35 l 338 29 l 340 29 b 342 13 340 24 339 17 b 354 11 344 10 350 10 l 354 18 b 349 21 350 17 349 18 l 349 29 l 354 29 l 354 35 l 349 35 z m 664 36 b 654 31 658 36 657 35 b 640 33 653 38 644 38 l 639 35 l 633 35 l 633 11 l 640 11 l 640 25 b 644 29 640 26 642 29 b 649 24 649 29 649 26 l 649 11 l 656 11 l 656 24 b 665 24 656 28 665 33 l 665 11 l 671 11 l 671 25 b 664 36 671 33 668 36 z m 428 36 b 422 33 425 36 424 35 l 421 35 l 413 35 l 413 11 l 422 11 b 422 26 422 13 422 25 b 429 24 424 31 429 29 l 429 11 l 439 11 l 439 25 b 428 36 439 33 433 36 z m 557 31 l 557 35 l 551 35 b 551 11 551 31 551 17 l 558 11 b 558 25 558 13 558 25 b 568 28 558 26 564 29 l 568 36 b 557 31 564 36 560 35 z m 468 36 b 456 22 460 36 456 31 b 481 13 456 13 469 7 l 478 18 b 465 21 475 17 465 14 l 481 21 b 468 36 481 31 475 36 z m 617 36 b 617 10 599 36 599 10 b 617 36 633 10 633 36 z m 588 24 b 601 28 588 29 597 31 l 601 35 b 601 13 571 42 572 3 l 601 18 b 588 24 597 18 588 17 z m 400 11 l 407 11 l 407 35 l 400 35 z m 236 18 l 232 35 l 225 35 l 221 18 l 218 35 l 210 35 l 217 11 l 224 11 l 228 26 l 233 11 l 240 11 l 246 35 l 239 35 z m 465 25 b 474 25 465 31 474 31 z m 617 17 b 617 29 608 17 607 29 b 617 17 624 29 624 17 z m 571 19 b 571 10 565 19 565 10 b 571 19 576 10 576 19 z m 329 19 b 329 10 324 19 324 10 b 329 19 336 10 336 19 z m 274 18 l 269 35 l 263 35 l 258 18 l 256 35 l 249 35 l 254 11 l 261 11 l 267 26 l 271 11 l 278 11 l 285 35 l 276 35 z m 311 18 l 307 35 l 301 35 l 296 18 l 293 35 l 286 35 l 292 11 l 300 11 l 304 26 l 308 11 l 317 11 l 322 35 l 315 35 z m 385 18 l 379 35 l 374 35 l 369 18 l 367 35 l 358 35 l 365 11 l 372 11 l 376 26 l 382 11 l 389 11 l 394 35 l 388 35 z m 403 44 b 403 36 396 44 396 36 b 403 44 408 36 408 44 z m 535 36 b 522 22 526 36 522 31 b 547 13 522 11 535 7 l 544 18 b 532 21 542 17 532 14 l 547 21 b 535 36 547 31 542 36 z m 532 25 b 540 25 532 31 540 31 z "},"*":{"ha":861,"x_min":0,"x_max":0,"o":"m 514 42 l 506 39 l 506 35 l 493 35 l 493 42 l 486 39 l 486 35 l 483 35 l 483 29 l 486 29 l 486 21 b 488 13 486 18 486 14 b 500 11 490 10 494 10 l 500 18 b 493 21 494 17 493 18 l 493 29 l 506 29 b 507 13 506 25 504 17 b 519 11 510 10 517 10 l 519 18 b 514 21 517 17 514 18 l 514 29 l 519 29 l 519 35 l 514 35 z m 415 596 b 415 438 442 551 442 450 b 374 576 378 421 424 578 b 326 444 319 575 358 444 b 333 578 301 444 301 524 b 315 614 343 594 340 614 b 256 518 263 614 256 560 b 308 406 256 442 272 406 b 357 444 325 406 349 419 b 406 403 360 421 379 403 b 476 533 478 403 476 519 b 443 631 476 585 465 621 b 415 596 413 646 404 614 z m 540 397 b 593 447 571 397 588 425 b 619 403 593 429 597 403 b 694 586 685 403 664 610 b 686 478 708 575 689 525 b 728 392 683 442 692 392 b 797 728 800 392 849 592 b 604 860 763 821 688 871 b 443 721 524 849 454 785 b 511 689 432 654 486 613 b 719 756 540 778 644 818 b 754 424 826 667 788 431 b 753 540 733 419 750 525 b 704 611 761 588 735 611 b 658 561 678 611 664 596 b 639 474 647 481 636 442 b 624 611 646 543 665 611 b 594 581 604 611 597 600 b 558 438 593 563 589 438 b 544 463 544 438 544 463 b 553 554 544 501 553 533 b 526 590 553 579 540 590 b 488 492 489 590 488 507 b 540 397 488 447 501 397 z m 122 614 b 61 631 122 638 61 614 b 182 656 63 653 154 654 b 172 450 179 614 172 526 b 238 319 172 424 174 319 b 238 386 269 319 246 343 b 240 657 222 456 236 563 b 415 669 350 669 372 618 b 256 713 457 721 315 714 b 29 631 101 708 29 683 b 88 594 29 604 65 594 b 122 614 101 594 122 594 z m 532 596 b 560 635 551 596 560 619 b 531 669 560 653 550 669 b 501 635 511 669 501 651 b 532 596 501 614 511 596 z m 499 360 b 475 393 500 381 489 393 b 450 358 456 393 450 379 l 386 357 b 361 393 386 381 379 393 b 338 357 342 393 338 378 b 256 353 276 357 244 399 b 339 325 265 314 317 325 b 294 135 336 292 346 135 b 265 192 269 135 261 172 b 278 304 307 225 336 304 b 178 136 201 304 243 136 b 131 460 111 136 221 407 b 83 436 107 472 69 475 b 90 211 114 347 90 288 b 181 107 90 126 125 86 b 221 135 196 113 210 122 b 276 101 232 114 254 101 b 340 158 310 101 332 128 b 393 106 339 129 367 106 b 456 161 424 106 447 136 b 503 108 460 142 478 108 b 549 157 525 108 540 139 b 608 101 551 129 578 101 b 668 164 642 101 660 138 b 693 96 668 125 678 97 b 758 269 749 90 704 260 b 776 217 786 274 794 235 b 749 204 767 206 749 218 b 786 179 749 183 771 176 b 774 301 839 190 832 301 b 711 247 749 301 717 272 b 675 303 714 272 701 297 b 656 289 668 304 656 301 b 667 226 656 269 669 260 b 614 135 664 192 650 135 b 590 192 588 135 588 174 b 611 307 650 217 668 307 b 515 153 544 307 554 153 b 499 324 485 153 497 304 b 719 329 571 324 651 325 b 844 397 761 332 844 338 b 832 401 844 410 839 404 b 499 360 725 353 561 361 z m 388 325 l 450 325 b 401 146 447 299 447 143 b 388 325 375 147 389 297 z m 265 211 b 292 274 265 235 279 286 b 265 211 300 267 279 222 z m 593 211 b 619 275 594 226 606 272 b 628 251 629 276 632 269 b 593 211 622 233 611 219 z m 443 11 l 451 11 l 451 44 l 443 44 z m 349 42 l 340 39 l 340 35 l 338 35 l 338 29 l 340 29 b 342 13 340 24 339 17 b 354 11 344 10 350 10 l 354 18 b 349 21 350 17 349 18 l 349 29 l 354 29 l 354 35 l 349 35 z m 664 36 b 654 31 658 36 657 35 b 640 33 653 38 644 38 l 639 35 l 633 35 l 633 11 l 640 11 l 640 25 b 644 29 640 26 642 29 b 649 24 649 29 649 26 l 649 11 l 656 11 l 656 24 b 665 24 656 28 665 33 l 665 11 l 671 11 l 671 25 b 664 36 671 33 668 36 z m 428 36 b 422 33 425 36 424 35 l 421 35 l 413 35 l 413 11 l 422 11 b 422 26 422 13 422 25 b 429 24 424 31 429 29 l 429 11 l 439 11 l 439 25 b 428 36 439 33 433 36 z m 557 31 l 557 35 l 551 35 b 551 11 551 31 551 17 l 558 11 b 558 25 558 13 558 25 b 568 28 558 26 564 29 l 568 36 b 557 31 564 36 560 35 z m 468 36 b 456 22 460 36 456 31 b 481 13 456 13 469 7 l 478 18 b 465 21 475 17 465 14 l 481 21 b 468 36 481 31 475 36 z m 617 36 b 617 10 599 36 599 10 b 617 36 633 10 633 36 z m 588 24 b 601 28 588 29 597 31 l 601 35 b 601 13 571 42 572 3 l 601 18 b 588 24 597 18 588 17 z m 400 11 l 407 11 l 407 35 l 400 35 z m 236 18 l 232 35 l 225 35 l 221 18 l 218 35 l 210 35 l 217 11 l 224 11 l 228 26 l 233 11 l 240 11 l 246 35 l 239 35 z m 465 25 b 474 25 465 31 474 31 z m 617 17 b 617 29 608 17 607 29 b 617 17 624 29 624 17 z m 571 19 b 571 10 565 19 565 10 b 571 19 576 10 576 19 z m 329 19 b 329 10 324 19 324 10 b 329 19 336 10 336 19 z m 274 18 l 269 35 l 263 35 l 258 18 l 256 35 l 249 35 l 254 11 l 261 11 l 267 26 l 271 11 l 278 11 l 285 35 l 276 35 z m 311 18 l 307 35 l 301 35 l 296 18 l 293 35 l 286 35 l 292 11 l 300 11 l 304 26 l 308 11 l 317 11 l 322 35 l 315 35 z m 385 18 l 379 35 l 374 35 l 369 18 l 367 35 l 358 35 l 365 11 l 372 11 l 376 26 l 382 11 l 389 11 l 394 35 l 388 35 z m 403 44 b 403 36 396 44 396 36 b 403 44 408 36 408 44 z m 535 36 b 522 22 526 36 522 31 b 547 13 522 11 535 7 l 544 18 b 532 21 542 17 532 14 l 547 21 b 535 36 547 31 542 36 z m 532 25 b 540 25 532 31 540 31 z "},"[":{"ha":707,"x_min":0,"x_max":0,"o":"m 43 460 b 349 -217 22 44 24 -212 b 471 75 792 -221 708 75 l 429 75 b 408 528 429 215 408 375 b 407 700 408 590 408 650 l 471 699 b 333 993 676 694 846 1019 b 43 460 93 981 61 833 z "},"|":{"ha":469,"x_min":0,"x_max":0,"o":"m 49 432 b 228 -347 33 65 -12 -347 b 411 -182 318 -347 376 -325 b 414 489 461 28 414 265 b 249 1042 414 818 432 1042 b 49 432 69 1042 67 835 z "},"]":{"ha":861,"x_min":0,"x_max":0,"o":"m 514 42 l 506 39 l 506 35 l 493 35 l 493 42 l 486 39 l 486 35 l 483 35 l 483 29 l 486 29 l 486 21 b 488 13 486 18 486 14 b 500 11 490 10 494 10 l 500 18 b 493 21 494 17 493 18 l 493 29 l 506 29 b 507 13 506 25 504 17 b 519 11 510 10 517 10 l 519 18 b 514 21 517 17 514 18 l 514 29 l 519 29 l 519 35 l 514 35 z m 415 596 b 415 438 442 551 442 450 b 374 576 378 421 424 578 b 326 444 319 575 358 444 b 333 578 301 444 301 524 b 315 614 343 594 340 614 b 256 518 263 614 256 560 b 308 406 256 442 272 406 b 357 444 325 406 349 419 b 406 403 360 421 379 403 b 476 533 478 403 476 519 b 443 631 476 585 465 621 b 415 596 413 646 404 614 z m 540 397 b 593 447 571 397 588 425 b 619 403 593 429 597 403 b 694 586 685 403 664 610 b 686 478 708 575 689 525 b 728 392 683 442 692 392 b 797 728 800 392 849 592 b 604 860 763 821 688 871 b 443 721 524 849 454 785 b 511 689 432 654 486 613 b 719 756 540 778 644 818 b 754 424 826 667 788 431 b 753 540 733 419 750 525 b 704 611 761 588 735 611 b 658 561 678 611 664 596 b 639 474 647 481 636 442 b 624 611 646 543 665 611 b 594 581 604 611 597 600 b 558 438 593 563 589 438 b 544 463 544 438 544 463 b 553 554 544 501 553 533 b 526 590 553 579 540 590 b 488 492 489 590 488 507 b 540 397 488 447 501 397 z m 122 614 b 61 631 122 638 61 614 b 182 656 63 653 154 654 b 172 450 179 614 172 526 b 238 319 172 424 174 319 b 238 386 269 319 246 343 b 240 657 222 456 236 563 b 415 669 350 669 372 618 b 256 713 457 721 315 714 b 29 631 101 708 29 683 b 88 594 29 604 65 594 b 122 614 101 594 122 594 z m 532 596 b 560 635 551 596 560 619 b 531 669 560 653 550 669 b 501 635 511 669 501 651 b 532 596 501 614 511 596 z m 499 360 b 475 393 500 381 489 393 b 450 358 456 393 450 379 l 386 357 b 361 393 386 381 379 393 b 338 357 342 393 338 378 b 256 353 276 357 244 399 b 339 325 265 314 317 325 b 294 135 336 292 346 135 b 265 192 269 135 261 172 b 278 304 307 225 336 304 b 178 136 201 304 243 136 b 131 460 111 136 221 407 b 83 436 107 472 69 475 b 90 211 114 347 90 288 b 181 107 90 126 125 86 b 221 135 196 113 210 122 b 276 101 232 114 254 101 b 340 158 310 101 332 128 b 393 106 339 129 367 106 b 456 161 424 106 447 136 b 503 108 460 142 478 108 b 549 157 525 108 540 139 b 608 101 551 129 578 101 b 668 164 642 101 660 138 b 693 96 668 125 678 97 b 758 269 749 90 704 260 b 776 217 786 274 794 235 b 749 204 767 206 749 218 b 786 179 749 183 771 176 b 774 301 839 190 832 301 b 711 247 749 301 717 272 b 675 303 714 272 701 297 b 656 289 668 304 656 301 b 667 226 656 269 669 260 b 614 135 664 192 650 135 b 590 192 588 135 588 174 b 611 307 650 217 668 307 b 515 153 544 307 554 153 b 499 324 485 153 497 304 b 719 329 571 324 651 325 b 844 397 761 332 844 338 b 832 401 844 410 839 404 b 499 360 725 353 561 361 z m 388 325 l 450 325 b 401 146 447 299 447 143 b 388 325 375 147 389 297 z m 265 211 b 292 274 265 235 279 286 b 265 211 300 267 279 222 z m 593 211 b 619 275 594 226 606 272 b 628 251 629 276 632 269 b 593 211 622 233 611 219 z m 443 11 l 451 11 l 451 44 l 443 44 z m 349 42 l 340 39 l 340 35 l 338 35 l 338 29 l 340 29 b 342 13 340 24 339 17 b 354 11 344 10 350 10 l 354 18 b 349 21 350 17 349 18 l 349 29 l 354 29 l 354 35 l 349 35 z m 664 36 b 654 31 658 36 657 35 b 640 33 653 38 644 38 l 639 35 l 633 35 l 633 11 l 640 11 l 640 25 b 644 29 640 26 642 29 b 649 24 649 29 649 26 l 649 11 l 656 11 l 656 24 b 665 24 656 28 665 33 l 665 11 l 671 11 l 671 25 b 664 36 671 33 668 36 z m 428 36 b 422 33 425 36 424 35 l 421 35 l 413 35 l 413 11 l 422 11 b 422 26 422 13 422 25 b 429 24 424 31 429 29 l 429 11 l 439 11 l 439 25 b 428 36 439 33 433 36 z m 557 31 l 557 35 l 551 35 b 551 11 551 31 551 17 l 558 11 b 558 25 558 13 558 25 b 568 28 558 26 564 29 l 568 36 b 557 31 564 36 560 35 z m 468 36 b 456 22 460 36 456 31 b 481 13 456 13 469 7 l 478 18 b 465 21 475 17 465 14 l 481 21 b 468 36 481 31 475 36 z m 617 36 b 617 10 599 36 599 10 b 617 36 633 10 633 36 z m 588 24 b 601 28 588 29 597 31 l 601 35 b 601 13 571 42 572 3 l 601 18 b 588 24 597 18 588 17 z m 400 11 l 407 11 l 407 35 l 400 35 z m 236 18 l 232 35 l 225 35 l 221 18 l 218 35 l 210 35 l 217 11 l 224 11 l 228 26 l 233 11 l 240 11 l 246 35 l 239 35 z m 465 25 b 474 25 465 31 474 31 z m 617 17 b 617 29 608 17 607 29 b 617 17 624 29 624 17 z m 571 19 b 571 10 565 19 565 10 b 571 19 576 10 576 19 z m 329 19 b 329 10 324 19 324 10 b 329 19 336 10 336 19 z m 274 18 l 269 35 l 263 35 l 258 18 l 256 35 l 249 35 l 254 11 l 261 11 l 267 26 l 271 11 l 278 11 l 285 35 l 276 35 z m 311 18 l 307 35 l 301 35 l 296 18 l 293 35 l 286 35 l 292 11 l 300 11 l 304 26 l 308 11 l 317 11 l 322 35 l 315 35 z m 385 18 l 379 35 l 374 35 l 369 18 l 367 35 l 358 35 l 365 11 l 372 11 l 376 26 l 382 11 l 389 11 l 394 35 l 388 35 z m 403 44 b 403 36 396 44 396 36 b 403 44 408 36 408 44 z m 535 36 b 522 22 526 36 522 31 b 547 13 522 11 535 7 l 544 18 b 532 21 542 17 532 14 l 547 21 b 535 36 547 31 542 36 z m 532 25 b 540 25 532 31 540 31 z "},")":{"ha":861,"x_min":0,"x_max":0,"o":"m 514 42 l 506 39 l 506 35 l 493 35 l 493 42 l 486 39 l 486 35 l 483 35 l 483 29 l 486 29 l 486 21 b 488 13 486 18 486 14 b 500 11 490 10 494 10 l 500 18 b 493 21 494 17 493 18 l 493 29 l 506 29 b 507 13 506 25 504 17 b 519 11 510 10 517 10 l 519 18 b 514 21 517 17 514 18 l 514 29 l 519 29 l 519 35 l 514 35 z m 415 596 b 415 438 442 551 442 450 b 374 576 378 421 424 578 b 326 444 319 575 358 444 b 333 578 301 444 301 524 b 315 614 343 594 340 614 b 256 518 263 614 256 560 b 308 406 256 442 272 406 b 357 444 325 406 349 419 b 406 403 360 421 379 403 b 476 533 478 403 476 519 b 443 631 476 585 465 621 b 415 596 413 646 404 614 z m 540 397 b 593 447 571 397 588 425 b 619 403 593 429 597 403 b 694 586 685 403 664 610 b 686 478 708 575 689 525 b 728 392 683 442 692 392 b 797 728 800 392 849 592 b 604 860 763 821 688 871 b 443 721 524 849 454 785 b 511 689 432 654 486 613 b 719 756 540 778 644 818 b 754 424 826 667 788 431 b 753 540 733 419 750 525 b 704 611 761 588 735 611 b 658 561 678 611 664 596 b 639 474 647 481 636 442 b 624 611 646 543 665 611 b 594 581 604 611 597 600 b 558 438 593 563 589 438 b 544 463 544 438 544 463 b 553 554 544 501 553 533 b 526 590 553 579 540 590 b 488 492 489 590 488 507 b 540 397 488 447 501 397 z m 122 614 b 61 631 122 638 61 614 b 182 656 63 653 154 654 b 172 450 179 614 172 526 b 238 319 172 424 174 319 b 238 386 269 319 246 343 b 240 657 222 456 236 563 b 415 669 350 669 372 618 b 256 713 457 721 315 714 b 29 631 101 708 29 683 b 88 594 29 604 65 594 b 122 614 101 594 122 594 z m 532 596 b 560 635 551 596 560 619 b 531 669 560 653 550 669 b 501 635 511 669 501 651 b 532 596 501 614 511 596 z m 499 360 b 475 393 500 381 489 393 b 450 358 456 393 450 379 l 386 357 b 361 393 386 381 379 393 b 338 357 342 393 338 378 b 256 353 276 357 244 399 b 339 325 265 314 317 325 b 294 135 336 292 346 135 b 265 192 269 135 261 172 b 278 304 307 225 336 304 b 178 136 201 304 243 136 b 131 460 111 136 221 407 b 83 436 107 472 69 475 b 90 211 114 347 90 288 b 181 107 90 126 125 86 b 221 135 196 113 210 122 b 276 101 232 114 254 101 b 340 158 310 101 332 128 b 393 106 339 129 367 106 b 456 161 424 106 447 136 b 503 108 460 142 478 108 b 549 157 525 108 540 139 b 608 101 551 129 578 101 b 668 164 642 101 660 138 b 693 96 668 125 678 97 b 758 269 749 90 704 260 b 776 217 786 274 794 235 b 749 204 767 206 749 218 b 786 179 749 183 771 176 b 774 301 839 190 832 301 b 711 247 749 301 717 272 b 675 303 714 272 701 297 b 656 289 668 304 656 301 b 667 226 656 269 669 260 b 614 135 664 192 650 135 b 590 192 588 135 588 174 b 611 307 650 217 668 307 b 515 153 544 307 554 153 b 499 324 485 153 497 304 b 719 329 571 324 651 325 b 844 397 761 332 844 338 b 832 401 844 410 839 404 b 499 360 725 353 561 361 z m 388 325 l 450 325 b 401 146 447 299 447 143 b 388 325 375 147 389 297 z m 265 211 b 292 274 265 235 279 286 b 265 211 300 267 279 222 z m 593 211 b 619 275 594 226 606 272 b 628 251 629 276 632 269 b 593 211 622 233 611 219 z m 443 11 l 451 11 l 451 44 l 443 44 z m 349 42 l 340 39 l 340 35 l 338 35 l 338 29 l 340 29 b 342 13 340 24 339 17 b 354 11 344 10 350 10 l 354 18 b 349 21 350 17 349 18 l 349 29 l 354 29 l 354 35 l 349 35 z m 664 36 b 654 31 658 36 657 35 b 640 33 653 38 644 38 l 639 35 l 633 35 l 633 11 l 640 11 l 640 25 b 644 29 640 26 642 29 b 649 24 649 29 649 26 l 649 11 l 656 11 l 656 24 b 665 24 656 28 665 33 l 665 11 l 671 11 l 671 25 b 664 36 671 33 668 36 z m 428 36 b 422 33 425 36 424 35 l 421 35 l 413 35 l 413 11 l 422 11 b 422 26 422 13 422 25 b 429 24 424 31 429 29 l 429 11 l 439 11 l 439 25 b 428 36 439 33 433 36 z m 557 31 l 557 35 l 551 35 b 551 11 551 31 551 17 l 558 11 b 558 25 558 13 558 25 b 568 28 558 26 564 29 l 568 36 b 557 31 564 36 560 35 z m 468 36 b 456 22 460 36 456 31 b 481 13 456 13 469 7 l 478 18 b 465 21 475 17 465 14 l 481 21 b 468 36 481 31 475 36 z m 617 36 b 617 10 599 36 599 10 b 617 36 633 10 633 36 z m 588 24 b 601 28 588 29 597 31 l 601 35 b 601 13 571 42 572 3 l 601 18 b 588 24 597 18 588 17 z m 400 11 l 407 11 l 407 35 l 400 35 z m 236 18 l 232 35 l 225 35 l 221 18 l 218 35 l 210 35 l 217 11 l 224 11 l 228 26 l 233 11 l 240 11 l 246 35 l 239 35 z m 465 25 b 474 25 465 31 474 31 z m 617 17 b 617 29 608 17 607 29 b 617 17 624 29 624 17 z m 571 19 b 571 10 565 19 565 10 b 571 19 576 10 576 19 z m 329 19 b 329 10 324 19 324 10 b 329 19 336 10 336 19 z m 274 18 l 269 35 l 263 35 l 258 18 l 256 35 l 249 35 l 254 11 l 261 11 l 267 26 l 271 11 l 278 11 l 285 35 l 276 35 z m 311 18 l 307 35 l 301 35 l 296 18 l 293 35 l 286 35 l 292 11 l 300 11 l 304 26 l 308 11 l 317 11 l 322 35 l 315 35 z m 385 18 l 379 35 l 374 35 l 369 18 l 367 35 l 358 35 l 365 11 l 372 11 l 376 26 l 382 11 l 389 11 l 394 35 l 388 35 z m 403 44 b 403 36 396 44 396 36 b 403 44 408 36 408 44 z m 535 36 b 522 22 526 36 522 31 b 547 13 522 11 535 7 l 544 18 b 532 21 542 17 532 14 l 547 21 b 535 36 547 31 542 36 z m 532 25 b 540 25 532 31 540 31 z "},"(":{"ha":558,"x_min":0,"x_max":0,"o":"m 38 460 b 332 -217 19 182 93 -211 b 403 447 690 -225 396 6 b 336 993 408 749 711 1013 b 38 460 179 985 63 833 z "},"}":{"ha":861,"x_min":0,"x_max":0,"o":"m 514 42 l 506 39 l 506 35 l 493 35 l 493 42 l 486 39 l 486 35 l 483 35 l 483 29 l 486 29 l 486 21 b 488 13 486 18 486 14 b 500 11 490 10 494 10 l 500 18 b 493 21 494 17 493 18 l 493 29 l 506 29 b 507 13 506 25 504 17 b 519 11 510 10 517 10 l 519 18 b 514 21 517 17 514 18 l 514 29 l 519 29 l 519 35 l 514 35 z m 415 596 b 415 438 442 551 442 450 b 374 576 378 421 424 578 b 326 444 319 575 358 444 b 333 578 301 444 301 524 b 315 614 343 594 340 614 b 256 518 263 614 256 560 b 308 406 256 442 272 406 b 357 444 325 406 349 419 b 406 403 360 421 379 403 b 476 533 478 403 476 519 b 443 631 476 585 465 621 b 415 596 413 646 404 614 z m 540 397 b 593 447 571 397 588 425 b 619 403 593 429 597 403 b 694 586 685 403 664 610 b 686 478 708 575 689 525 b 728 392 683 442 692 392 b 797 728 800 392 849 592 b 604 860 763 821 688 871 b 443 721 524 849 454 785 b 511 689 432 654 486 613 b 719 756 540 778 644 818 b 754 424 826 667 788 431 b 753 540 733 419 750 525 b 704 611 761 588 735 611 b 658 561 678 611 664 596 b 639 474 647 481 636 442 b 624 611 646 543 665 611 b 594 581 604 611 597 600 b 558 438 593 563 589 438 b 544 463 544 438 544 463 b 553 554 544 501 553 533 b 526 590 553 579 540 590 b 488 492 489 590 488 507 b 540 397 488 447 501 397 z m 122 614 b 61 631 122 638 61 614 b 182 656 63 653 154 654 b 172 450 179 614 172 526 b 238 319 172 424 174 319 b 238 386 269 319 246 343 b 240 657 222 456 236 563 b 415 669 350 669 372 618 b 256 713 457 721 315 714 b 29 631 101 708 29 683 b 88 594 29 604 65 594 b 122 614 101 594 122 594 z m 532 596 b 560 635 551 596 560 619 b 531 669 560 653 550 669 b 501 635 511 669 501 651 b 532 596 501 614 511 596 z m 499 360 b 475 393 500 381 489 393 b 450 358 456 393 450 379 l 386 357 b 361 393 386 381 379 393 b 338 357 342 393 338 378 b 256 353 276 357 244 399 b 339 325 265 314 317 325 b 294 135 336 292 346 135 b 265 192 269 135 261 172 b 278 304 307 225 336 304 b 178 136 201 304 243 136 b 131 460 111 136 221 407 b 83 436 107 472 69 475 b 90 211 114 347 90 288 b 181 107 90 126 125 86 b 221 135 196 113 210 122 b 276 101 232 114 254 101 b 340 158 310 101 332 128 b 393 106 339 129 367 106 b 456 161 424 106 447 136 b 503 108 460 142 478 108 b 549 157 525 108 540 139 b 608 101 551 129 578 101 b 668 164 642 101 660 138 b 693 96 668 125 678 97 b 758 269 749 90 704 260 b 776 217 786 274 794 235 b 749 204 767 206 749 218 b 786 179 749 183 771 176 b 774 301 839 190 832 301 b 711 247 749 301 717 272 b 675 303 714 272 701 297 b 656 289 668 304 656 301 b 667 226 656 269 669 260 b 614 135 664 192 650 135 b 590 192 588 135 588 174 b 611 307 650 217 668 307 b 515 153 544 307 554 153 b 499 324 485 153 497 304 b 719 329 571 324 651 325 b 844 397 761 332 844 338 b 832 401 844 410 839 404 b 499 360 725 353 561 361 z m 388 325 l 450 325 b 401 146 447 299 447 143 b 388 325 375 147 389 297 z m 265 211 b 292 274 265 235 279 286 b 265 211 300 267 279 222 z m 593 211 b 619 275 594 226 606 272 b 628 251 629 276 632 269 b 593 211 622 233 611 219 z m 443 11 l 451 11 l 451 44 l 443 44 z m 349 42 l 340 39 l 340 35 l 338 35 l 338 29 l 340 29 b 342 13 340 24 339 17 b 354 11 344 10 350 10 l 354 18 b 349 21 350 17 349 18 l 349 29 l 354 29 l 354 35 l 349 35 z m 664 36 b 654 31 658 36 657 35 b 640 33 653 38 644 38 l 639 35 l 633 35 l 633 11 l 640 11 l 640 25 b 644 29 640 26 642 29 b 649 24 649 29 649 26 l 649 11 l 656 11 l 656 24 b 665 24 656 28 665 33 l 665 11 l 671 11 l 671 25 b 664 36 671 33 668 36 z m 428 36 b 422 33 425 36 424 35 l 421 35 l 413 35 l 413 11 l 422 11 b 422 26 422 13 422 25 b 429 24 424 31 429 29 l 429 11 l 439 11 l 439 25 b 428 36 439 33 433 36 z m 557 31 l 557 35 l 551 35 b 551 11 551 31 551 17 l 558 11 b 558 25 558 13 558 25 b 568 28 558 26 564 29 l 568 36 b 557 31 564 36 560 35 z m 468 36 b 456 22 460 36 456 31 b 481 13 456 13 469 7 l 478 18 b 465 21 475 17 465 14 l 481 21 b 468 36 481 31 475 36 z m 617 36 b 617 10 599 36 599 10 b 617 36 633 10 633 36 z m 588 24 b 601 28 588 29 597 31 l 601 35 b 601 13 571 42 572 3 l 601 18 b 588 24 597 18 588 17 z m 400 11 l 407 11 l 407 35 l 400 35 z m 236 18 l 232 35 l 225 35 l 221 18 l 218 35 l 210 35 l 217 11 l 224 11 l 228 26 l 233 11 l 240 11 l 246 35 l 239 35 z m 465 25 b 474 25 465 31 474 31 z m 617 17 b 617 29 608 17 607 29 b 617 17 624 29 624 17 z m 571 19 b 571 10 565 19 565 10 b 571 19 576 10 576 19 z m 329 19 b 329 10 324 19 324 10 b 329 19 336 10 336 19 z m 274 18 l 269 35 l 263 35 l 258 18 l 256 35 l 249 35 l 254 11 l 261 11 l 267 26 l 271 11 l 278 11 l 285 35 l 276 35 z m 311 18 l 307 35 l 301 35 l 296 18 l 293 35 l 286 35 l 292 11 l 300 11 l 304 26 l 308 11 l 317 11 l 322 35 l 315 35 z m 385 18 l 379 35 l 374 35 l 369 18 l 367 35 l 358 35 l 365 11 l 372 11 l 376 26 l 382 11 l 389 11 l 394 35 l 388 35 z m 403 44 b 403 36 396 44 396 36 b 403 44 408 36 408 44 z m 535 36 b 522 22 526 36 522 31 b 547 13 522 11 535 7 l 544 18 b 532 21 542 17 532 14 l 547 21 b 535 36 547 31 542 36 z m 532 25 b 540 25 532 31 540 31 z "},"{":{"ha":718,"x_min":0,"x_max":0,"o":"m 407 988 b 143 676 194 985 136 888 b 36 438 151 413 40 501 b 144 194 31 353 150 451 b 454 -196 139 -75 196 -196 b 663 -104 556 -196 646 -182 b 492 92 704 83 519 -78 b 489 258 483 144 488 240 b 393 429 506 403 393 390 b 510 556 393 471 510 433 b 514 715 510 614 503 685 b 683 872 560 842 683 710 b 407 988 683 996 515 989 z "},"/":{"ha":754,"x_min":0,"x_max":0,"o":"m 243 638 b 139 15 104 388 -85 100 b 590 518 358 -68 507 347 b 629 976 703 747 794 896 b 243 638 468 1054 396 911 z "},"\\":{"ha":861,"x_min":0,"x_max":0,"o":"m 514 42 l 506 39 l 506 35 l 493 35 l 493 42 l 486 39 l 486 35 l 483 35 l 483 29 l 486 29 l 486 21 b 488 13 486 18 486 14 b 500 11 490 10 494 10 l 500 18 b 493 21 494 17 493 18 l 493 29 l 506 29 b 507 13 506 25 504 17 b 519 11 510 10 517 10 l 519 18 b 514 21 517 17 514 18 l 514 29 l 519 29 l 519 35 l 514 35 z m 415 596 b 415 438 442 551 442 450 b 374 576 378 421 424 578 b 326 444 319 575 358 444 b 333 578 301 444 301 524 b 315 614 343 594 340 614 b 256 518 263 614 256 560 b 308 406 256 442 272 406 b 357 444 325 406 349 419 b 406 403 360 421 379 403 b 476 533 478 403 476 519 b 443 631 476 585 465 621 b 415 596 413 646 404 614 z m 540 397 b 593 447 571 397 588 425 b 619 403 593 429 597 403 b 694 586 685 403 664 610 b 686 478 708 575 689 525 b 728 392 683 442 692 392 b 797 728 800 392 849 592 b 604 860 763 821 688 871 b 443 721 524 849 454 785 b 511 689 432 654 486 613 b 719 756 540 778 644 818 b 754 424 826 667 788 431 b 753 540 733 419 750 525 b 704 611 761 588 735 611 b 658 561 678 611 664 596 b 639 474 647 481 636 442 b 624 611 646 543 665 611 b 594 581 604 611 597 600 b 558 438 593 563 589 438 b 544 463 544 438 544 463 b 553 554 544 501 553 533 b 526 590 553 579 540 590 b 488 492 489 590 488 507 b 540 397 488 447 501 397 z m 122 614 b 61 631 122 638 61 614 b 182 656 63 653 154 654 b 172 450 179 614 172 526 b 238 319 172 424 174 319 b 238 386 269 319 246 343 b 240 657 222 456 236 563 b 415 669 350 669 372 618 b 256 713 457 721 315 714 b 29 631 101 708 29 683 b 88 594 29 604 65 594 b 122 614 101 594 122 594 z m 532 596 b 560 635 551 596 560 619 b 531 669 560 653 550 669 b 501 635 511 669 501 651 b 532 596 501 614 511 596 z m 499 360 b 475 393 500 381 489 393 b 450 358 456 393 450 379 l 386 357 b 361 393 386 381 379 393 b 338 357 342 393 338 378 b 256 353 276 357 244 399 b 339 325 265 314 317 325 b 294 135 336 292 346 135 b 265 192 269 135 261 172 b 278 304 307 225 336 304 b 178 136 201 304 243 136 b 131 460 111 136 221 407 b 83 436 107 472 69 475 b 90 211 114 347 90 288 b 181 107 90 126 125 86 b 221 135 196 113 210 122 b 276 101 232 114 254 101 b 340 158 310 101 332 128 b 393 106 339 129 367 106 b 456 161 424 106 447 136 b 503 108 460 142 478 108 b 549 157 525 108 540 139 b 608 101 551 129 578 101 b 668 164 642 101 660 138 b 693 96 668 125 678 97 b 758 269 749 90 704 260 b 776 217 786 274 794 235 b 749 204 767 206 749 218 b 786 179 749 183 771 176 b 774 301 839 190 832 301 b 711 247 749 301 717 272 b 675 303 714 272 701 297 b 656 289 668 304 656 301 b 667 226 656 269 669 260 b 614 135 664 192 650 135 b 590 192 588 135 588 174 b 611 307 650 217 668 307 b 515 153 544 307 554 153 b 499 324 485 153 497 304 b 719 329 571 324 651 325 b 844 397 761 332 844 338 b 832 401 844 410 839 404 b 499 360 725 353 561 361 z m 388 325 l 450 325 b 401 146 447 299 447 143 b 388 325 375 147 389 297 z m 265 211 b 292 274 265 235 279 286 b 265 211 300 267 279 222 z m 593 211 b 619 275 594 226 606 272 b 628 251 629 276 632 269 b 593 211 622 233 611 219 z m 443 11 l 451 11 l 451 44 l 443 44 z m 349 42 l 340 39 l 340 35 l 338 35 l 338 29 l 340 29 b 342 13 340 24 339 17 b 354 11 344 10 350 10 l 354 18 b 349 21 350 17 349 18 l 349 29 l 354 29 l 354 35 l 349 35 z m 664 36 b 654 31 658 36 657 35 b 640 33 653 38 644 38 l 639 35 l 633 35 l 633 11 l 640 11 l 640 25 b 644 29 640 26 642 29 b 649 24 649 29 649 26 l 649 11 l 656 11 l 656 24 b 665 24 656 28 665 33 l 665 11 l 671 11 l 671 25 b 664 36 671 33 668 36 z m 428 36 b 422 33 425 36 424 35 l 421 35 l 413 35 l 413 11 l 422 11 b 422 26 422 13 422 25 b 429 24 424 31 429 29 l 429 11 l 439 11 l 439 25 b 428 36 439 33 433 36 z m 557 31 l 557 35 l 551 35 b 551 11 551 31 551 17 l 558 11 b 558 25 558 13 558 25 b 568 28 558 26 564 29 l 568 36 b 557 31 564 36 560 35 z m 468 36 b 456 22 460 36 456 31 b 481 13 456 13 469 7 l 478 18 b 465 21 475 17 465 14 l 481 21 b 468 36 481 31 475 36 z m 617 36 b 617 10 599 36 599 10 b 617 36 633 10 633 36 z m 588 24 b 601 28 588 29 597 31 l 601 35 b 601 13 571 42 572 3 l 601 18 b 588 24 597 18 588 17 z m 400 11 l 407 11 l 407 35 l 400 35 z m 236 18 l 232 35 l 225 35 l 221 18 l 218 35 l 210 35 l 217 11 l 224 11 l 228 26 l 233 11 l 240 11 l 246 35 l 239 35 z m 465 25 b 474 25 465 31 474 31 z m 617 17 b 617 29 608 17 607 29 b 617 17 624 29 624 17 z m 571 19 b 571 10 565 19 565 10 b 571 19 576 10 576 19 z m 329 19 b 329 10 324 19 324 10 b 329 19 336 10 336 19 z m 274 18 l 269 35 l 263 35 l 258 18 l 256 35 l 249 35 l 254 11 l 261 11 l 267 26 l 271 11 l 278 11 l 285 35 l 276 35 z m 311 18 l 307 35 l 301 35 l 296 18 l 293 35 l 286 35 l 292 11 l 300 11 l 304 26 l 308 11 l 317 11 l 322 35 l 315 35 z m 385 18 l 379 35 l 374 35 l 369 18 l 367 35 l 358 35 l 365 11 l 372 11 l 376 26 l 382 11 l 389 11 l 394 35 l 388 35 z m 403 44 b 403 36 396 44 396 36 b 403 44 408 36 408 44 z m 535 36 b 522 22 526 36 522 31 b 547 13 522 11 535 7 l 544 18 b 532 21 542 17 532 14 l 547 21 b 535 36 547 31 542 36 z m 532 25 b 540 25 532 31 540 31 z "},"-":{"ha":861,"x_min":0,"x_max":0,"o":"m 514 42 l 506 39 l 506 35 l 493 35 l 493 42 l 486 39 l 486 35 l 483 35 l 483 29 l 486 29 l 486 21 b 488 13 486 18 486 14 b 500 11 490 10 494 10 l 500 18 b 493 21 494 17 493 18 l 493 29 l 506 29 b 507 13 506 25 504 17 b 519 11 510 10 517 10 l 519 18 b 514 21 517 17 514 18 l 514 29 l 519 29 l 519 35 l 514 35 z m 415 596 b 415 438 442 551 442 450 b 374 576 378 421 424 578 b 326 444 319 575 358 444 b 333 578 301 444 301 524 b 315 614 343 594 340 614 b 256 518 263 614 256 560 b 308 406 256 442 272 406 b 357 444 325 406 349 419 b 406 403 360 421 379 403 b 476 533 478 403 476 519 b 443 631 476 585 465 621 b 415 596 413 646 404 614 z m 540 397 b 593 447 571 397 588 425 b 619 403 593 429 597 403 b 694 586 685 403 664 610 b 686 478 708 575 689 525 b 728 392 683 442 692 392 b 797 728 800 392 849 592 b 604 860 763 821 688 871 b 443 721 524 849 454 785 b 511 689 432 654 486 613 b 719 756 540 778 644 818 b 754 424 826 667 788 431 b 753 540 733 419 750 525 b 704 611 761 588 735 611 b 658 561 678 611 664 596 b 639 474 647 481 636 442 b 624 611 646 543 665 611 b 594 581 604 611 597 600 b 558 438 593 563 589 438 b 544 463 544 438 544 463 b 553 554 544 501 553 533 b 526 590 553 579 540 590 b 488 492 489 590 488 507 b 540 397 488 447 501 397 z m 122 614 b 61 631 122 638 61 614 b 182 656 63 653 154 654 b 172 450 179 614 172 526 b 238 319 172 424 174 319 b 238 386 269 319 246 343 b 240 657 222 456 236 563 b 415 669 350 669 372 618 b 256 713 457 721 315 714 b 29 631 101 708 29 683 b 88 594 29 604 65 594 b 122 614 101 594 122 594 z m 532 596 b 560 635 551 596 560 619 b 531 669 560 653 550 669 b 501 635 511 669 501 651 b 532 596 501 614 511 596 z m 499 360 b 475 393 500 381 489 393 b 450 358 456 393 450 379 l 386 357 b 361 393 386 381 379 393 b 338 357 342 393 338 378 b 256 353 276 357 244 399 b 339 325 265 314 317 325 b 294 135 336 292 346 135 b 265 192 269 135 261 172 b 278 304 307 225 336 304 b 178 136 201 304 243 136 b 131 460 111 136 221 407 b 83 436 107 472 69 475 b 90 211 114 347 90 288 b 181 107 90 126 125 86 b 221 135 196 113 210 122 b 276 101 232 114 254 101 b 340 158 310 101 332 128 b 393 106 339 129 367 106 b 456 161 424 106 447 136 b 503 108 460 142 478 108 b 549 157 525 108 540 139 b 608 101 551 129 578 101 b 668 164 642 101 660 138 b 693 96 668 125 678 97 b 758 269 749 90 704 260 b 776 217 786 274 794 235 b 749 204 767 206 749 218 b 786 179 749 183 771 176 b 774 301 839 190 832 301 b 711 247 749 301 717 272 b 675 303 714 272 701 297 b 656 289 668 304 656 301 b 667 226 656 269 669 260 b 614 135 664 192 650 135 b 590 192 588 135 588 174 b 611 307 650 217 668 307 b 515 153 544 307 554 153 b 499 324 485 153 497 304 b 719 329 571 324 651 325 b 844 397 761 332 844 338 b 832 401 844 410 839 404 b 499 360 725 353 561 361 z m 388 325 l 450 325 b 401 146 447 299 447 143 b 388 325 375 147 389 297 z m 265 211 b 292 274 265 235 279 286 b 265 211 300 267 279 222 z m 593 211 b 619 275 594 226 606 272 b 628 251 629 276 632 269 b 593 211 622 233 611 219 z m 443 11 l 451 11 l 451 44 l 443 44 z m 349 42 l 340 39 l 340 35 l 338 35 l 338 29 l 340 29 b 342 13 340 24 339 17 b 354 11 344 10 350 10 l 354 18 b 349 21 350 17 349 18 l 349 29 l 354 29 l 354 35 l 349 35 z m 664 36 b 654 31 658 36 657 35 b 640 33 653 38 644 38 l 639 35 l 633 35 l 633 11 l 640 11 l 640 25 b 644 29 640 26 642 29 b 649 24 649 29 649 26 l 649 11 l 656 11 l 656 24 b 665 24 656 28 665 33 l 665 11 l 671 11 l 671 25 b 664 36 671 33 668 36 z m 428 36 b 422 33 425 36 424 35 l 421 35 l 413 35 l 413 11 l 422 11 b 422 26 422 13 422 25 b 429 24 424 31 429 29 l 429 11 l 439 11 l 439 25 b 428 36 439 33 433 36 z m 557 31 l 557 35 l 551 35 b 551 11 551 31 551 17 l 558 11 b 558 25 558 13 558 25 b 568 28 558 26 564 29 l 568 36 b 557 31 564 36 560 35 z m 468 36 b 456 22 460 36 456 31 b 481 13 456 13 469 7 l 478 18 b 465 21 475 17 465 14 l 481 21 b 468 36 481 31 475 36 z m 617 36 b 617 10 599 36 599 10 b 617 36 633 10 633 36 z m 588 24 b 601 28 588 29 597 31 l 601 35 b 601 13 571 42 572 3 l 601 18 b 588 24 597 18 588 17 z m 400 11 l 407 11 l 407 35 l 400 35 z m 236 18 l 232 35 l 225 35 l 221 18 l 218 35 l 210 35 l 217 11 l 224 11 l 228 26 l 233 11 l 240 11 l 246 35 l 239 35 z m 465 25 b 474 25 465 31 474 31 z m 617 17 b 617 29 608 17 607 29 b 617 17 624 29 624 17 z m 571 19 b 571 10 565 19 565 10 b 571 19 576 10 576 19 z m 329 19 b 329 10 324 19 324 10 b 329 19 336 10 336 19 z m 274 18 l 269 35 l 263 35 l 258 18 l 256 35 l 249 35 l 254 11 l 261 11 l 267 26 l 271 11 l 278 11 l 285 35 l 276 35 z m 311 18 l 307 35 l 301 35 l 296 18 l 293 35 l 286 35 l 292 11 l 300 11 l 304 26 l 308 11 l 317 11 l 322 35 l 315 35 z m 385 18 l 379 35 l 374 35 l 369 18 l 367 35 l 358 35 l 365 11 l 372 11 l 376 26 l 382 11 l 389 11 l 394 35 l 388 35 z m 403 44 b 403 36 396 44 396 36 b 403 44 408 36 408 44 z m 535 36 b 522 22 526 36 522 31 b 547 13 522 11 535 7 l 544 18 b 532 21 542 17 532 14 l 547 21 b 535 36 547 31 542 36 z m 532 25 b 540 25 532 31 540 31 z "},"<":{"ha":694,"x_min":0,"x_max":0,"o":"m 338 504 b 494 574 400 528 457 556 b 644 808 667 660 678 754 b 244 754 597 885 394 858 b 36 504 168 703 35 578 b 244 254 35 431 168 306 b 644 200 394 150 597 124 b 494 435 678 254 667 349 b 338 504 457 453 400 481 z "},">":{"ha":861,"x_min":0,"x_max":0,"o":"m 514 42 l 506 39 l 506 35 l 493 35 l 493 42 l 486 39 l 486 35 l 483 35 l 483 29 l 486 29 l 486 21 b 488 13 486 18 486 14 b 500 11 490 10 494 10 l 500 18 b 493 21 494 17 493 18 l 493 29 l 506 29 b 507 13 506 25 504 17 b 519 11 510 10 517 10 l 519 18 b 514 21 517 17 514 18 l 514 29 l 519 29 l 519 35 l 514 35 z m 415 596 b 415 438 442 551 442 450 b 374 576 378 421 424 578 b 326 444 319 575 358 444 b 333 578 301 444 301 524 b 315 614 343 594 340 614 b 256 518 263 614 256 560 b 308 406 256 442 272 406 b 357 444 325 406 349 419 b 406 403 360 421 379 403 b 476 533 478 403 476 519 b 443 631 476 585 465 621 b 415 596 413 646 404 614 z m 540 397 b 593 447 571 397 588 425 b 619 403 593 429 597 403 b 694 586 685 403 664 610 b 686 478 708 575 689 525 b 728 392 683 442 692 392 b 797 728 800 392 849 592 b 604 860 763 821 688 871 b 443 721 524 849 454 785 b 511 689 432 654 486 613 b 719 756 540 778 644 818 b 754 424 826 667 788 431 b 753 540 733 419 750 525 b 704 611 761 588 735 611 b 658 561 678 611 664 596 b 639 474 647 481 636 442 b 624 611 646 543 665 611 b 594 581 604 611 597 600 b 558 438 593 563 589 438 b 544 463 544 438 544 463 b 553 554 544 501 553 533 b 526 590 553 579 540 590 b 488 492 489 590 488 507 b 540 397 488 447 501 397 z m 122 614 b 61 631 122 638 61 614 b 182 656 63 653 154 654 b 172 450 179 614 172 526 b 238 319 172 424 174 319 b 238 386 269 319 246 343 b 240 657 222 456 236 563 b 415 669 350 669 372 618 b 256 713 457 721 315 714 b 29 631 101 708 29 683 b 88 594 29 604 65 594 b 122 614 101 594 122 594 z m 532 596 b 560 635 551 596 560 619 b 531 669 560 653 550 669 b 501 635 511 669 501 651 b 532 596 501 614 511 596 z m 499 360 b 475 393 500 381 489 393 b 450 358 456 393 450 379 l 386 357 b 361 393 386 381 379 393 b 338 357 342 393 338 378 b 256 353 276 357 244 399 b 339 325 265 314 317 325 b 294 135 336 292 346 135 b 265 192 269 135 261 172 b 278 304 307 225 336 304 b 178 136 201 304 243 136 b 131 460 111 136 221 407 b 83 436 107 472 69 475 b 90 211 114 347 90 288 b 181 107 90 126 125 86 b 221 135 196 113 210 122 b 276 101 232 114 254 101 b 340 158 310 101 332 128 b 393 106 339 129 367 106 b 456 161 424 106 447 136 b 503 108 460 142 478 108 b 549 157 525 108 540 139 b 608 101 551 129 578 101 b 668 164 642 101 660 138 b 693 96 668 125 678 97 b 758 269 749 90 704 260 b 776 217 786 274 794 235 b 749 204 767 206 749 218 b 786 179 749 183 771 176 b 774 301 839 190 832 301 b 711 247 749 301 717 272 b 675 303 714 272 701 297 b 656 289 668 304 656 301 b 667 226 656 269 669 260 b 614 135 664 192 650 135 b 590 192 588 135 588 174 b 611 307 650 217 668 307 b 515 153 544 307 554 153 b 499 324 485 153 497 304 b 719 329 571 324 651 325 b 844 397 761 332 844 338 b 832 401 844 410 839 404 b 499 360 725 353 561 361 z m 388 325 l 450 325 b 401 146 447 299 447 143 b 388 325 375 147 389 297 z m 265 211 b 292 274 265 235 279 286 b 265 211 300 267 279 222 z m 593 211 b 619 275 594 226 606 272 b 628 251 629 276 632 269 b 593 211 622 233 611 219 z m 443 11 l 451 11 l 451 44 l 443 44 z m 349 42 l 340 39 l 340 35 l 338 35 l 338 29 l 340 29 b 342 13 340 24 339 17 b 354 11 344 10 350 10 l 354 18 b 349 21 350 17 349 18 l 349 29 l 354 29 l 354 35 l 349 35 z m 664 36 b 654 31 658 36 657 35 b 640 33 653 38 644 38 l 639 35 l 633 35 l 633 11 l 640 11 l 640 25 b 644 29 640 26 642 29 b 649 24 649 29 649 26 l 649 11 l 656 11 l 656 24 b 665 24 656 28 665 33 l 665 11 l 671 11 l 671 25 b 664 36 671 33 668 36 z m 428 36 b 422 33 425 36 424 35 l 421 35 l 413 35 l 413 11 l 422 11 b 422 26 422 13 422 25 b 429 24 424 31 429 29 l 429 11 l 439 11 l 439 25 b 428 36 439 33 433 36 z m 557 31 l 557 35 l 551 35 b 551 11 551 31 551 17 l 558 11 b 558 25 558 13 558 25 b 568 28 558 26 564 29 l 568 36 b 557 31 564 36 560 35 z m 468 36 b 456 22 460 36 456 31 b 481 13 456 13 469 7 l 478 18 b 465 21 475 17 465 14 l 481 21 b 468 36 481 31 475 36 z m 617 36 b 617 10 599 36 599 10 b 617 36 633 10 633 36 z m 588 24 b 601 28 588 29 597 31 l 601 35 b 601 13 571 42 572 3 l 601 18 b 588 24 597 18 588 17 z m 400 11 l 407 11 l 407 35 l 400 35 z m 236 18 l 232 35 l 225 35 l 221 18 l 218 35 l 210 35 l 217 11 l 224 11 l 228 26 l 233 11 l 240 11 l 246 35 l 239 35 z m 465 25 b 474 25 465 31 474 31 z m 617 17 b 617 29 608 17 607 29 b 617 17 624 29 624 17 z m 571 19 b 571 10 565 19 565 10 b 571 19 576 10 576 19 z m 329 19 b 329 10 324 19 324 10 b 329 19 336 10 336 19 z m 274 18 l 269 35 l 263 35 l 258 18 l 256 35 l 249 35 l 254 11 l 261 11 l 267 26 l 271 11 l 278 11 l 285 35 l 276 35 z m 311 18 l 307 35 l 301 35 l 296 18 l 293 35 l 286 35 l 292 11 l 300 11 l 304 26 l 308 11 l 317 11 l 322 35 l 315 35 z m 385 18 l 379 35 l 374 35 l 369 18 l 367 35 l 358 35 l 365 11 l 372 11 l 376 26 l 382 11 l 389 11 l 394 35 l 388 35 z m 403 44 b 403 36 396 44 396 36 b 403 44 408 36 408 44 z m 535 36 b 522 22 526 36 522 31 b 547 13 522 11 535 7 l 544 18 b 532 21 542 17 532 14 l 547 21 b 535 36 547 31 542 36 z m 532 25 b 540 25 532 31 540 31 z "},"?":{"ha":861,"x_min":0,"x_max":0,"o":"m 514 42 l 506 39 l 506 35 l 493 35 l 493 42 l 486 39 l 486 35 l 483 35 l 483 29 l 486 29 l 486 21 b 488 13 486 18 486 14 b 500 11 490 10 494 10 l 500 18 b 493 21 494 17 493 18 l 493 29 l 506 29 b 507 13 506 25 504 17 b 519 11 510 10 517 10 l 519 18 b 514 21 517 17 514 18 l 514 29 l 519 29 l 519 35 l 514 35 z m 415 596 b 415 438 442 551 442 450 b 374 576 378 421 424 578 b 326 444 319 575 358 444 b 333 578 301 444 301 524 b 315 614 343 594 340 614 b 256 518 263 614 256 560 b 308 406 256 442 272 406 b 357 444 325 406 349 419 b 406 403 360 421 379 403 b 476 533 478 403 476 519 b 443 631 476 585 465 621 b 415 596 413 646 404 614 z m 540 397 b 593 447 571 397 588 425 b 619 403 593 429 597 403 b 694 586 685 403 664 610 b 686 478 708 575 689 525 b 728 392 683 442 692 392 b 797 728 800 392 849 592 b 604 860 763 821 688 871 b 443 721 524 849 454 785 b 511 689 432 654 486 613 b 719 756 540 778 644 818 b 754 424 826 667 788 431 b 753 540 733 419 750 525 b 704 611 761 588 735 611 b 658 561 678 611 664 596 b 639 474 647 481 636 442 b 624 611 646 543 665 611 b 594 581 604 611 597 600 b 558 438 593 563 589 438 b 544 463 544 438 544 463 b 553 554 544 501 553 533 b 526 590 553 579 540 590 b 488 492 489 590 488 507 b 540 397 488 447 501 397 z m 122 614 b 61 631 122 638 61 614 b 182 656 63 653 154 654 b 172 450 179 614 172 526 b 238 319 172 424 174 319 b 238 386 269 319 246 343 b 240 657 222 456 236 563 b 415 669 350 669 372 618 b 256 713 457 721 315 714 b 29 631 101 708 29 683 b 88 594 29 604 65 594 b 122 614 101 594 122 594 z m 532 596 b 560 635 551 596 560 619 b 531 669 560 653 550 669 b 501 635 511 669 501 651 b 532 596 501 614 511 596 z m 499 360 b 475 393 500 381 489 393 b 450 358 456 393 450 379 l 386 357 b 361 393 386 381 379 393 b 338 357 342 393 338 378 b 256 353 276 357 244 399 b 339 325 265 314 317 325 b 294 135 336 292 346 135 b 265 192 269 135 261 172 b 278 304 307 225 336 304 b 178 136 201 304 243 136 b 131 460 111 136 221 407 b 83 436 107 472 69 475 b 90 211 114 347 90 288 b 181 107 90 126 125 86 b 221 135 196 113 210 122 b 276 101 232 114 254 101 b 340 158 310 101 332 128 b 393 106 339 129 367 106 b 456 161 424 106 447 136 b 503 108 460 142 478 108 b 549 157 525 108 540 139 b 608 101 551 129 578 101 b 668 164 642 101 660 138 b 693 96 668 125 678 97 b 758 269 749 90 704 260 b 776 217 786 274 794 235 b 749 204 767 206 749 218 b 786 179 749 183 771 176 b 774 301 839 190 832 301 b 711 247 749 301 717 272 b 675 303 714 272 701 297 b 656 289 668 304 656 301 b 667 226 656 269 669 260 b 614 135 664 192 650 135 b 590 192 588 135 588 174 b 611 307 650 217 668 307 b 515 153 544 307 554 153 b 499 324 485 153 497 304 b 719 329 571 324 651 325 b 844 397 761 332 844 338 b 832 401 844 410 839 404 b 499 360 725 353 561 361 z m 388 325 l 450 325 b 401 146 447 299 447 143 b 388 325 375 147 389 297 z m 265 211 b 292 274 265 235 279 286 b 265 211 300 267 279 222 z m 593 211 b 619 275 594 226 606 272 b 628 251 629 276 632 269 b 593 211 622 233 611 219 z m 443 11 l 451 11 l 451 44 l 443 44 z m 349 42 l 340 39 l 340 35 l 338 35 l 338 29 l 340 29 b 342 13 340 24 339 17 b 354 11 344 10 350 10 l 354 18 b 349 21 350 17 349 18 l 349 29 l 354 29 l 354 35 l 349 35 z m 664 36 b 654 31 658 36 657 35 b 640 33 653 38 644 38 l 639 35 l 633 35 l 633 11 l 640 11 l 640 25 b 644 29 640 26 642 29 b 649 24 649 29 649 26 l 649 11 l 656 11 l 656 24 b 665 24 656 28 665 33 l 665 11 l 671 11 l 671 25 b 664 36 671 33 668 36 z m 428 36 b 422 33 425 36 424 35 l 421 35 l 413 35 l 413 11 l 422 11 b 422 26 422 13 422 25 b 429 24 424 31 429 29 l 429 11 l 439 11 l 439 25 b 428 36 439 33 433 36 z m 557 31 l 557 35 l 551 35 b 551 11 551 31 551 17 l 558 11 b 558 25 558 13 558 25 b 568 28 558 26 564 29 l 568 36 b 557 31 564 36 560 35 z m 468 36 b 456 22 460 36 456 31 b 481 13 456 13 469 7 l 478 18 b 465 21 475 17 465 14 l 481 21 b 468 36 481 31 475 36 z m 617 36 b 617 10 599 36 599 10 b 617 36 633 10 633 36 z m 588 24 b 601 28 588 29 597 31 l 601 35 b 601 13 571 42 572 3 l 601 18 b 588 24 597 18 588 17 z m 400 11 l 407 11 l 407 35 l 400 35 z m 236 18 l 232 35 l 225 35 l 221 18 l 218 35 l 210 35 l 217 11 l 224 11 l 228 26 l 233 11 l 240 11 l 246 35 l 239 35 z m 465 25 b 474 25 465 31 474 31 z m 617 17 b 617 29 608 17 607 29 b 617 17 624 29 624 17 z m 571 19 b 571 10 565 19 565 10 b 571 19 576 10 576 19 z m 329 19 b 329 10 324 19 324 10 b 329 19 336 10 336 19 z m 274 18 l 269 35 l 263 35 l 258 18 l 256 35 l 249 35 l 254 11 l 261 11 l 267 26 l 271 11 l 278 11 l 285 35 l 276 35 z m 311 18 l 307 35 l 301 35 l 296 18 l 293 35 l 286 35 l 292 11 l 300 11 l 304 26 l 308 11 l 317 11 l 322 35 l 315 35 z m 385 18 l 379 35 l 374 35 l 369 18 l 367 35 l 358 35 l 365 11 l 372 11 l 376 26 l 382 11 l 389 11 l 394 35 l 388 35 z m 403 44 b 403 36 396 44 396 36 b 403 44 408 36 408 44 z m 535 36 b 522 22 526 36 522 31 b 547 13 522 11 535 7 l 544 18 b 532 21 542 17 532 14 l 547 21 b 535 36 547 31 542 36 z m 532 25 b 540 25 532 31 540 31 z "},"!":{"ha":861,"x_min":0,"x_max":0,"o":"m 514 42 l 506 39 l 506 35 l 493 35 l 493 42 l 486 39 l 486 35 l 483 35 l 483 29 l 486 29 l 486 21 b 488 13 486 18 486 14 b 500 11 490 10 494 10 l 500 18 b 493 21 494 17 493 18 l 493 29 l 506 29 b 507 13 506 25 504 17 b 519 11 510 10 517 10 l 519 18 b 514 21 517 17 514 18 l 514 29 l 519 29 l 519 35 l 514 35 z m 415 596 b 415 438 442 551 442 450 b 374 576 378 421 424 578 b 326 444 319 575 358 444 b 333 578 301 444 301 524 b 315 614 343 594 340 614 b 256 518 263 614 256 560 b 308 406 256 442 272 406 b 357 444 325 406 349 419 b 406 403 360 421 379 403 b 476 533 478 403 476 519 b 443 631 476 585 465 621 b 415 596 413 646 404 614 z m 540 397 b 593 447 571 397 588 425 b 619 403 593 429 597 403 b 694 586 685 403 664 610 b 686 478 708 575 689 525 b 728 392 683 442 692 392 b 797 728 800 392 849 592 b 604 860 763 821 688 871 b 443 721 524 849 454 785 b 511 689 432 654 486 613 b 719 756 540 778 644 818 b 754 424 826 667 788 431 b 753 540 733 419 750 525 b 704 611 761 588 735 611 b 658 561 678 611 664 596 b 639 474 647 481 636 442 b 624 611 646 543 665 611 b 594 581 604 611 597 600 b 558 438 593 563 589 438 b 544 463 544 438 544 463 b 553 554 544 501 553 533 b 526 590 553 579 540 590 b 488 492 489 590 488 507 b 540 397 488 447 501 397 z m 122 614 b 61 631 122 638 61 614 b 182 656 63 653 154 654 b 172 450 179 614 172 526 b 238 319 172 424 174 319 b 238 386 269 319 246 343 b 240 657 222 456 236 563 b 415 669 350 669 372 618 b 256 713 457 721 315 714 b 29 631 101 708 29 683 b 88 594 29 604 65 594 b 122 614 101 594 122 594 z m 532 596 b 560 635 551 596 560 619 b 531 669 560 653 550 669 b 501 635 511 669 501 651 b 532 596 501 614 511 596 z m 499 360 b 475 393 500 381 489 393 b 450 358 456 393 450 379 l 386 357 b 361 393 386 381 379 393 b 338 357 342 393 338 378 b 256 353 276 357 244 399 b 339 325 265 314 317 325 b 294 135 336 292 346 135 b 265 192 269 135 261 172 b 278 304 307 225 336 304 b 178 136 201 304 243 136 b 131 460 111 136 221 407 b 83 436 107 472 69 475 b 90 211 114 347 90 288 b 181 107 90 126 125 86 b 221 135 196 113 210 122 b 276 101 232 114 254 101 b 340 158 310 101 332 128 b 393 106 339 129 367 106 b 456 161 424 106 447 136 b 503 108 460 142 478 108 b 549 157 525 108 540 139 b 608 101 551 129 578 101 b 668 164 642 101 660 138 b 693 96 668 125 678 97 b 758 269 749 90 704 260 b 776 217 786 274 794 235 b 749 204 767 206 749 218 b 786 179 749 183 771 176 b 774 301 839 190 832 301 b 711 247 749 301 717 272 b 675 303 714 272 701 297 b 656 289 668 304 656 301 b 667 226 656 269 669 260 b 614 135 664 192 650 135 b 590 192 588 135 588 174 b 611 307 650 217 668 307 b 515 153 544 307 554 153 b 499 324 485 153 497 304 b 719 329 571 324 651 325 b 844 397 761 332 844 338 b 832 401 844 410 839 404 b 499 360 725 353 561 361 z m 388 325 l 450 325 b 401 146 447 299 447 143 b 388 325 375 147 389 297 z m 265 211 b 292 274 265 235 279 286 b 265 211 300 267 279 222 z m 593 211 b 619 275 594 226 606 272 b 628 251 629 276 632 269 b 593 211 622 233 611 219 z m 443 11 l 451 11 l 451 44 l 443 44 z m 349 42 l 340 39 l 340 35 l 338 35 l 338 29 l 340 29 b 342 13 340 24 339 17 b 354 11 344 10 350 10 l 354 18 b 349 21 350 17 349 18 l 349 29 l 354 29 l 354 35 l 349 35 z m 664 36 b 654 31 658 36 657 35 b 640 33 653 38 644 38 l 639 35 l 633 35 l 633 11 l 640 11 l 640 25 b 644 29 640 26 642 29 b 649 24 649 29 649 26 l 649 11 l 656 11 l 656 24 b 665 24 656 28 665 33 l 665 11 l 671 11 l 671 25 b 664 36 671 33 668 36 z m 428 36 b 422 33 425 36 424 35 l 421 35 l 413 35 l 413 11 l 422 11 b 422 26 422 13 422 25 b 429 24 424 31 429 29 l 429 11 l 439 11 l 439 25 b 428 36 439 33 433 36 z m 557 31 l 557 35 l 551 35 b 551 11 551 31 551 17 l 558 11 b 558 25 558 13 558 25 b 568 28 558 26 564 29 l 568 36 b 557 31 564 36 560 35 z m 468 36 b 456 22 460 36 456 31 b 481 13 456 13 469 7 l 478 18 b 465 21 475 17 465 14 l 481 21 b 468 36 481 31 475 36 z m 617 36 b 617 10 599 36 599 10 b 617 36 633 10 633 36 z m 588 24 b 601 28 588 29 597 31 l 601 35 b 601 13 571 42 572 3 l 601 18 b 588 24 597 18 588 17 z m 400 11 l 407 11 l 407 35 l 400 35 z m 236 18 l 232 35 l 225 35 l 221 18 l 218 35 l 210 35 l 217 11 l 224 11 l 228 26 l 233 11 l 240 11 l 246 35 l 239 35 z m 465 25 b 474 25 465 31 474 31 z m 617 17 b 617 29 608 17 607 29 b 617 17 624 29 624 17 z m 571 19 b 571 10 565 19 565 10 b 571 19 576 10 576 19 z m 329 19 b 329 10 324 19 324 10 b 329 19 336 10 336 19 z m 274 18 l 269 35 l 263 35 l 258 18 l 256 35 l 249 35 l 254 11 l 261 11 l 267 26 l 271 11 l 278 11 l 285 35 l 276 35 z m 311 18 l 307 35 l 301 35 l 296 18 l 293 35 l 286 35 l 292 11 l 300 11 l 304 26 l 308 11 l 317 11 l 322 35 l 315 35 z m 385 18 l 379 35 l 374 35 l 369 18 l 367 35 l 358 35 l 365 11 l 372 11 l 376 26 l 382 11 l 389 11 l 394 35 l 388 35 z m 403 44 b 403 36 396 44 396 36 b 403 44 408 36 408 44 z m 535 36 b 522 22 526 36 522 31 b 547 13 522 11 535 7 l 544 18 b 532 21 542 17 532 14 l 547 21 b 535 36 547 31 542 36 z m 532 25 b 540 25 532 31 540 31 z "},"@":{"ha":861,"x_min":0,"x_max":0,"o":"m 514 42 l 506 39 l 506 35 l 493 35 l 493 42 l 486 39 l 486 35 l 483 35 l 483 29 l 486 29 l 486 21 b 488 13 486 18 486 14 b 500 11 490 10 494 10 l 500 18 b 493 21 494 17 493 18 l 493 29 l 506 29 b 507 13 506 25 504 17 b 519 11 510 10 517 10 l 519 18 b 514 21 517 17 514 18 l 514 29 l 519 29 l 519 35 l 514 35 z m 415 596 b 415 438 442 551 442 450 b 374 576 378 421 424 578 b 326 444 319 575 358 444 b 333 578 301 444 301 524 b 315 614 343 594 340 614 b 256 518 263 614 256 560 b 308 406 256 442 272 406 b 357 444 325 406 349 419 b 406 403 360 421 379 403 b 476 533 478 403 476 519 b 443 631 476 585 465 621 b 415 596 413 646 404 614 z m 540 397 b 593 447 571 397 588 425 b 619 403 593 429 597 403 b 694 586 685 403 664 610 b 686 478 708 575 689 525 b 728 392 683 442 692 392 b 797 728 800 392 849 592 b 604 860 763 821 688 871 b 443 721 524 849 454 785 b 511 689 432 654 486 613 b 719 756 540 778 644 818 b 754 424 826 667 788 431 b 753 540 733 419 750 525 b 704 611 761 588 735 611 b 658 561 678 611 664 596 b 639 474 647 481 636 442 b 624 611 646 543 665 611 b 594 581 604 611 597 600 b 558 438 593 563 589 438 b 544 463 544 438 544 463 b 553 554 544 501 553 533 b 526 590 553 579 540 590 b 488 492 489 590 488 507 b 540 397 488 447 501 397 z m 122 614 b 61 631 122 638 61 614 b 182 656 63 653 154 654 b 172 450 179 614 172 526 b 238 319 172 424 174 319 b 238 386 269 319 246 343 b 240 657 222 456 236 563 b 415 669 350 669 372 618 b 256 713 457 721 315 714 b 29 631 101 708 29 683 b 88 594 29 604 65 594 b 122 614 101 594 122 594 z m 532 596 b 560 635 551 596 560 619 b 531 669 560 653 550 669 b 501 635 511 669 501 651 b 532 596 501 614 511 596 z m 499 360 b 475 393 500 381 489 393 b 450 358 456 393 450 379 l 386 357 b 361 393 386 381 379 393 b 338 357 342 393 338 378 b 256 353 276 357 244 399 b 339 325 265 314 317 325 b 294 135 336 292 346 135 b 265 192 269 135 261 172 b 278 304 307 225 336 304 b 178 136 201 304 243 136 b 131 460 111 136 221 407 b 83 436 107 472 69 475 b 90 211 114 347 90 288 b 181 107 90 126 125 86 b 221 135 196 113 210 122 b 276 101 232 114 254 101 b 340 158 310 101 332 128 b 393 106 339 129 367 106 b 456 161 424 106 447 136 b 503 108 460 142 478 108 b 549 157 525 108 540 139 b 608 101 551 129 578 101 b 668 164 642 101 660 138 b 693 96 668 125 678 97 b 758 269 749 90 704 260 b 776 217 786 274 794 235 b 749 204 767 206 749 218 b 786 179 749 183 771 176 b 774 301 839 190 832 301 b 711 247 749 301 717 272 b 675 303 714 272 701 297 b 656 289 668 304 656 301 b 667 226 656 269 669 260 b 614 135 664 192 650 135 b 590 192 588 135 588 174 b 611 307 650 217 668 307 b 515 153 544 307 554 153 b 499 324 485 153 497 304 b 719 329 571 324 651 325 b 844 397 761 332 844 338 b 832 401 844 410 839 404 b 499 360 725 353 561 361 z m 388 325 l 450 325 b 401 146 447 299 447 143 b 388 325 375 147 389 297 z m 265 211 b 292 274 265 235 279 286 b 265 211 300 267 279 222 z m 593 211 b 619 275 594 226 606 272 b 628 251 629 276 632 269 b 593 211 622 233 611 219 z m 443 11 l 451 11 l 451 44 l 443 44 z m 349 42 l 340 39 l 340 35 l 338 35 l 338 29 l 340 29 b 342 13 340 24 339 17 b 354 11 344 10 350 10 l 354 18 b 349 21 350 17 349 18 l 349 29 l 354 29 l 354 35 l 349 35 z m 664 36 b 654 31 658 36 657 35 b 640 33 653 38 644 38 l 639 35 l 633 35 l 633 11 l 640 11 l 640 25 b 644 29 640 26 642 29 b 649 24 649 29 649 26 l 649 11 l 656 11 l 656 24 b 665 24 656 28 665 33 l 665 11 l 671 11 l 671 25 b 664 36 671 33 668 36 z m 428 36 b 422 33 425 36 424 35 l 421 35 l 413 35 l 413 11 l 422 11 b 422 26 422 13 422 25 b 429 24 424 31 429 29 l 429 11 l 439 11 l 439 25 b 428 36 439 33 433 36 z m 557 31 l 557 35 l 551 35 b 551 11 551 31 551 17 l 558 11 b 558 25 558 13 558 25 b 568 28 558 26 564 29 l 568 36 b 557 31 564 36 560 35 z m 468 36 b 456 22 460 36 456 31 b 481 13 456 13 469 7 l 478 18 b 465 21 475 17 465 14 l 481 21 b 468 36 481 31 475 36 z m 617 36 b 617 10 599 36 599 10 b 617 36 633 10 633 36 z m 588 24 b 601 28 588 29 597 31 l 601 35 b 601 13 571 42 572 3 l 601 18 b 588 24 597 18 588 17 z m 400 11 l 407 11 l 407 35 l 400 35 z m 236 18 l 232 35 l 225 35 l 221 18 l 218 35 l 210 35 l 217 11 l 224 11 l 228 26 l 233 11 l 240 11 l 246 35 l 239 35 z m 465 25 b 474 25 465 31 474 31 z m 617 17 b 617 29 608 17 607 29 b 617 17 624 29 624 17 z m 571 19 b 571 10 565 19 565 10 b 571 19 576 10 576 19 z m 329 19 b 329 10 324 19 324 10 b 329 19 336 10 336 19 z m 274 18 l 269 35 l 263 35 l 258 18 l 256 35 l 249 35 l 254 11 l 261 11 l 267 26 l 271 11 l 278 11 l 285 35 l 276 35 z m 311 18 l 307 35 l 301 35 l 296 18 l 293 35 l 286 35 l 292 11 l 300 11 l 304 26 l 308 11 l 317 11 l 322 35 l 315 35 z m 385 18 l 379 35 l 374 35 l 369 18 l 367 35 l 358 35 l 365 11 l 372 11 l 376 26 l 382 11 l 389 11 l 394 35 l 388 35 z m 403 44 b 403 36 396 44 396 36 b 403 44 408 36 408 44 z m 535 36 b 522 22 526 36 522 31 b 547 13 522 11 535 7 l 544 18 b 532 21 542 17 532 14 l 547 21 b 535 36 547 31 542 36 z m 532 25 b 540 25 532 31 540 31 z "},"&":{"ha":861,"x_min":0,"x_max":0,"o":"m 514 42 l 506 39 l 506 35 l 493 35 l 493 42 l 486 39 l 486 35 l 483 35 l 483 29 l 486 29 l 486 21 b 488 13 486 18 486 14 b 500 11 490 10 494 10 l 500 18 b 493 21 494 17 493 18 l 493 29 l 506 29 b 507 13 506 25 504 17 b 519 11 510 10 517 10 l 519 18 b 514 21 517 17 514 18 l 514 29 l 519 29 l 519 35 l 514 35 z m 415 596 b 415 438 442 551 442 450 b 374 576 378 421 424 578 b 326 444 319 575 358 444 b 333 578 301 444 301 524 b 315 614 343 594 340 614 b 256 518 263 614 256 560 b 308 406 256 442 272 406 b 357 444 325 406 349 419 b 406 403 360 421 379 403 b 476 533 478 403 476 519 b 443 631 476 585 465 621 b 415 596 413 646 404 614 z m 540 397 b 593 447 571 397 588 425 b 619 403 593 429 597 403 b 694 586 685 403 664 610 b 686 478 708 575 689 525 b 728 392 683 442 692 392 b 797 728 800 392 849 592 b 604 860 763 821 688 871 b 443 721 524 849 454 785 b 511 689 432 654 486 613 b 719 756 540 778 644 818 b 754 424 826 667 788 431 b 753 540 733 419 750 525 b 704 611 761 588 735 611 b 658 561 678 611 664 596 b 639 474 647 481 636 442 b 624 611 646 543 665 611 b 594 581 604 611 597 600 b 558 438 593 563 589 438 b 544 463 544 438 544 463 b 553 554 544 501 553 533 b 526 590 553 579 540 590 b 488 492 489 590 488 507 b 540 397 488 447 501 397 z m 122 614 b 61 631 122 638 61 614 b 182 656 63 653 154 654 b 172 450 179 614 172 526 b 238 319 172 424 174 319 b 238 386 269 319 246 343 b 240 657 222 456 236 563 b 415 669 350 669 372 618 b 256 713 457 721 315 714 b 29 631 101 708 29 683 b 88 594 29 604 65 594 b 122 614 101 594 122 594 z m 532 596 b 560 635 551 596 560 619 b 531 669 560 653 550 669 b 501 635 511 669 501 651 b 532 596 501 614 511 596 z m 499 360 b 475 393 500 381 489 393 b 450 358 456 393 450 379 l 386 357 b 361 393 386 381 379 393 b 338 357 342 393 338 378 b 256 353 276 357 244 399 b 339 325 265 314 317 325 b 294 135 336 292 346 135 b 265 192 269 135 261 172 b 278 304 307 225 336 304 b 178 136 201 304 243 136 b 131 460 111 136 221 407 b 83 436 107 472 69 475 b 90 211 114 347 90 288 b 181 107 90 126 125 86 b 221 135 196 113 210 122 b 276 101 232 114 254 101 b 340 158 310 101 332 128 b 393 106 339 129 367 106 b 456 161 424 106 447 136 b 503 108 460 142 478 108 b 549 157 525 108 540 139 b 608 101 551 129 578 101 b 668 164 642 101 660 138 b 693 96 668 125 678 97 b 758 269 749 90 704 260 b 776 217 786 274 794 235 b 749 204 767 206 749 218 b 786 179 749 183 771 176 b 774 301 839 190 832 301 b 711 247 749 301 717 272 b 675 303 714 272 701 297 b 656 289 668 304 656 301 b 667 226 656 269 669 260 b 614 135 664 192 650 135 b 590 192 588 135 588 174 b 611 307 650 217 668 307 b 515 153 544 307 554 153 b 499 324 485 153 497 304 b 719 329 571 324 651 325 b 844 397 761 332 844 338 b 832 401 844 410 839 404 b 499 360 725 353 561 361 z m 388 325 l 450 325 b 401 146 447 299 447 143 b 388 325 375 147 389 297 z m 265 211 b 292 274 265 235 279 286 b 265 211 300 267 279 222 z m 593 211 b 619 275 594 226 606 272 b 628 251 629 276 632 269 b 593 211 622 233 611 219 z m 443 11 l 451 11 l 451 44 l 443 44 z m 349 42 l 340 39 l 340 35 l 338 35 l 338 29 l 340 29 b 342 13 340 24 339 17 b 354 11 344 10 350 10 l 354 18 b 349 21 350 17 349 18 l 349 29 l 354 29 l 354 35 l 349 35 z m 664 36 b 654 31 658 36 657 35 b 640 33 653 38 644 38 l 639 35 l 633 35 l 633 11 l 640 11 l 640 25 b 644 29 640 26 642 29 b 649 24 649 29 649 26 l 649 11 l 656 11 l 656 24 b 665 24 656 28 665 33 l 665 11 l 671 11 l 671 25 b 664 36 671 33 668 36 z m 428 36 b 422 33 425 36 424 35 l 421 35 l 413 35 l 413 11 l 422 11 b 422 26 422 13 422 25 b 429 24 424 31 429 29 l 429 11 l 439 11 l 439 25 b 428 36 439 33 433 36 z m 557 31 l 557 35 l 551 35 b 551 11 551 31 551 17 l 558 11 b 558 25 558 13 558 25 b 568 28 558 26 564 29 l 568 36 b 557 31 564 36 560 35 z m 468 36 b 456 22 460 36 456 31 b 481 13 456 13 469 7 l 478 18 b 465 21 475 17 465 14 l 481 21 b 468 36 481 31 475 36 z m 617 36 b 617 10 599 36 599 10 b 617 36 633 10 633 36 z m 588 24 b 601 28 588 29 597 31 l 601 35 b 601 13 571 42 572 3 l 601 18 b 588 24 597 18 588 17 z m 400 11 l 407 11 l 407 35 l 400 35 z m 236 18 l 232 35 l 225 35 l 221 18 l 218 35 l 210 35 l 217 11 l 224 11 l 228 26 l 233 11 l 240 11 l 246 35 l 239 35 z m 465 25 b 474 25 465 31 474 31 z m 617 17 b 617 29 608 17 607 29 b 617 17 624 29 624 17 z m 571 19 b 571 10 565 19 565 10 b 571 19 576 10 576 19 z m 329 19 b 329 10 324 19 324 10 b 329 19 336 10 336 19 z m 274 18 l 269 35 l 263 35 l 258 18 l 256 35 l 249 35 l 254 11 l 261 11 l 267 26 l 271 11 l 278 11 l 285 35 l 276 35 z m 311 18 l 307 35 l 301 35 l 296 18 l 293 35 l 286 35 l 292 11 l 300 11 l 304 26 l 308 11 l 317 11 l 322 35 l 315 35 z m 385 18 l 379 35 l 374 35 l 369 18 l 367 35 l 358 35 l 365 11 l 372 11 l 376 26 l 382 11 l 389 11 l 394 35 l 388 35 z m 403 44 b 403 36 396 44 396 36 b 403 44 408 36 408 44 z m 535 36 b 522 22 526 36 522 31 b 547 13 522 11 535 7 l 544 18 b 532 21 542 17 532 14 l 547 21 b 535 36 547 31 542 36 z m 532 25 b 540 25 532 31 540 31 z "},"^":{"ha":861,"x_min":0,"x_max":0,"o":"m 514 42 l 506 39 l 506 35 l 493 35 l 493 42 l 486 39 l 486 35 l 483 35 l 483 29 l 486 29 l 486 21 b 488 13 486 18 486 14 b 500 11 490 10 494 10 l 500 18 b 493 21 494 17 493 18 l 493 29 l 506 29 b 507 13 506 25 504 17 b 519 11 510 10 517 10 l 519 18 b 514 21 517 17 514 18 l 514 29 l 519 29 l 519 35 l 514 35 z m 415 596 b 415 438 442 551 442 450 b 374 576 378 421 424 578 b 326 444 319 575 358 444 b 333 578 301 444 301 524 b 315 614 343 594 340 614 b 256 518 263 614 256 560 b 308 406 256 442 272 406 b 357 444 325 406 349 419 b 406 403 360 421 379 403 b 476 533 478 403 476 519 b 443 631 476 585 465 621 b 415 596 413 646 404 614 z m 540 397 b 593 447 571 397 588 425 b 619 403 593 429 597 403 b 694 586 685 403 664 610 b 686 478 708 575 689 525 b 728 392 683 442 692 392 b 797 728 800 392 849 592 b 604 860 763 821 688 871 b 443 721 524 849 454 785 b 511 689 432 654 486 613 b 719 756 540 778 644 818 b 754 424 826 667 788 431 b 753 540 733 419 750 525 b 704 611 761 588 735 611 b 658 561 678 611 664 596 b 639 474 647 481 636 442 b 624 611 646 543 665 611 b 594 581 604 611 597 600 b 558 438 593 563 589 438 b 544 463 544 438 544 463 b 553 554 544 501 553 533 b 526 590 553 579 540 590 b 488 492 489 590 488 507 b 540 397 488 447 501 397 z m 122 614 b 61 631 122 638 61 614 b 182 656 63 653 154 654 b 172 450 179 614 172 526 b 238 319 172 424 174 319 b 238 386 269 319 246 343 b 240 657 222 456 236 563 b 415 669 350 669 372 618 b 256 713 457 721 315 714 b 29 631 101 708 29 683 b 88 594 29 604 65 594 b 122 614 101 594 122 594 z m 532 596 b 560 635 551 596 560 619 b 531 669 560 653 550 669 b 501 635 511 669 501 651 b 532 596 501 614 511 596 z m 499 360 b 475 393 500 381 489 393 b 450 358 456 393 450 379 l 386 357 b 361 393 386 381 379 393 b 338 357 342 393 338 378 b 256 353 276 357 244 399 b 339 325 265 314 317 325 b 294 135 336 292 346 135 b 265 192 269 135 261 172 b 278 304 307 225 336 304 b 178 136 201 304 243 136 b 131 460 111 136 221 407 b 83 436 107 472 69 475 b 90 211 114 347 90 288 b 181 107 90 126 125 86 b 221 135 196 113 210 122 b 276 101 232 114 254 101 b 340 158 310 101 332 128 b 393 106 339 129 367 106 b 456 161 424 106 447 136 b 503 108 460 142 478 108 b 549 157 525 108 540 139 b 608 101 551 129 578 101 b 668 164 642 101 660 138 b 693 96 668 125 678 97 b 758 269 749 90 704 260 b 776 217 786 274 794 235 b 749 204 767 206 749 218 b 786 179 749 183 771 176 b 774 301 839 190 832 301 b 711 247 749 301 717 272 b 675 303 714 272 701 297 b 656 289 668 304 656 301 b 667 226 656 269 669 260 b 614 135 664 192 650 135 b 590 192 588 135 588 174 b 611 307 650 217 668 307 b 515 153 544 307 554 153 b 499 324 485 153 497 304 b 719 329 571 324 651 325 b 844 397 761 332 844 338 b 832 401 844 410 839 404 b 499 360 725 353 561 361 z m 388 325 l 450 325 b 401 146 447 299 447 143 b 388 325 375 147 389 297 z m 265 211 b 292 274 265 235 279 286 b 265 211 300 267 279 222 z m 593 211 b 619 275 594 226 606 272 b 628 251 629 276 632 269 b 593 211 622 233 611 219 z m 443 11 l 451 11 l 451 44 l 443 44 z m 349 42 l 340 39 l 340 35 l 338 35 l 338 29 l 340 29 b 342 13 340 24 339 17 b 354 11 344 10 350 10 l 354 18 b 349 21 350 17 349 18 l 349 29 l 354 29 l 354 35 l 349 35 z m 664 36 b 654 31 658 36 657 35 b 640 33 653 38 644 38 l 639 35 l 633 35 l 633 11 l 640 11 l 640 25 b 644 29 640 26 642 29 b 649 24 649 29 649 26 l 649 11 l 656 11 l 656 24 b 665 24 656 28 665 33 l 665 11 l 671 11 l 671 25 b 664 36 671 33 668 36 z m 428 36 b 422 33 425 36 424 35 l 421 35 l 413 35 l 413 11 l 422 11 b 422 26 422 13 422 25 b 429 24 424 31 429 29 l 429 11 l 439 11 l 439 25 b 428 36 439 33 433 36 z m 557 31 l 557 35 l 551 35 b 551 11 551 31 551 17 l 558 11 b 558 25 558 13 558 25 b 568 28 558 26 564 29 l 568 36 b 557 31 564 36 560 35 z m 468 36 b 456 22 460 36 456 31 b 481 13 456 13 469 7 l 478 18 b 465 21 475 17 465 14 l 481 21 b 468 36 481 31 475 36 z m 617 36 b 617 10 599 36 599 10 b 617 36 633 10 633 36 z m 588 24 b 601 28 588 29 597 31 l 601 35 b 601 13 571 42 572 3 l 601 18 b 588 24 597 18 588 17 z m 400 11 l 407 11 l 407 35 l 400 35 z m 236 18 l 232 35 l 225 35 l 221 18 l 218 35 l 210 35 l 217 11 l 224 11 l 228 26 l 233 11 l 240 11 l 246 35 l 239 35 z m 465 25 b 474 25 465 31 474 31 z m 617 17 b 617 29 608 17 607 29 b 617 17 624 29 624 17 z m 571 19 b 571 10 565 19 565 10 b 571 19 576 10 576 19 z m 329 19 b 329 10 324 19 324 10 b 329 19 336 10 336 19 z m 274 18 l 269 35 l 263 35 l 258 18 l 256 35 l 249 35 l 254 11 l 261 11 l 267 26 l 271 11 l 278 11 l 285 35 l 276 35 z m 311 18 l 307 35 l 301 35 l 296 18 l 293 35 l 286 35 l 292 11 l 300 11 l 304 26 l 308 11 l 317 11 l 322 35 l 315 35 z m 385 18 l 379 35 l 374 35 l 369 18 l 367 35 l 358 35 l 365 11 l 372 11 l 376 26 l 382 11 l 389 11 l 394 35 l 388 35 z m 403 44 b 403 36 396 44 396 36 b 403 44 408 36 408 44 z m 535 36 b 522 22 526 36 522 31 b 547 13 522 11 535 7 l 544 18 b 532 21 542 17 532 14 l 547 21 b 535 36 547 31 542 36 z m 532 25 b 540 25 532 31 540 31 z "},"#":{"ha":861,"x_min":0,"x_max":0,"o":"m 514 42 l 506 39 l 506 35 l 493 35 l 493 42 l 486 39 l 486 35 l 483 35 l 483 29 l 486 29 l 486 21 b 488 13 486 18 486 14 b 500 11 490 10 494 10 l 500 18 b 493 21 494 17 493 18 l 493 29 l 506 29 b 507 13 506 25 504 17 b 519 11 510 10 517 10 l 519 18 b 514 21 517 17 514 18 l 514 29 l 519 29 l 519 35 l 514 35 z m 415 596 b 415 438 442 551 442 450 b 374 576 378 421 424 578 b 326 444 319 575 358 444 b 333 578 301 444 301 524 b 315 614 343 594 340 614 b 256 518 263 614 256 560 b 308 406 256 442 272 406 b 357 444 325 406 349 419 b 406 403 360 421 379 403 b 476 533 478 403 476 519 b 443 631 476 585 465 621 b 415 596 413 646 404 614 z m 540 397 b 593 447 571 397 588 425 b 619 403 593 429 597 403 b 694 586 685 403 664 610 b 686 478 708 575 689 525 b 728 392 683 442 692 392 b 797 728 800 392 849 592 b 604 860 763 821 688 871 b 443 721 524 849 454 785 b 511 689 432 654 486 613 b 719 756 540 778 644 818 b 754 424 826 667 788 431 b 753 540 733 419 750 525 b 704 611 761 588 735 611 b 658 561 678 611 664 596 b 639 474 647 481 636 442 b 624 611 646 543 665 611 b 594 581 604 611 597 600 b 558 438 593 563 589 438 b 544 463 544 438 544 463 b 553 554 544 501 553 533 b 526 590 553 579 540 590 b 488 492 489 590 488 507 b 540 397 488 447 501 397 z m 122 614 b 61 631 122 638 61 614 b 182 656 63 653 154 654 b 172 450 179 614 172 526 b 238 319 172 424 174 319 b 238 386 269 319 246 343 b 240 657 222 456 236 563 b 415 669 350 669 372 618 b 256 713 457 721 315 714 b 29 631 101 708 29 683 b 88 594 29 604 65 594 b 122 614 101 594 122 594 z m 532 596 b 560 635 551 596 560 619 b 531 669 560 653 550 669 b 501 635 511 669 501 651 b 532 596 501 614 511 596 z m 499 360 b 475 393 500 381 489 393 b 450 358 456 393 450 379 l 386 357 b 361 393 386 381 379 393 b 338 357 342 393 338 378 b 256 353 276 357 244 399 b 339 325 265 314 317 325 b 294 135 336 292 346 135 b 265 192 269 135 261 172 b 278 304 307 225 336 304 b 178 136 201 304 243 136 b 131 460 111 136 221 407 b 83 436 107 472 69 475 b 90 211 114 347 90 288 b 181 107 90 126 125 86 b 221 135 196 113 210 122 b 276 101 232 114 254 101 b 340 158 310 101 332 128 b 393 106 339 129 367 106 b 456 161 424 106 447 136 b 503 108 460 142 478 108 b 549 157 525 108 540 139 b 608 101 551 129 578 101 b 668 164 642 101 660 138 b 693 96 668 125 678 97 b 758 269 749 90 704 260 b 776 217 786 274 794 235 b 749 204 767 206 749 218 b 786 179 749 183 771 176 b 774 301 839 190 832 301 b 711 247 749 301 717 272 b 675 303 714 272 701 297 b 656 289 668 304 656 301 b 667 226 656 269 669 260 b 614 135 664 192 650 135 b 590 192 588 135 588 174 b 611 307 650 217 668 307 b 515 153 544 307 554 153 b 499 324 485 153 497 304 b 719 329 571 324 651 325 b 844 397 761 332 844 338 b 832 401 844 410 839 404 b 499 360 725 353 561 361 z m 388 325 l 450 325 b 401 146 447 299 447 143 b 388 325 375 147 389 297 z m 265 211 b 292 274 265 235 279 286 b 265 211 300 267 279 222 z m 593 211 b 619 275 594 226 606 272 b 628 251 629 276 632 269 b 593 211 622 233 611 219 z m 443 11 l 451 11 l 451 44 l 443 44 z m 349 42 l 340 39 l 340 35 l 338 35 l 338 29 l 340 29 b 342 13 340 24 339 17 b 354 11 344 10 350 10 l 354 18 b 349 21 350 17 349 18 l 349 29 l 354 29 l 354 35 l 349 35 z m 664 36 b 654 31 658 36 657 35 b 640 33 653 38 644 38 l 639 35 l 633 35 l 633 11 l 640 11 l 640 25 b 644 29 640 26 642 29 b 649 24 649 29 649 26 l 649 11 l 656 11 l 656 24 b 665 24 656 28 665 33 l 665 11 l 671 11 l 671 25 b 664 36 671 33 668 36 z m 428 36 b 422 33 425 36 424 35 l 421 35 l 413 35 l 413 11 l 422 11 b 422 26 422 13 422 25 b 429 24 424 31 429 29 l 429 11 l 439 11 l 439 25 b 428 36 439 33 433 36 z m 557 31 l 557 35 l 551 35 b 551 11 551 31 551 17 l 558 11 b 558 25 558 13 558 25 b 568 28 558 26 564 29 l 568 36 b 557 31 564 36 560 35 z m 468 36 b 456 22 460 36 456 31 b 481 13 456 13 469 7 l 478 18 b 465 21 475 17 465 14 l 481 21 b 468 36 481 31 475 36 z m 617 36 b 617 10 599 36 599 10 b 617 36 633 10 633 36 z m 588 24 b 601 28 588 29 597 31 l 601 35 b 601 13 571 42 572 3 l 601 18 b 588 24 597 18 588 17 z m 400 11 l 407 11 l 407 35 l 400 35 z m 236 18 l 232 35 l 225 35 l 221 18 l 218 35 l 210 35 l 217 11 l 224 11 l 228 26 l 233 11 l 240 11 l 246 35 l 239 35 z m 465 25 b 474 25 465 31 474 31 z m 617 17 b 617 29 608 17 607 29 b 617 17 624 29 624 17 z m 571 19 b 571 10 565 19 565 10 b 571 19 576 10 576 19 z m 329 19 b 329 10 324 19 324 10 b 329 19 336 10 336 19 z m 274 18 l 269 35 l 263 35 l 258 18 l 256 35 l 249 35 l 254 11 l 261 11 l 267 26 l 271 11 l 278 11 l 285 35 l 276 35 z m 311 18 l 307 35 l 301 35 l 296 18 l 293 35 l 286 35 l 292 11 l 300 11 l 304 26 l 308 11 l 317 11 l 322 35 l 315 35 z m 385 18 l 379 35 l 374 35 l 369 18 l 367 35 l 358 35 l 365 11 l 372 11 l 376 26 l 382 11 l 389 11 l 394 35 l 388 35 z m 403 44 b 403 36 396 44 396 36 b 403 44 408 36 408 44 z m 535 36 b 522 22 526 36 522 31 b 547 13 522 11 535 7 l 544 18 b 532 21 542 17 532 14 l 547 21 b 535 36 547 31 542 36 z m 532 25 b 540 25 532 31 540 31 z "},"$":{"ha":861,"x_min":0,"x_max":0,"o":"m 514 42 l 506 39 l 506 35 l 493 35 l 493 42 l 486 39 l 486 35 l 483 35 l 483 29 l 486 29 l 486 21 b 488 13 486 18 486 14 b 500 11 490 10 494 10 l 500 18 b 493 21 494 17 493 18 l 493 29 l 506 29 b 507 13 506 25 504 17 b 519 11 510 10 517 10 l 519 18 b 514 21 517 17 514 18 l 514 29 l 519 29 l 519 35 l 514 35 z m 415 596 b 415 438 442 551 442 450 b 374 576 378 421 424 578 b 326 444 319 575 358 444 b 333 578 301 444 301 524 b 315 614 343 594 340 614 b 256 518 263 614 256 560 b 308 406 256 442 272 406 b 357 444 325 406 349 419 b 406 403 360 421 379 403 b 476 533 478 403 476 519 b 443 631 476 585 465 621 b 415 596 413 646 404 614 z m 540 397 b 593 447 571 397 588 425 b 619 403 593 429 597 403 b 694 586 685 403 664 610 b 686 478 708 575 689 525 b 728 392 683 442 692 392 b 797 728 800 392 849 592 b 604 860 763 821 688 871 b 443 721 524 849 454 785 b 511 689 432 654 486 613 b 719 756 540 778 644 818 b 754 424 826 667 788 431 b 753 540 733 419 750 525 b 704 611 761 588 735 611 b 658 561 678 611 664 596 b 639 474 647 481 636 442 b 624 611 646 543 665 611 b 594 581 604 611 597 600 b 558 438 593 563 589 438 b 544 463 544 438 544 463 b 553 554 544 501 553 533 b 526 590 553 579 540 590 b 488 492 489 590 488 507 b 540 397 488 447 501 397 z m 122 614 b 61 631 122 638 61 614 b 182 656 63 653 154 654 b 172 450 179 614 172 526 b 238 319 172 424 174 319 b 238 386 269 319 246 343 b 240 657 222 456 236 563 b 415 669 350 669 372 618 b 256 713 457 721 315 714 b 29 631 101 708 29 683 b 88 594 29 604 65 594 b 122 614 101 594 122 594 z m 532 596 b 560 635 551 596 560 619 b 531 669 560 653 550 669 b 501 635 511 669 501 651 b 532 596 501 614 511 596 z m 499 360 b 475 393 500 381 489 393 b 450 358 456 393 450 379 l 386 357 b 361 393 386 381 379 393 b 338 357 342 393 338 378 b 256 353 276 357 244 399 b 339 325 265 314 317 325 b 294 135 336 292 346 135 b 265 192 269 135 261 172 b 278 304 307 225 336 304 b 178 136 201 304 243 136 b 131 460 111 136 221 407 b 83 436 107 472 69 475 b 90 211 114 347 90 288 b 181 107 90 126 125 86 b 221 135 196 113 210 122 b 276 101 232 114 254 101 b 340 158 310 101 332 128 b 393 106 339 129 367 106 b 456 161 424 106 447 136 b 503 108 460 142 478 108 b 549 157 525 108 540 139 b 608 101 551 129 578 101 b 668 164 642 101 660 138 b 693 96 668 125 678 97 b 758 269 749 90 704 260 b 776 217 786 274 794 235 b 749 204 767 206 749 218 b 786 179 749 183 771 176 b 774 301 839 190 832 301 b 711 247 749 301 717 272 b 675 303 714 272 701 297 b 656 289 668 304 656 301 b 667 226 656 269 669 260 b 614 135 664 192 650 135 b 590 192 588 135 588 174 b 611 307 650 217 668 307 b 515 153 544 307 554 153 b 499 324 485 153 497 304 b 719 329 571 324 651 325 b 844 397 761 332 844 338 b 832 401 844 410 839 404 b 499 360 725 353 561 361 z m 388 325 l 450 325 b 401 146 447 299 447 143 b 388 325 375 147 389 297 z m 265 211 b 292 274 265 235 279 286 b 265 211 300 267 279 222 z m 593 211 b 619 275 594 226 606 272 b 628 251 629 276 632 269 b 593 211 622 233 611 219 z m 443 11 l 451 11 l 451 44 l 443 44 z m 349 42 l 340 39 l 340 35 l 338 35 l 338 29 l 340 29 b 342 13 340 24 339 17 b 354 11 344 10 350 10 l 354 18 b 349 21 350 17 349 18 l 349 29 l 354 29 l 354 35 l 349 35 z m 664 36 b 654 31 658 36 657 35 b 640 33 653 38 644 38 l 639 35 l 633 35 l 633 11 l 640 11 l 640 25 b 644 29 640 26 642 29 b 649 24 649 29 649 26 l 649 11 l 656 11 l 656 24 b 665 24 656 28 665 33 l 665 11 l 671 11 l 671 25 b 664 36 671 33 668 36 z m 428 36 b 422 33 425 36 424 35 l 421 35 l 413 35 l 413 11 l 422 11 b 422 26 422 13 422 25 b 429 24 424 31 429 29 l 429 11 l 439 11 l 439 25 b 428 36 439 33 433 36 z m 557 31 l 557 35 l 551 35 b 551 11 551 31 551 17 l 558 11 b 558 25 558 13 558 25 b 568 28 558 26 564 29 l 568 36 b 557 31 564 36 560 35 z m 468 36 b 456 22 460 36 456 31 b 481 13 456 13 469 7 l 478 18 b 465 21 475 17 465 14 l 481 21 b 468 36 481 31 475 36 z m 617 36 b 617 10 599 36 599 10 b 617 36 633 10 633 36 z m 588 24 b 601 28 588 29 597 31 l 601 35 b 601 13 571 42 572 3 l 601 18 b 588 24 597 18 588 17 z m 400 11 l 407 11 l 407 35 l 400 35 z m 236 18 l 232 35 l 225 35 l 221 18 l 218 35 l 210 35 l 217 11 l 224 11 l 228 26 l 233 11 l 240 11 l 246 35 l 239 35 z m 465 25 b 474 25 465 31 474 31 z m 617 17 b 617 29 608 17 607 29 b 617 17 624 29 624 17 z m 571 19 b 571 10 565 19 565 10 b 571 19 576 10 576 19 z m 329 19 b 329 10 324 19 324 10 b 329 19 336 10 336 19 z m 274 18 l 269 35 l 263 35 l 258 18 l 256 35 l 249 35 l 254 11 l 261 11 l 267 26 l 271 11 l 278 11 l 285 35 l 276 35 z m 311 18 l 307 35 l 301 35 l 296 18 l 293 35 l 286 35 l 292 11 l 300 11 l 304 26 l 308 11 l 317 11 l 322 35 l 315 35 z m 385 18 l 379 35 l 374 35 l 369 18 l 367 35 l 358 35 l 365 11 l 372 11 l 376 26 l 382 11 l 389 11 l 394 35 l 388 35 z m 403 44 b 403 36 396 44 396 36 b 403 44 408 36 408 44 z m 535 36 b 522 22 526 36 522 31 b 547 13 522 11 535 7 l 544 18 b 532 21 542 17 532 14 l 547 21 b 535 36 547 31 542 36 z m 532 25 b 540 25 532 31 540 31 z "},"":{"ha":861,"x_min":0,"x_max":0,"o":"m 514 42 l 506 39 l 506 35 l 493 35 l 493 42 l 486 39 l 486 35 l 483 35 l 483 29 l 486 29 l 486 21 b 488 13 486 18 486 14 b 500 11 490 10 494 10 l 500 18 b 493 21 494 17 493 18 l 493 29 l 506 29 b 507 13 506 25 504 17 b 519 11 510 10 517 10 l 519 18 b 514 21 517 17 514 18 l 514 29 l 519 29 l 519 35 l 514 35 z m 415 596 b 415 438 442 551 442 450 b 374 576 378 421 424 578 b 326 444 319 575 358 444 b 333 578 301 444 301 524 b 315 614 343 594 340 614 b 256 518 263 614 256 560 b 308 406 256 442 272 406 b 357 444 325 406 349 419 b 406 403 360 421 379 403 b 476 533 478 403 476 519 b 443 631 476 585 465 621 b 415 596 413 646 404 614 z m 540 397 b 593 447 571 397 588 425 b 619 403 593 429 597 403 b 694 586 685 403 664 610 b 686 478 708 575 689 525 b 728 392 683 442 692 392 b 797 728 800 392 849 592 b 604 860 763 821 688 871 b 443 721 524 849 454 785 b 511 689 432 654 486 613 b 719 756 540 778 644 818 b 754 424 826 667 788 431 b 753 540 733 419 750 525 b 704 611 761 588 735 611 b 658 561 678 611 664 596 b 639 474 647 481 636 442 b 624 611 646 543 665 611 b 594 581 604 611 597 600 b 558 438 593 563 589 438 b 544 463 544 438 544 463 b 553 554 544 501 553 533 b 526 590 553 579 540 590 b 488 492 489 590 488 507 b 540 397 488 447 501 397 z m 122 614 b 61 631 122 638 61 614 b 182 656 63 653 154 654 b 172 450 179 614 172 526 b 238 319 172 424 174 319 b 238 386 269 319 246 343 b 240 657 222 456 236 563 b 415 669 350 669 372 618 b 256 713 457 721 315 714 b 29 631 101 708 29 683 b 88 594 29 604 65 594 b 122 614 101 594 122 594 z m 532 596 b 560 635 551 596 560 619 b 531 669 560 653 550 669 b 501 635 511 669 501 651 b 532 596 501 614 511 596 z m 499 360 b 475 393 500 381 489 393 b 450 358 456 393 450 379 l 386 357 b 361 393 386 381 379 393 b 338 357 342 393 338 378 b 256 353 276 357 244 399 b 339 325 265 314 317 325 b 294 135 336 292 346 135 b 265 192 269 135 261 172 b 278 304 307 225 336 304 b 178 136 201 304 243 136 b 131 460 111 136 221 407 b 83 436 107 472 69 475 b 90 211 114 347 90 288 b 181 107 90 126 125 86 b 221 135 196 113 210 122 b 276 101 232 114 254 101 b 340 158 310 101 332 128 b 393 106 339 129 367 106 b 456 161 424 106 447 136 b 503 108 460 142 478 108 b 549 157 525 108 540 139 b 608 101 551 129 578 101 b 668 164 642 101 660 138 b 693 96 668 125 678 97 b 758 269 749 90 704 260 b 776 217 786 274 794 235 b 749 204 767 206 749 218 b 786 179 749 183 771 176 b 774 301 839 190 832 301 b 711 247 749 301 717 272 b 675 303 714 272 701 297 b 656 289 668 304 656 301 b 667 226 656 269 669 260 b 614 135 664 192 650 135 b 590 192 588 135 588 174 b 611 307 650 217 668 307 b 515 153 544 307 554 153 b 499 324 485 153 497 304 b 719 329 571 324 651 325 b 844 397 761 332 844 338 b 832 401 844 410 839 404 b 499 360 725 353 561 361 z m 388 325 l 450 325 b 401 146 447 299 447 143 b 388 325 375 147 389 297 z m 265 211 b 292 274 265 235 279 286 b 265 211 300 267 279 222 z m 593 211 b 619 275 594 226 606 272 b 628 251 629 276 632 269 b 593 211 622 233 611 219 z m 443 11 l 451 11 l 451 44 l 443 44 z m 349 42 l 340 39 l 340 35 l 338 35 l 338 29 l 340 29 b 342 13 340 24 339 17 b 354 11 344 10 350 10 l 354 18 b 349 21 350 17 349 18 l 349 29 l 354 29 l 354 35 l 349 35 z m 664 36 b 654 31 658 36 657 35 b 640 33 653 38 644 38 l 639 35 l 633 35 l 633 11 l 640 11 l 640 25 b 644 29 640 26 642 29 b 649 24 649 29 649 26 l 649 11 l 656 11 l 656 24 b 665 24 656 28 665 33 l 665 11 l 671 11 l 671 25 b 664 36 671 33 668 36 z m 428 36 b 422 33 425 36 424 35 l 421 35 l 413 35 l 413 11 l 422 11 b 422 26 422 13 422 25 b 429 24 424 31 429 29 l 429 11 l 439 11 l 439 25 b 428 36 439 33 433 36 z m 557 31 l 557 35 l 551 35 b 551 11 551 31 551 17 l 558 11 b 558 25 558 13 558 25 b 568 28 558 26 564 29 l 568 36 b 557 31 564 36 560 35 z m 468 36 b 456 22 460 36 456 31 b 481 13 456 13 469 7 l 478 18 b 465 21 475 17 465 14 l 481 21 b 468 36 481 31 475 36 z m 617 36 b 617 10 599 36 599 10 b 617 36 633 10 633 36 z m 588 24 b 601 28 588 29 597 31 l 601 35 b 601 13 571 42 572 3 l 601 18 b 588 24 597 18 588 17 z m 400 11 l 407 11 l 407 35 l 400 35 z m 236 18 l 232 35 l 225 35 l 221 18 l 218 35 l 210 35 l 217 11 l 224 11 l 228 26 l 233 11 l 240 11 l 246 35 l 239 35 z m 465 25 b 474 25 465 31 474 31 z m 617 17 b 617 29 608 17 607 29 b 617 17 624 29 624 17 z m 571 19 b 571 10 565 19 565 10 b 571 19 576 10 576 19 z m 329 19 b 329 10 324 19 324 10 b 329 19 336 10 336 19 z m 274 18 l 269 35 l 263 35 l 258 18 l 256 35 l 249 35 l 254 11 l 261 11 l 267 26 l 271 11 l 278 11 l 285 35 l 276 35 z m 311 18 l 307 35 l 301 35 l 296 18 l 293 35 l 286 35 l 292 11 l 300 11 l 304 26 l 308 11 l 317 11 l 322 35 l 315 35 z m 385 18 l 379 35 l 374 35 l 369 18 l 367 35 l 358 35 l 365 11 l 372 11 l 376 26 l 382 11 l 389 11 l 394 35 l 388 35 z m 403 44 b 403 36 396 44 396 36 b 403 44 408 36 408 44 z m 535 36 b 522 22 526 36 522 31 b 547 13 522 11 535 7 l 544 18 b 532 21 542 17 532 14 l 547 21 b 535 36 547 31 542 36 z m 532 25 b 540 25 532 31 540 31 z "},"=":{"ha":807,"x_min":0,"x_max":0,"o":"m 360 450 b 772 596 643 443 772 433 b 331 725 772 764 565 725 b 36 600 254 725 38 749 b 360 450 35 428 243 453 z m 360 99 b 772 244 643 92 772 82 b 331 374 772 413 565 374 b 36 249 254 374 38 397 b 360 99 35 76 243 101 z "},"+":{"ha":861,"x_min":0,"x_max":0,"o":"m 514 42 l 506 39 l 506 35 l 493 35 l 493 42 l 486 39 l 486 35 l 483 35 l 483 29 l 486 29 l 486 21 b 488 13 486 18 486 14 b 500 11 490 10 494 10 l 500 18 b 493 21 494 17 493 18 l 493 29 l 506 29 b 507 13 506 25 504 17 b 519 11 510 10 517 10 l 519 18 b 514 21 517 17 514 18 l 514 29 l 519 29 l 519 35 l 514 35 z m 415 596 b 415 438 442 551 442 450 b 374 576 378 421 424 578 b 326 444 319 575 358 444 b 333 578 301 444 301 524 b 315 614 343 594 340 614 b 256 518 263 614 256 560 b 308 406 256 442 272 406 b 357 444 325 406 349 419 b 406 403 360 421 379 403 b 476 533 478 403 476 519 b 443 631 476 585 465 621 b 415 596 413 646 404 614 z m 540 397 b 593 447 571 397 588 425 b 619 403 593 429 597 403 b 694 586 685 403 664 610 b 686 478 708 575 689 525 b 728 392 683 442 692 392 b 797 728 800 392 849 592 b 604 860 763 821 688 871 b 443 721 524 849 454 785 b 511 689 432 654 486 613 b 719 756 540 778 644 818 b 754 424 826 667 788 431 b 753 540 733 419 750 525 b 704 611 761 588 735 611 b 658 561 678 611 664 596 b 639 474 647 481 636 442 b 624 611 646 543 665 611 b 594 581 604 611 597 600 b 558 438 593 563 589 438 b 544 463 544 438 544 463 b 553 554 544 501 553 533 b 526 590 553 579 540 590 b 488 492 489 590 488 507 b 540 397 488 447 501 397 z m 122 614 b 61 631 122 638 61 614 b 182 656 63 653 154 654 b 172 450 179 614 172 526 b 238 319 172 424 174 319 b 238 386 269 319 246 343 b 240 657 222 456 236 563 b 415 669 350 669 372 618 b 256 713 457 721 315 714 b 29 631 101 708 29 683 b 88 594 29 604 65 594 b 122 614 101 594 122 594 z m 532 596 b 560 635 551 596 560 619 b 531 669 560 653 550 669 b 501 635 511 669 501 651 b 532 596 501 614 511 596 z m 499 360 b 475 393 500 381 489 393 b 450 358 456 393 450 379 l 386 357 b 361 393 386 381 379 393 b 338 357 342 393 338 378 b 256 353 276 357 244 399 b 339 325 265 314 317 325 b 294 135 336 292 346 135 b 265 192 269 135 261 172 b 278 304 307 225 336 304 b 178 136 201 304 243 136 b 131 460 111 136 221 407 b 83 436 107 472 69 475 b 90 211 114 347 90 288 b 181 107 90 126 125 86 b 221 135 196 113 210 122 b 276 101 232 114 254 101 b 340 158 310 101 332 128 b 393 106 339 129 367 106 b 456 161 424 106 447 136 b 503 108 460 142 478 108 b 549 157 525 108 540 139 b 608 101 551 129 578 101 b 668 164 642 101 660 138 b 693 96 668 125 678 97 b 758 269 749 90 704 260 b 776 217 786 274 794 235 b 749 204 767 206 749 218 b 786 179 749 183 771 176 b 774 301 839 190 832 301 b 711 247 749 301 717 272 b 675 303 714 272 701 297 b 656 289 668 304 656 301 b 667 226 656 269 669 260 b 614 135 664 192 650 135 b 590 192 588 135 588 174 b 611 307 650 217 668 307 b 515 153 544 307 554 153 b 499 324 485 153 497 304 b 719 329 571 324 651 325 b 844 397 761 332 844 338 b 832 401 844 410 839 404 b 499 360 725 353 561 361 z m 388 325 l 450 325 b 401 146 447 299 447 143 b 388 325 375 147 389 297 z m 265 211 b 292 274 265 235 279 286 b 265 211 300 267 279 222 z m 593 211 b 619 275 594 226 606 272 b 628 251 629 276 632 269 b 593 211 622 233 611 219 z m 443 11 l 451 11 l 451 44 l 443 44 z m 349 42 l 340 39 l 340 35 l 338 35 l 338 29 l 340 29 b 342 13 340 24 339 17 b 354 11 344 10 350 10 l 354 18 b 349 21 350 17 349 18 l 349 29 l 354 29 l 354 35 l 349 35 z m 664 36 b 654 31 658 36 657 35 b 640 33 653 38 644 38 l 639 35 l 633 35 l 633 11 l 640 11 l 640 25 b 644 29 640 26 642 29 b 649 24 649 29 649 26 l 649 11 l 656 11 l 656 24 b 665 24 656 28 665 33 l 665 11 l 671 11 l 671 25 b 664 36 671 33 668 36 z m 428 36 b 422 33 425 36 424 35 l 421 35 l 413 35 l 413 11 l 422 11 b 422 26 422 13 422 25 b 429 24 424 31 429 29 l 429 11 l 439 11 l 439 25 b 428 36 439 33 433 36 z m 557 31 l 557 35 l 551 35 b 551 11 551 31 551 17 l 558 11 b 558 25 558 13 558 25 b 568 28 558 26 564 29 l 568 36 b 557 31 564 36 560 35 z m 468 36 b 456 22 460 36 456 31 b 481 13 456 13 469 7 l 478 18 b 465 21 475 17 465 14 l 481 21 b 468 36 481 31 475 36 z m 617 36 b 617 10 599 36 599 10 b 617 36 633 10 633 36 z m 588 24 b 601 28 588 29 597 31 l 601 35 b 601 13 571 42 572 3 l 601 18 b 588 24 597 18 588 17 z m 400 11 l 407 11 l 407 35 l 400 35 z m 236 18 l 232 35 l 225 35 l 221 18 l 218 35 l 210 35 l 217 11 l 224 11 l 228 26 l 233 11 l 240 11 l 246 35 l 239 35 z m 465 25 b 474 25 465 31 474 31 z m 617 17 b 617 29 608 17 607 29 b 617 17 624 29 624 17 z m 571 19 b 571 10 565 19 565 10 b 571 19 576 10 576 19 z m 329 19 b 329 10 324 19 324 10 b 329 19 336 10 336 19 z m 274 18 l 269 35 l 263 35 l 258 18 l 256 35 l 249 35 l 254 11 l 261 11 l 267 26 l 271 11 l 278 11 l 285 35 l 276 35 z m 311 18 l 307 35 l 301 35 l 296 18 l 293 35 l 286 35 l 292 11 l 300 11 l 304 26 l 308 11 l 317 11 l 322 35 l 315 35 z m 385 18 l 379 35 l 374 35 l 369 18 l 367 35 l 358 35 l 365 11 l 372 11 l 376 26 l 382 11 l 389 11 l 394 35 l 388 35 z m 403 44 b 403 36 396 44 396 36 b 403 44 408 36 408 44 z m 535 36 b 522 22 526 36 522 31 b 547 13 522 11 535 7 l 544 18 b 532 21 542 17 532 14 l 547 21 b 535 36 547 31 542 36 z m 532 25 b 540 25 532 31 540 31 z "},"%":{"ha":861,"x_min":0,"x_max":0,"o":"m 514 42 l 506 39 l 506 35 l 493 35 l 493 42 l 486 39 l 486 35 l 483 35 l 483 29 l 486 29 l 486 21 b 488 13 486 18 486 14 b 500 11 490 10 494 10 l 500 18 b 493 21 494 17 493 18 l 493 29 l 506 29 b 507 13 506 25 504 17 b 519 11 510 10 517 10 l 519 18 b 514 21 517 17 514 18 l 514 29 l 519 29 l 519 35 l 514 35 z m 415 596 b 415 438 442 551 442 450 b 374 576 378 421 424 578 b 326 444 319 575 358 444 b 333 578 301 444 301 524 b 315 614 343 594 340 614 b 256 518 263 614 256 560 b 308 406 256 442 272 406 b 357 444 325 406 349 419 b 406 403 360 421 379 403 b 476 533 478 403 476 519 b 443 631 476 585 465 621 b 415 596 413 646 404 614 z m 540 397 b 593 447 571 397 588 425 b 619 403 593 429 597 403 b 694 586 685 403 664 610 b 686 478 708 575 689 525 b 728 392 683 442 692 392 b 797 728 800 392 849 592 b 604 860 763 821 688 871 b 443 721 524 849 454 785 b 511 689 432 654 486 613 b 719 756 540 778 644 818 b 754 424 826 667 788 431 b 753 540 733 419 750 525 b 704 611 761 588 735 611 b 658 561 678 611 664 596 b 639 474 647 481 636 442 b 624 611 646 543 665 611 b 594 581 604 611 597 600 b 558 438 593 563 589 438 b 544 463 544 438 544 463 b 553 554 544 501 553 533 b 526 590 553 579 540 590 b 488 492 489 590 488 507 b 540 397 488 447 501 397 z m 122 614 b 61 631 122 638 61 614 b 182 656 63 653 154 654 b 172 450 179 614 172 526 b 238 319 172 424 174 319 b 238 386 269 319 246 343 b 240 657 222 456 236 563 b 415 669 350 669 372 618 b 256 713 457 721 315 714 b 29 631 101 708 29 683 b 88 594 29 604 65 594 b 122 614 101 594 122 594 z m 532 596 b 560 635 551 596 560 619 b 531 669 560 653 550 669 b 501 635 511 669 501 651 b 532 596 501 614 511 596 z m 499 360 b 475 393 500 381 489 393 b 450 358 456 393 450 379 l 386 357 b 361 393 386 381 379 393 b 338 357 342 393 338 378 b 256 353 276 357 244 399 b 339 325 265 314 317 325 b 294 135 336 292 346 135 b 265 192 269 135 261 172 b 278 304 307 225 336 304 b 178 136 201 304 243 136 b 131 460 111 136 221 407 b 83 436 107 472 69 475 b 90 211 114 347 90 288 b 181 107 90 126 125 86 b 221 135 196 113 210 122 b 276 101 232 114 254 101 b 340 158 310 101 332 128 b 393 106 339 129 367 106 b 456 161 424 106 447 136 b 503 108 460 142 478 108 b 549 157 525 108 540 139 b 608 101 551 129 578 101 b 668 164 642 101 660 138 b 693 96 668 125 678 97 b 758 269 749 90 704 260 b 776 217 786 274 794 235 b 749 204 767 206 749 218 b 786 179 749 183 771 176 b 774 301 839 190 832 301 b 711 247 749 301 717 272 b 675 303 714 272 701 297 b 656 289 668 304 656 301 b 667 226 656 269 669 260 b 614 135 664 192 650 135 b 590 192 588 135 588 174 b 611 307 650 217 668 307 b 515 153 544 307 554 153 b 499 324 485 153 497 304 b 719 329 571 324 651 325 b 844 397 761 332 844 338 b 832 401 844 410 839 404 b 499 360 725 353 561 361 z m 388 325 l 450 325 b 401 146 447 299 447 143 b 388 325 375 147 389 297 z m 265 211 b 292 274 265 235 279 286 b 265 211 300 267 279 222 z m 593 211 b 619 275 594 226 606 272 b 628 251 629 276 632 269 b 593 211 622 233 611 219 z m 443 11 l 451 11 l 451 44 l 443 44 z m 349 42 l 340 39 l 340 35 l 338 35 l 338 29 l 340 29 b 342 13 340 24 339 17 b 354 11 344 10 350 10 l 354 18 b 349 21 350 17 349 18 l 349 29 l 354 29 l 354 35 l 349 35 z m 664 36 b 654 31 658 36 657 35 b 640 33 653 38 644 38 l 639 35 l 633 35 l 633 11 l 640 11 l 640 25 b 644 29 640 26 642 29 b 649 24 649 29 649 26 l 649 11 l 656 11 l 656 24 b 665 24 656 28 665 33 l 665 11 l 671 11 l 671 25 b 664 36 671 33 668 36 z m 428 36 b 422 33 425 36 424 35 l 421 35 l 413 35 l 413 11 l 422 11 b 422 26 422 13 422 25 b 429 24 424 31 429 29 l 429 11 l 439 11 l 439 25 b 428 36 439 33 433 36 z m 557 31 l 557 35 l 551 35 b 551 11 551 31 551 17 l 558 11 b 558 25 558 13 558 25 b 568 28 558 26 564 29 l 568 36 b 557 31 564 36 560 35 z m 468 36 b 456 22 460 36 456 31 b 481 13 456 13 469 7 l 478 18 b 465 21 475 17 465 14 l 481 21 b 468 36 481 31 475 36 z m 617 36 b 617 10 599 36 599 10 b 617 36 633 10 633 36 z m 588 24 b 601 28 588 29 597 31 l 601 35 b 601 13 571 42 572 3 l 601 18 b 588 24 597 18 588 17 z m 400 11 l 407 11 l 407 35 l 400 35 z m 236 18 l 232 35 l 225 35 l 221 18 l 218 35 l 210 35 l 217 11 l 224 11 l 228 26 l 233 11 l 240 11 l 246 35 l 239 35 z m 465 25 b 474 25 465 31 474 31 z m 617 17 b 617 29 608 17 607 29 b 617 17 624 29 624 17 z m 571 19 b 571 10 565 19 565 10 b 571 19 576 10 576 19 z m 329 19 b 329 10 324 19 324 10 b 329 19 336 10 336 19 z m 274 18 l 269 35 l 263 35 l 258 18 l 256 35 l 249 35 l 254 11 l 261 11 l 267 26 l 271 11 l 278 11 l 285 35 l 276 35 z m 311 18 l 307 35 l 301 35 l 296 18 l 293 35 l 286 35 l 292 11 l 300 11 l 304 26 l 308 11 l 317 11 l 322 35 l 315 35 z m 385 18 l 379 35 l 374 35 l 369 18 l 367 35 l 358 35 l 365 11 l 372 11 l 376 26 l 382 11 l 389 11 l 394 35 l 388 35 z m 403 44 b 403 36 396 44 396 36 b 403 44 408 36 408 44 z m 535 36 b 522 22 526 36 522 31 b 547 13 522 11 535 7 l 544 18 b 532 21 542 17 532 14 l 547 21 b 535 36 547 31 542 36 z m 532 25 b 540 25 532 31 540 31 z "},"":{"ha":861,"x_min":0,"x_max":0,"o":"m 514 42 l 506 39 l 506 35 l 493 35 l 493 42 l 486 39 l 486 35 l 483 35 l 483 29 l 486 29 l 486 21 b 488 13 486 18 486 14 b 500 11 490 10 494 10 l 500 18 b 493 21 494 17 493 18 l 493 29 l 506 29 b 507 13 506 25 504 17 b 519 11 510 10 517 10 l 519 18 b 514 21 517 17 514 18 l 514 29 l 519 29 l 519 35 l 514 35 z m 415 596 b 415 438 442 551 442 450 b 374 576 378 421 424 578 b 326 444 319 575 358 444 b 333 578 301 444 301 524 b 315 614 343 594 340 614 b 256 518 263 614 256 560 b 308 406 256 442 272 406 b 357 444 325 406 349 419 b 406 403 360 421 379 403 b 476 533 478 403 476 519 b 443 631 476 585 465 621 b 415 596 413 646 404 614 z m 540 397 b 593 447 571 397 588 425 b 619 403 593 429 597 403 b 694 586 685 403 664 610 b 686 478 708 575 689 525 b 728 392 683 442 692 392 b 797 728 800 392 849 592 b 604 860 763 821 688 871 b 443 721 524 849 454 785 b 511 689 432 654 486 613 b 719 756 540 778 644 818 b 754 424 826 667 788 431 b 753 540 733 419 750 525 b 704 611 761 588 735 611 b 658 561 678 611 664 596 b 639 474 647 481 636 442 b 624 611 646 543 665 611 b 594 581 604 611 597 600 b 558 438 593 563 589 438 b 544 463 544 438 544 463 b 553 554 544 501 553 533 b 526 590 553 579 540 590 b 488 492 489 590 488 507 b 540 397 488 447 501 397 z m 122 614 b 61 631 122 638 61 614 b 182 656 63 653 154 654 b 172 450 179 614 172 526 b 238 319 172 424 174 319 b 238 386 269 319 246 343 b 240 657 222 456 236 563 b 415 669 350 669 372 618 b 256 713 457 721 315 714 b 29 631 101 708 29 683 b 88 594 29 604 65 594 b 122 614 101 594 122 594 z m 532 596 b 560 635 551 596 560 619 b 531 669 560 653 550 669 b 501 635 511 669 501 651 b 532 596 501 614 511 596 z m 499 360 b 475 393 500 381 489 393 b 450 358 456 393 450 379 l 386 357 b 361 393 386 381 379 393 b 338 357 342 393 338 378 b 256 353 276 357 244 399 b 339 325 265 314 317 325 b 294 135 336 292 346 135 b 265 192 269 135 261 172 b 278 304 307 225 336 304 b 178 136 201 304 243 136 b 131 460 111 136 221 407 b 83 436 107 472 69 475 b 90 211 114 347 90 288 b 181 107 90 126 125 86 b 221 135 196 113 210 122 b 276 101 232 114 254 101 b 340 158 310 101 332 128 b 393 106 339 129 367 106 b 456 161 424 106 447 136 b 503 108 460 142 478 108 b 549 157 525 108 540 139 b 608 101 551 129 578 101 b 668 164 642 101 660 138 b 693 96 668 125 678 97 b 758 269 749 90 704 260 b 776 217 786 274 794 235 b 749 204 767 206 749 218 b 786 179 749 183 771 176 b 774 301 839 190 832 301 b 711 247 749 301 717 272 b 675 303 714 272 701 297 b 656 289 668 304 656 301 b 667 226 656 269 669 260 b 614 135 664 192 650 135 b 590 192 588 135 588 174 b 611 307 650 217 668 307 b 515 153 544 307 554 153 b 499 324 485 153 497 304 b 719 329 571 324 651 325 b 844 397 761 332 844 338 b 832 401 844 410 839 404 b 499 360 725 353 561 361 z m 388 325 l 450 325 b 401 146 447 299 447 143 b 388 325 375 147 389 297 z m 265 211 b 292 274 265 235 279 286 b 265 211 300 267 279 222 z m 593 211 b 619 275 594 226 606 272 b 628 251 629 276 632 269 b 593 211 622 233 611 219 z m 443 11 l 451 11 l 451 44 l 443 44 z m 349 42 l 340 39 l 340 35 l 338 35 l 338 29 l 340 29 b 342 13 340 24 339 17 b 354 11 344 10 350 10 l 354 18 b 349 21 350 17 349 18 l 349 29 l 354 29 l 354 35 l 349 35 z m 664 36 b 654 31 658 36 657 35 b 640 33 653 38 644 38 l 639 35 l 633 35 l 633 11 l 640 11 l 640 25 b 644 29 640 26 642 29 b 649 24 649 29 649 26 l 649 11 l 656 11 l 656 24 b 665 24 656 28 665 33 l 665 11 l 671 11 l 671 25 b 664 36 671 33 668 36 z m 428 36 b 422 33 425 36 424 35 l 421 35 l 413 35 l 413 11 l 422 11 b 422 26 422 13 422 25 b 429 24 424 31 429 29 l 429 11 l 439 11 l 439 25 b 428 36 439 33 433 36 z m 557 31 l 557 35 l 551 35 b 551 11 551 31 551 17 l 558 11 b 558 25 558 13 558 25 b 568 28 558 26 564 29 l 568 36 b 557 31 564 36 560 35 z m 468 36 b 456 22 460 36 456 31 b 481 13 456 13 469 7 l 478 18 b 465 21 475 17 465 14 l 481 21 b 468 36 481 31 475 36 z m 617 36 b 617 10 599 36 599 10 b 617 36 633 10 633 36 z m 588 24 b 601 28 588 29 597 31 l 601 35 b 601 13 571 42 572 3 l 601 18 b 588 24 597 18 588 17 z m 400 11 l 407 11 l 407 35 l 400 35 z m 236 18 l 232 35 l 225 35 l 221 18 l 218 35 l 210 35 l 217 11 l 224 11 l 228 26 l 233 11 l 240 11 l 246 35 l 239 35 z m 465 25 b 474 25 465 31 474 31 z m 617 17 b 617 29 608 17 607 29 b 617 17 624 29 624 17 z m 571 19 b 571 10 565 19 565 10 b 571 19 576 10 576 19 z m 329 19 b 329 10 324 19 324 10 b 329 19 336 10 336 19 z m 274 18 l 269 35 l 263 35 l 258 18 l 256 35 l 249 35 l 254 11 l 261 11 l 267 26 l 271 11 l 278 11 l 285 35 l 276 35 z m 311 18 l 307 35 l 301 35 l 296 18 l 293 35 l 286 35 l 292 11 l 300 11 l 304 26 l 308 11 l 317 11 l 322 35 l 315 35 z m 385 18 l 379 35 l 374 35 l 369 18 l 367 35 l 358 35 l 365 11 l 372 11 l 376 26 l 382 11 l 389 11 l 394 35 l 388 35 z m 403 44 b 403 36 396 44 396 36 b 403 44 408 36 408 44 z m 535 36 b 522 22 526 36 522 31 b 547 13 522 11 535 7 l 544 18 b 532 21 542 17 532 14 l 547 21 b 535 36 547 31 542 36 z m 532 25 b 540 25 532 31 540 31 z "},"":{"ha":861,"x_min":0,"x_max":0,"o":"m 514 42 l 506 39 l 506 35 l 493 35 l 493 42 l 486 39 l 486 35 l 483 35 l 483 29 l 486 29 l 486 21 b 488 13 486 18 486 14 b 500 11 490 10 494 10 l 500 18 b 493 21 494 17 493 18 l 493 29 l 506 29 b 507 13 506 25 504 17 b 519 11 510 10 517 10 l 519 18 b 514 21 517 17 514 18 l 514 29 l 519 29 l 519 35 l 514 35 z m 415 596 b 415 438 442 551 442 450 b 374 576 378 421 424 578 b 326 444 319 575 358 444 b 333 578 301 444 301 524 b 315 614 343 594 340 614 b 256 518 263 614 256 560 b 308 406 256 442 272 406 b 357 444 325 406 349 419 b 406 403 360 421 379 403 b 476 533 478 403 476 519 b 443 631 476 585 465 621 b 415 596 413 646 404 614 z m 540 397 b 593 447 571 397 588 425 b 619 403 593 429 597 403 b 694 586 685 403 664 610 b 686 478 708 575 689 525 b 728 392 683 442 692 392 b 797 728 800 392 849 592 b 604 860 763 821 688 871 b 443 721 524 849 454 785 b 511 689 432 654 486 613 b 719 756 540 778 644 818 b 754 424 826 667 788 431 b 753 540 733 419 750 525 b 704 611 761 588 735 611 b 658 561 678 611 664 596 b 639 474 647 481 636 442 b 624 611 646 543 665 611 b 594 581 604 611 597 600 b 558 438 593 563 589 438 b 544 463 544 438 544 463 b 553 554 544 501 553 533 b 526 590 553 579 540 590 b 488 492 489 590 488 507 b 540 397 488 447 501 397 z m 122 614 b 61 631 122 638 61 614 b 182 656 63 653 154 654 b 172 450 179 614 172 526 b 238 319 172 424 174 319 b 238 386 269 319 246 343 b 240 657 222 456 236 563 b 415 669 350 669 372 618 b 256 713 457 721 315 714 b 29 631 101 708 29 683 b 88 594 29 604 65 594 b 122 614 101 594 122 594 z m 532 596 b 560 635 551 596 560 619 b 531 669 560 653 550 669 b 501 635 511 669 501 651 b 532 596 501 614 511 596 z m 499 360 b 475 393 500 381 489 393 b 450 358 456 393 450 379 l 386 357 b 361 393 386 381 379 393 b 338 357 342 393 338 378 b 256 353 276 357 244 399 b 339 325 265 314 317 325 b 294 135 336 292 346 135 b 265 192 269 135 261 172 b 278 304 307 225 336 304 b 178 136 201 304 243 136 b 131 460 111 136 221 407 b 83 436 107 472 69 475 b 90 211 114 347 90 288 b 181 107 90 126 125 86 b 221 135 196 113 210 122 b 276 101 232 114 254 101 b 340 158 310 101 332 128 b 393 106 339 129 367 106 b 456 161 424 106 447 136 b 503 108 460 142 478 108 b 549 157 525 108 540 139 b 608 101 551 129 578 101 b 668 164 642 101 660 138 b 693 96 668 125 678 97 b 758 269 749 90 704 260 b 776 217 786 274 794 235 b 749 204 767 206 749 218 b 786 179 749 183 771 176 b 774 301 839 190 832 301 b 711 247 749 301 717 272 b 675 303 714 272 701 297 b 656 289 668 304 656 301 b 667 226 656 269 669 260 b 614 135 664 192 650 135 b 590 192 588 135 588 174 b 611 307 650 217 668 307 b 515 153 544 307 554 153 b 499 324 485 153 497 304 b 719 329 571 324 651 325 b 844 397 761 332 844 338 b 832 401 844 410 839 404 b 499 360 725 353 561 361 z m 388 325 l 450 325 b 401 146 447 299 447 143 b 388 325 375 147 389 297 z m 265 211 b 292 274 265 235 279 286 b 265 211 300 267 279 222 z m 593 211 b 619 275 594 226 606 272 b 628 251 629 276 632 269 b 593 211 622 233 611 219 z m 443 11 l 451 11 l 451 44 l 443 44 z m 349 42 l 340 39 l 340 35 l 338 35 l 338 29 l 340 29 b 342 13 340 24 339 17 b 354 11 344 10 350 10 l 354 18 b 349 21 350 17 349 18 l 349 29 l 354 29 l 354 35 l 349 35 z m 664 36 b 654 31 658 36 657 35 b 640 33 653 38 644 38 l 639 35 l 633 35 l 633 11 l 640 11 l 640 25 b 644 29 640 26 642 29 b 649 24 649 29 649 26 l 649 11 l 656 11 l 656 24 b 665 24 656 28 665 33 l 665 11 l 671 11 l 671 25 b 664 36 671 33 668 36 z m 428 36 b 422 33 425 36 424 35 l 421 35 l 413 35 l 413 11 l 422 11 b 422 26 422 13 422 25 b 429 24 424 31 429 29 l 429 11 l 439 11 l 439 25 b 428 36 439 33 433 36 z m 557 31 l 557 35 l 551 35 b 551 11 551 31 551 17 l 558 11 b 558 25 558 13 558 25 b 568 28 558 26 564 29 l 568 36 b 557 31 564 36 560 35 z m 468 36 b 456 22 460 36 456 31 b 481 13 456 13 469 7 l 478 18 b 465 21 475 17 465 14 l 481 21 b 468 36 481 31 475 36 z m 617 36 b 617 10 599 36 599 10 b 617 36 633 10 633 36 z m 588 24 b 601 28 588 29 597 31 l 601 35 b 601 13 571 42 572 3 l 601 18 b 588 24 597 18 588 17 z m 400 11 l 407 11 l 407 35 l 400 35 z m 236 18 l 232 35 l 225 35 l 221 18 l 218 35 l 210 35 l 217 11 l 224 11 l 228 26 l 233 11 l 240 11 l 246 35 l 239 35 z m 465 25 b 474 25 465 31 474 31 z m 617 17 b 617 29 608 17 607 29 b 617 17 624 29 624 17 z m 571 19 b 571 10 565 19 565 10 b 571 19 576 10 576 19 z m 329 19 b 329 10 324 19 324 10 b 329 19 336 10 336 19 z m 274 18 l 269 35 l 263 35 l 258 18 l 256 35 l 249 35 l 254 11 l 261 11 l 267 26 l 271 11 l 278 11 l 285 35 l 276 35 z m 311 18 l 307 35 l 301 35 l 296 18 l 293 35 l 286 35 l 292 11 l 300 11 l 304 26 l 308 11 l 317 11 l 322 35 l 315 35 z m 385 18 l 379 35 l 374 35 l 369 18 l 367 35 l 358 35 l 365 11 l 372 11 l 376 26 l 382 11 l 389 11 l 394 35 l 388 35 z m 403 44 b 403 36 396 44 396 36 b 403 44 408 36 408 44 z m 535 36 b 522 22 526 36 522 31 b 547 13 522 11 535 7 l 544 18 b 532 21 542 17 532 14 l 547 21 b 535 36 547 31 542 36 z m 532 25 b 540 25 532 31 540 31 z "},"":{"ha":1700,"x_min":0,"x_max":0,"o":"m 361 361 b 182 388 361 306 207 382 b 32 306 67 410 38 357 b 456 115 14 108 328 111 b 801 296 624 119 799 172 b 546 486 804 410 654 449 b 603 535 356 553 432 586 b 824 619 700 506 824 538 b 442 778 824 742 611 778 b 28 561 275 778 28 767 b 361 361 28 399 361 400 z m 1194 272 b 1031 299 1190 257 1056 293 b 856 204 911 326 861 267 b 1293 -26 836 -35 1161 -31 b 1664 214 1465 -21 1661 63 b 1276 507 1671 528 1276 453 b 1444 483 1276 538 1331 557 b 1672 586 1536 424 1672 486 b 1278 778 1672 733 1453 778 b 851 515 1106 778 851 764 b 1194 272 851 318 1206 318 z m 656 93 b 219 78 596 93 432 65 b 64 19 111 85 68 58 b 453 -124 46 -129 335 -126 b 782 25 606 -119 779 -69 b 656 93 783 64 731 93 z "}}}
